<svg xmlns="http://www.w3.org/2000/svg" fill="none" viewBox="0 0 122 38">
  <g fill="#fff" clip-path="url(#a)">
    <path d="M13.5 37.4c-11.4 0-13-5.2-13-8.7V28c0-3.5 1.5-8.6 13-8.6h.9c11 0 12.5 4.8 12.6 7.2v.1l-.2.2H19l-.1-.1c-.2-.6-1-2.3-5-2.3-4.1 0-5.2 2-5.2 3.7v.2c0 1.7.9 3.8 5.2 3.8 4.2 0 4.8-1.7 5-2.4l.2-.1h7.7s.2 0 .2.2v.3c0 2.4-1.5 7.2-12.6 7.2h-.9ZM45.4 30.8h-9.5c-.2 0-.2 0-.2.2v6l-.2.1H28s-.2 0-.2-.2V20l.2-.2h7.5l.2.2v5.6s0 .2.2.2h9.5l.2-.2v-5.6s0-.2.2-.2h7.4l.2.2v17c0 .1 0 .2-.2.2h-7.4c-.1 0-.2 0-.2-.2v-6l-.2-.1ZM73.4 34.7h-9.7l-.2.1-1 2.2-.2.1h-8c-.2 0-.3-.1-.2-.2l8.7-17 .2-.2h11.4l.2.2 9.3 17s0 .3-.2.3h-8.9l-.2-.2-1-2.1-.2-.1Zm-2.4-5L68.7 25c-.1-.2-.4-.2-.4 0L66 29.6c0 .2 0 .3.2.3h4.6c.1 0 .3-.1.2-.3ZM105 19.7l.1.2v4.8s0 .2-.2.2h-8.7s-.2 0-.2.2v11.8c0 .1 0 .2-.2.2h-7.5s-.2 0-.2-.2V25.1c0-.1 0-.2-.2-.2h-8.7l-.2-.2v-4.8s0-.2.2-.2h25.7ZM13.8 6.1c4.1 0 4.9 1.7 5 2.3l.3.1h7.7s.2 0 .2-.2C27 5.7 25.5 1 14.4 1h-.9C2 1 .5 6 .5 9.6v.7c0 3.5 1.7 8.7 13 8.7h.9c2.5 0 4.6-.6 6.2-1.5 1.7-.9.3 0 .3.2v.8l.2.2h5.6l.2-.2V9H15.5l-.2.2V12l.2.2h2.6c.2 0 .3.2.2.3-.6.7-1.9 1.3-4.4 1.3-4.3 0-5.2-2.1-5.2-3.8v-.3c0-1.7.8-3.6 5.1-3.6ZM105.4 18.4l-8.3-17-.2-.1H86.7l-.1.1-7.3 15.7V9h-11l-.2.2V12l.2.2h2.5c.2 0 .3.2.2.3-.6.7-1.8 1.3-4.3 1.3-4.1 0-5-2.1-5-3.8v-.2c0-1.8.8-3.7 5-3.7 4.1 0 4.7 1.7 4.8 2.3l.2.1h7.5s.2 0 .2-.2c0-2.5-1.5-7.3-12.2-7.3h-.8C55.3 1 53.8 6 53.8 9.6v.7c0 3.5 1.6 8.7 12.6 8.7h.8a12 12 0 0 0 6-1.5c.1 0 .3 0 .3.2v.8c0 .1 0 .2.2.2H86l.1-.1 1-2.2.1-.1H96.2l1 2.3h8c.2 0 .3 0 .2-.2Zm-11.7-6.9h-4c-.2 0-.3-.2-.2-.3l2-4.7h.3l2.1 4.7c0 .1 0 .3-.2.3ZM53.4 6.2V1.5c0-.1 0-.2-.2-.2H28l-.2.2v4.7l.2.2h8.5l.2.2v6.8c0 .1 0 .2-.2.2H28l-.2.2v4.7l.2.2h25.2c.1 0 .2 0 .2-.2v-4.7c0-.1 0-.2-.2-.2h-8.4c-.1 0-.2 0-.2-.2V6.6s0-.2.2-.2h8.4c.1 0 .2 0 .2-.2ZM110.2 4.6v2h-7.5V6c0-.7 0-2 3.2-2.8l.9-.1c.6-.2.7-.2.7-.4s-.2-.3-1-.3c-1.2 0-1.2.5-1.2.7h-2.5c0-.8.2-2.1 3.4-2.1h.4c3 0 3.5.8 3.5 1.7 0 1-.7 1.4-3 1.8h-.8c-1.2.3-1.5.5-1.5.6h3.2v-.5h2.2ZM113.1 5v1.6h-2.4V5h2.4ZM121.5 3.7V4c0 1-.5 2.7-4 2.7h-.4c-3.6 0-4-1.7-4-2.7v-.3c0-1 .4-2.7 4-2.7h.3c3.6 0 4 1.7 4 2.7Zm-2.6.2v-.1c0-.5-.4-1.2-1.6-1.2-1.4 0-1.7.7-1.7 1.2 0 .6.4 1.3 1.7 1.3 1.2 0 1.6-.7 1.6-1.2Z"/>
  </g>
  <defs>
    <clipPath id="a">
      <path fill="#fff" d="M0 .5h121.6v37H0z"/>
    </clipPath>
  </defs>
</svg>
