<?xml version="1.0" encoding="utf-8"?>
<!-- Generator: Adobe Illustrator 27.0.0, SVG Export Plug-In . SVG Version: 6.00 Build 0)  -->
<svg version="1.1" id="Слой_1" xmlns="http://www.w3.org/2000/svg" xmlns:xlink="http://www.w3.org/1999/xlink" x="0px" y="0px"
	 viewBox="0 0 40 40" style="enable-background:new 0 0 40 40;" xml:space="preserve">
<style type="text/css">
	.st0{fill:none;stroke:#0061AA;stroke-width:2;stroke-miterlimit:10;}
	.st1{fill:none;stroke:#E37021;stroke-width:2;stroke-miterlimit:10;}
	.st2{display:none;fill:#E37021;}
</style>
<path class="st0" d="M7,17V3c0-1.1,0.9-2,2-2h22l8,8v28c0,1.1-0.9,2-2,2H9c-1.1,0-2-0.9-2-2v-6"/>
<path class="st0" d="M36,10h-6V4"/>
<path class="st1" d="M23.1,31H2.9C1.9,31,1,30.1,1,29V19c0-1.1,0.9-2,1.9-2h20.2c1.1,0,1.9,0.9,1.9,2v10C25,30.1,24.1,31,23.1,31z"
	/>
<path class="st2" d="M5.6,19.9h2.2c0.9,0,1.6,0.2,2,0.5c0.5,0.3,0.7,0.9,0.7,1.7c0,0.5-0.1,1-0.2,1.3c-0.1,0.3-0.4,0.6-0.8,0.8
	l1.1,3.9H8.8l-0.9-3.6H7.4V28H5.6V19.9z M7.9,23.3c0.4,0,0.6-0.1,0.8-0.3c0.1-0.2,0.2-0.5,0.2-0.9c0-0.4-0.1-0.6-0.2-0.8
	c-0.1-0.2-0.4-0.3-0.7-0.3H7.4v2.2H7.9z M13.2,19.9h2l1.5,8.1h-1.7l-0.3-1.7h-1.2L13.4,28h-1.7L13.2,19.9z M14.7,25.2l-0.4-3.2
	l-0.4,3.2H14.7z M18.1,19.9h2.2c0.9,0,1.6,0.2,2,0.5c0.5,0.3,0.7,0.9,0.7,1.7c0,0.5-0.1,1-0.2,1.3s-0.4,0.6-0.8,0.8l1.1,3.9h-1.9
	l-0.9-3.6h-0.5V28h-1.8V19.9z M20.4,23.3c0.4,0,0.6-0.1,0.8-0.3c0.1-0.2,0.2-0.5,0.2-0.9c0-0.4-0.1-0.6-0.2-0.8
	c-0.1-0.2-0.4-0.3-0.7-0.3h-0.6v2.2H20.4z"/>
</svg>
