<?xml version="1.0" encoding="utf-8"?>
<!-- Generator: Adobe Illustrator 27.0.0, SVG Export Plug-In . SVG Version: 6.00 Build 0)  -->
<svg version="1.1" id="Слой_1" xmlns="http://www.w3.org/2000/svg" xmlns:xlink="http://www.w3.org/1999/xlink" x="0px" y="0px"
	 viewBox="0 0 40 40" style="enable-background:new 0 0 40 40;" xml:space="preserve">
<style type="text/css">
	.st0{fill:none;stroke:#0061AA;stroke-width:2;stroke-miterlimit:10;}
	.st1{fill:none;stroke:#E37021;stroke-width:2;stroke-miterlimit:10;}
	.st2{display:none;fill:#E37021;}
	.st3{display:none;}
	.st4{display:inline;fill:#E37021;}
	.st5{fill:#E37021;}
	.st6{font-family:'Arial-BoldMT';}
	.st7{font-size:10.7563px;}
</style>
<path class="st0" d="M7,17V3c0-1.1,0.9-2,2-2h22l8,8v28c0,1.1-0.9,2-2,2H9c-1.1,0-2-0.9-2-2v-6"/>
<path class="st0" d="M36,10h-6V4"/>
<path class="st1" d="M23.1,31H2.9C1.9,31,1,30.1,1,29V19c0-1.1,0.9-2,1.9-2h20.2c1.1,0,1.9,0.9,1.9,2v10C25,30.1,24.1,31,23.1,31z"
	/>
<path class="st2" d="M5.6,19.9h2.2c0.9,0,1.6,0.2,2,0.5c0.5,0.3,0.7,0.9,0.7,1.7c0,0.5-0.1,1-0.2,1.3c-0.1,0.3-0.4,0.6-0.8,0.8
	l1.1,3.9H8.8l-0.9-3.6H7.4V28H5.6V19.9z M7.9,23.3c0.4,0,0.6-0.1,0.8-0.3c0.1-0.2,0.2-0.5,0.2-0.9c0-0.4-0.1-0.6-0.2-0.8
	c-0.1-0.2-0.4-0.3-0.7-0.3H7.4v2.2H7.9z M13.2,19.9h2l1.5,8.1h-1.7l-0.3-1.7h-1.2L13.4,28h-1.7L13.2,19.9z M14.7,25.2l-0.4-3.2
	l-0.4,3.2H14.7z M18.1,19.9h2.2c0.9,0,1.6,0.2,2,0.5c0.5,0.3,0.7,0.9,0.7,1.7c0,0.5-0.1,1-0.2,1.3s-0.4,0.6-0.8,0.8l1.1,3.9h-1.9
	l-0.9-3.6h-0.5V28h-1.8V19.9z M20.4,23.3c0.4,0,0.6-0.1,0.8-0.3c0.1-0.2,0.2-0.5,0.2-0.9c0-0.4-0.1-0.6-0.2-0.8
	c-0.1-0.2-0.4-0.3-0.7-0.3h-0.6v2.2H20.4z"/>
<g class="st3">
	<path class="st4" d="M4.2,25.3l1.2-0.1c0.1,0.5,0.2,0.9,0.5,1.1c0.2,0.2,0.5,0.4,0.9,0.4c0.4,0,0.7-0.1,0.9-0.3s0.3-0.5,0.3-0.7
		c0-0.2,0-0.3-0.1-0.5c-0.1-0.1-0.2-0.2-0.5-0.3c-0.2-0.1-0.5-0.2-1-0.3C5.8,24.2,5.3,24,5,23.7c-0.4-0.4-0.6-0.9-0.6-1.5
		c0-0.4,0.1-0.8,0.3-1.1c0.2-0.3,0.4-0.6,0.8-0.8S6.3,20,6.7,20c0.8,0,1.4,0.2,1.8,0.6c0.4,0.4,0.6,1,0.6,1.7l-1.3,0.1
		c-0.1-0.4-0.2-0.7-0.4-0.9s-0.5-0.3-0.8-0.3c-0.4,0-0.7,0.1-0.9,0.3c-0.1,0.1-0.2,0.3-0.2,0.5c0,0.2,0.1,0.3,0.2,0.5
		C6,22.6,6.4,22.8,7,23c0.6,0.2,1.1,0.4,1.4,0.6c0.3,0.2,0.5,0.5,0.7,0.8c0.2,0.3,0.3,0.7,0.3,1.2c0,0.4-0.1,0.9-0.3,1.2
		c-0.2,0.4-0.5,0.7-0.9,0.9s-0.8,0.3-1.4,0.3c-0.8,0-1.4-0.2-1.9-0.7C4.5,26.8,4.3,26.1,4.2,25.3z"/>
	<path class="st4" d="M12.1,27.8l-2.3-7.7h1.4l1.6,5.7l1.6-5.7h1.4l-2.3,7.7H12.1z"/>
	<path class="st4" d="M19.3,25v-1.3h2.8v3.1c-0.3,0.3-0.7,0.6-1.2,0.8c-0.5,0.2-1,0.4-1.6,0.4c-0.7,0-1.2-0.2-1.7-0.5
		c-0.5-0.3-0.9-0.8-1.1-1.4c-0.2-0.6-0.4-1.3-0.4-2.1c0-0.8,0.1-1.5,0.4-2.1c0.3-0.6,0.7-1.1,1.2-1.4c0.4-0.3,0.9-0.4,1.5-0.4
		c0.8,0,1.4,0.2,1.9,0.6c0.4,0.4,0.7,1,0.9,1.7l-1.3,0.3c-0.1-0.4-0.3-0.7-0.5-0.9c-0.2-0.2-0.6-0.3-0.9-0.3c-0.6,0-1,0.2-1.3,0.6
		s-0.5,1.1-0.5,1.9c0,0.9,0.2,1.6,0.5,2.1s0.8,0.7,1.3,0.7c0.3,0,0.5-0.1,0.8-0.2c0.3-0.1,0.5-0.3,0.7-0.5v-1H19.3z"/>
</g>
<g>
	<path class="st5" d="M4.5,27.8v-7.7h2.1c0.8,0,1.3,0,1.5,0.1C8.5,20.3,8.8,20.6,9,21s0.4,0.9,0.4,1.5c0,0.5-0.1,0.9-0.2,1.2
		s-0.3,0.6-0.5,0.8S8.2,24.7,8,24.8c-0.3,0.1-0.8,0.1-1.3,0.1H5.8v2.9H4.5z M5.8,21.4v2.2h0.7c0.5,0,0.8,0,1-0.1
		c0.2-0.1,0.3-0.2,0.4-0.4c0.1-0.2,0.1-0.4,0.1-0.6c0-0.3-0.1-0.5-0.2-0.7c-0.1-0.2-0.3-0.3-0.5-0.3c-0.2,0-0.5-0.1-0.9-0.1H5.8z"/>
	<path class="st5" d="M10.5,27.8v-7.7h1.2l2.6,5.1v-5.1h1.2v7.7h-1.3l-2.6-5v5H10.5z"/>
	<path class="st5" d="M19.8,25v-1.3h2.8v3.1c-0.3,0.3-0.7,0.6-1.2,0.8c-0.5,0.2-1,0.4-1.6,0.4c-0.7,0-1.2-0.2-1.7-0.5
		c-0.5-0.3-0.9-0.8-1.1-1.4c-0.2-0.6-0.4-1.3-0.4-2.1c0-0.8,0.1-1.5,0.4-2.1c0.3-0.6,0.7-1.1,1.2-1.4c0.4-0.3,0.9-0.4,1.5-0.4
		c0.8,0,1.4,0.2,1.9,0.6c0.4,0.4,0.7,1,0.9,1.7l-1.3,0.3c-0.1-0.4-0.3-0.7-0.5-0.9c-0.2-0.2-0.6-0.3-0.9-0.3c-0.6,0-1,0.2-1.3,0.6
		S18,23,18,23.8c0,0.9,0.2,1.6,0.5,2.1s0.8,0.7,1.3,0.7c0.3,0,0.5-0.1,0.8-0.2c0.3-0.1,0.5-0.3,0.7-0.5v-1H19.8z"/>
</g>
<text transform="matrix(0.8259 0 0 1 3.8753 27.7865)" class="st2 st6 st7">PNG</text>
</svg>
