<?xml version="1.0" encoding="utf-8"?>
<!-- Generator: Adobe Illustrator 27.0.0, SVG Export Plug-In . SVG Version: 6.00 Build 0)  -->
<svg version="1.1" id="Слой_1" xmlns="http://www.w3.org/2000/svg" xmlns:xlink="http://www.w3.org/1999/xlink" x="0px" y="0px"
	 viewBox="0 0 40 40" style="enable-background:new 0 0 40 40;" xml:space="preserve">
<style type="text/css">
	.st0{fill:none;stroke:#0061AA;stroke-width:2;stroke-miterlimit:10;}
	.st1{fill:none;stroke:#E37021;stroke-width:2;stroke-miterlimit:10;}
	.st2{display:none;fill:#E37021;}
	.st3{display:none;}
	.st4{display:inline;fill:#E37021;}
	.st5{fill:#E37021;}
	.st6{display:none;fill:#E37021;enable-background:new    ;}
	.st7{font-family:'Arial-BoldMT';}
	.st8{font-size:10.7563px;}
</style>
<path class="st0" d="M7,17V3c0-1.1,0.9-2,2-2h22l8,8v28c0,1.1-0.9,2-2,2H9c-1.1,0-2-0.9-2-2v-6"/>
<path class="st0" d="M36,10h-6V4"/>
<path class="st1" d="M23.1,31H2.9c-1,0-1.9-0.9-1.9-2V19c0-1.1,0.9-2,1.9-2h20.2c1.1,0,1.9,0.9,1.9,2v10C25,30.1,24.1,31,23.1,31z"
	/>
<path class="st2" d="M5.6,19.9h2.2c0.9,0,1.6,0.2,2,0.5c0.5,0.3,0.7,0.9,0.7,1.7c0,0.5-0.1,1-0.2,1.3c-0.1,0.3-0.4,0.6-0.8,0.8
	l1.1,3.9H8.8l-0.9-3.6H7.4V28H5.6V19.9z M7.9,23.3c0.4,0,0.6-0.1,0.8-0.3c0.1-0.2,0.2-0.5,0.2-0.9s-0.1-0.6-0.2-0.8
	C8.6,21.1,8.3,21,8,21H7.4v2.2L7.9,23.3L7.9,23.3z M13.2,19.9h2l1.5,8.1H15l-0.3-1.7h-1.2L13.4,28h-1.7L13.2,19.9z M14.7,25.2
	L14.3,22l-0.4,3.2H14.7z M18.1,19.9h2.2c0.9,0,1.6,0.2,2,0.5c0.5,0.3,0.7,0.9,0.7,1.7c0,0.5-0.1,1-0.2,1.3S22.4,24,22,24.2l1.1,3.9
	h-1.9l-0.9-3.6h-0.5V28H18L18.1,19.9L18.1,19.9z M20.4,23.3c0.4,0,0.6-0.1,0.8-0.3c0.1-0.2,0.2-0.5,0.2-0.9s-0.1-0.6-0.2-0.8
	c-0.1-0.2-0.4-0.3-0.7-0.3h-0.6v2.2L20.4,23.3L20.4,23.3z"/>
<g class="st3">
	<path class="st4" d="M4.2,25.3l1.2-0.1c0.1,0.5,0.2,0.9,0.5,1.1c0.2,0.2,0.5,0.4,0.9,0.4s0.7-0.1,0.9-0.3S8,25.9,8,25.7
		s0-0.3-0.1-0.5c-0.1-0.1-0.2-0.2-0.5-0.3c-0.2-0.1-0.5-0.2-1-0.3C5.8,24.2,5.3,24,5,23.7c-0.4-0.4-0.6-0.9-0.6-1.5
		c0-0.4,0.1-0.8,0.3-1.1c0.2-0.3,0.4-0.6,0.8-0.8S6.3,20,6.7,20c0.8,0,1.4,0.2,1.8,0.6c0.4,0.4,0.6,1,0.6,1.7l-1.3,0.1
		c-0.1-0.4-0.2-0.7-0.4-0.9s-0.5-0.3-0.8-0.3c-0.4,0-0.7,0.1-0.9,0.3c-0.1,0.1-0.2,0.3-0.2,0.5s0.1,0.3,0.2,0.5
		C6,22.6,6.4,22.8,7,23s1.1,0.4,1.4,0.6c0.3,0.2,0.5,0.5,0.7,0.8s0.3,0.7,0.3,1.2c0,0.4-0.1,0.9-0.3,1.2c-0.2,0.4-0.5,0.7-0.9,0.9
		S7.4,28,6.8,28c-0.8,0-1.4-0.2-1.9-0.7C4.5,26.8,4.3,26.1,4.2,25.3z"/>
	<path class="st4" d="M12.1,27.8l-2.3-7.7h1.4l1.6,5.7l1.6-5.7h1.4l-2.3,7.7H12.1z"/>
	<path class="st4" d="M19.3,25v-1.3h2.8v3.1c-0.3,0.3-0.7,0.6-1.2,0.8c-0.5,0.2-1,0.4-1.6,0.4c-0.7,0-1.2-0.2-1.7-0.5
		s-0.9-0.8-1.1-1.4s-0.4-1.3-0.4-2.1c0-0.8,0.1-1.5,0.4-2.1s0.7-1.1,1.2-1.4c0.4-0.3,0.9-0.4,1.5-0.4c0.8,0,1.4,0.2,1.9,0.6
		c0.4,0.4,0.7,1,0.9,1.7l-1.3,0.3c-0.1-0.4-0.3-0.7-0.5-0.9c-0.2-0.2-0.6-0.3-0.9-0.3c-0.6,0-1,0.2-1.3,0.6s-0.5,1.1-0.5,1.9
		c0,0.9,0.2,1.6,0.5,2.1s0.8,0.7,1.3,0.7c0.3,0,0.5-0.1,0.8-0.2s0.5-0.3,0.7-0.5v-1h-1.5V25z"/>
</g>
<g class="st3">
	<path class="st4" d="M4.5,27.8v-7.7h2.1c0.8,0,1.3,0,1.5,0.1C8.5,20.3,8.8,20.6,9,21s0.4,0.9,0.4,1.5c0,0.5-0.1,0.9-0.2,1.2
		s-0.3,0.6-0.5,0.8S8.2,24.7,8,24.8c-0.3,0.1-0.8,0.1-1.3,0.1H5.8v2.9H4.5z M5.8,21.4v2.2h0.7c0.5,0,0.8,0,1-0.1s0.3-0.2,0.4-0.4
		C8,22.9,8,22.7,8,22.5c0-0.3-0.1-0.5-0.2-0.7s-0.3-0.3-0.5-0.3s-0.5-0.1-0.9-0.1H5.8z"/>
	<path class="st4" d="M10.5,27.8v-7.7h1.2l2.6,5.1v-5.1h1.2v7.7h-1.3l-2.6-5v5H10.5z"/>
	<path class="st4" d="M19.8,25v-1.3h2.8v3.1c-0.3,0.3-0.7,0.6-1.2,0.8c-0.5,0.2-1,0.4-1.6,0.4c-0.7,0-1.2-0.2-1.7-0.5
		s-0.9-0.8-1.1-1.4s-0.4-1.3-0.4-2.1c0-0.8,0.1-1.5,0.4-2.1s0.7-1.1,1.2-1.4c0.4-0.3,0.9-0.4,1.5-0.4c0.8,0,1.4,0.2,1.9,0.6
		c0.4,0.4,0.7,1,0.9,1.7l-1.3,0.3c-0.1-0.4-0.3-0.7-0.5-0.9c-0.2-0.2-0.6-0.3-0.9-0.3c-0.6,0-1,0.2-1.3,0.6S18,23,18,23.8
		c0,0.9,0.2,1.6,0.5,2.1s0.8,0.7,1.3,0.7c0.3,0,0.5-0.1,0.8-0.2s0.5-0.3,0.7-0.5v-1h-1.5V25z"/>
</g>
<g>
	<path class="st5" d="M3.1,25.5l1.7-0.2c0.1,0.6,0.3,1,0.6,1.2S6.1,27,6.7,27c0.6,0,1-0.1,1.3-0.4s0.4-0.5,0.4-0.8
		c0-0.2-0.1-0.4-0.2-0.5s-0.3-0.3-0.6-0.4c-0.2-0.1-0.7-0.2-1.4-0.4c-0.9-0.2-1.6-0.5-2-0.8c-0.5-0.5-0.8-1-0.8-1.7
		c0-0.4,0.1-0.8,0.4-1.2c0.2-0.4,0.6-0.7,1.1-0.9s1-0.3,1.7-0.3c1.1,0,1.9,0.2,2.4,0.7s0.8,1.1,0.9,1.9l-1.7,0.1
		c-0.1-0.4-0.2-0.8-0.5-1S7,21,6.5,21c-0.5,0-0.9,0.1-1.2,0.3c-0.2,0.1-0.3,0.3-0.3,0.5c0,0.2,0.1,0.4,0.3,0.5
		c0.2,0.2,0.8,0.4,1.6,0.6s1.5,0.4,1.9,0.6s0.7,0.5,0.9,0.9s0.3,0.8,0.3,1.4c0,0.5-0.1,1-0.4,1.4S9,28,8.5,28.2s-1.1,0.3-1.9,0.3
		c-1.1,0-1.9-0.3-2.5-0.8S3.2,26.5,3.1,25.5z"/>
	<path class="st5" d="M11.5,28.3v-8.6h1.7v8.6H11.5z"/>
	<path class="st5" d="M18.9,25.2v-1.4h3.7v3.4c-0.4,0.4-0.9,0.7-1.6,0.9s-1.4,0.4-2.1,0.4c-0.9,0-1.7-0.2-2.3-0.6s-1.2-0.9-1.5-1.6
		s-0.5-1.5-0.5-2.3c0-0.9,0.2-1.7,0.6-2.4c0.4-0.7,0.9-1.2,1.6-1.6c0.6-0.3,1.2-0.4,2.1-0.4c1.1,0,1.9,0.2,2.5,0.7s1,1.1,1.2,1.9
		l-1.7,0.3c-0.1-0.4-0.3-0.8-0.7-1s-0.8-0.4-1.3-0.4c-0.8,0-1.4,0.2-1.8,0.7s-0.7,1.2-0.7,2.1c0,1,0.2,1.8,0.7,2.3s1,0.8,1.8,0.8
		c0.4,0,0.7-0.1,1.1-0.2s0.7-0.3,0.9-0.5v-1.1H18.9z"/>
</g>
<text transform="matrix(0.8259 0 0 1 3.875 27.7866)" class="st6 st7 st8">PNG</text>
</svg>
