<?xml version="1.0" encoding="utf-8"?>
<!DOCTYPE svg PUBLIC "-//W3C//DTD SVG 1.0//EN" "http://www.w3.org/TR/2001/REC-SVG-20010904/DTD/svg10.dtd">
<svg version="1.0" xmlns="http://www.w3.org/2000/svg" width="1024px" height="1024px" viewBox="0 0 1024 1024" preserveAspectRatio="xMidYMid meet">
 <g fill="#1482f8">
  <path d="M232.25 826.25 c-5.55 -2.40 -7.10 -11.55 -2.55 -15.40 3.55 -3 5.70 -3.45 18.80 -3.80 l11.25 -0.30 0.25 -190.25 c0.20 -146.45 0.40 -190.50 0.85 -191.30 0.90 -1.55 4.30 -4.50 6.20 -5.35 4.05 -1.80 4.90 -1.85 32 -1.85 l26.90 0 0.20 -25.15 c0.25 -28.70 0.40 -31.65 1.85 -35.40 1.35 -3.35 2 -4.10 4.80 -5.40 2.20 -1.05 2.45 -1.05 74.45 -1.05 60.25 0 72.25 0.10 72.25 0.65 0 0.40 -2.10 2.85 -4.65 5.55 -5 5.10 -5.20 5.45 -6.60 9.95 -1.30 4.15 -1.75 4.60 -4.30 4.50 -1.20 -0.05 -7.80 -0.10 -14.70 -0.10 -6.85 -0.05 -14.30 -0.30 -16.50 -0.55 -4.60 -0.55 -26.80 -0.70 -39.85 -0.25 -5.25 0.15 -8.90 0.10 -8.90 -0.15 0 -0.65 -35.55 -0.15 -36.35 0.50 -0.50 0.40 -0.65 5.65 -0.65 23.15 l0 22.60 15.40 0.30 c8.45 0.20 47.70 0.35 87.25 0.35 44.30 0 72.25 0.20 72.80 0.45 0.65 0.35 0.80 0.90 0.65 2.05 -0.10 0.80 -0.40 1.65 -0.65 1.80 -0.25 0.15 -0.45 0.80 -0.45 1.45 0 0.65 -0.20 1.30 -0.45 1.45 -0.25 0.15 -0.60 1.15 -0.80 2.15 -0.75 4.10 -2.70 7.95 -5.60 11 l-1.10 1.15 -112.75 0 c-83.35 0 -113.65 0.15 -116.15 0.60 l-3.40 0.55 -0.10 168.05 c-0.05 92.45 0.05 174.85 0.20 183.20 l0.30 15.10 15.35 0 c8.45 0 26.15 -0.15 39.40 -0.35 l24.10 -0.30 0 -56.55 c0 -54 0.05 -56.65 0.95 -58.55 0.50 -1.10 1.70 -2.70 2.60 -3.60 3.60 -3.40 -2.60 -3.15 82.55 -3.15 48.95 0 77.80 0.20 78.90 0.50 3.25 0.90 6.15 3.15 7.50 5.80 l1.25 2.45 0.15 56.90 0.10 56.85 20.65 0 c11.30 0 29.20 -0.15 39.70 -0.35 l19.15 -0.30 0.15 -153.05 c0.10 -122.95 0.25 -153.60 0.80 -155.80 0.60 -2.50 2.75 -5.50 3.90 -5.50 0.55 0 5.55 -4.80 8 -7.65 2.05 -2.40 3.65 -2.80 3.65 -0.90 0 0.45 0.20 1.05 0.40 1.30 0.65 0.80 3.20 6.80 3.70 8.75 0.25 0.95 0.40 69.95 0.40 156.25 0 85 0.10 155.20 0.25 156 l0.35 1.50 9.80 0 c14.80 0.05 19.90 1.30 22.65 5.70 3.05 4.75 1.20 11.15 -3.90 13.45 -1.80 0.80 -13.75 0.85 -216.40 0.90 -174.60 0.05 -214.80 -0.05 -216 -0.55z m282.40 -71.15 l-0.10 -50.85 -49.65 0.10 c-27.30 0.05 -56.90 0.20 -65.75 0.25 l-16.15 0.15 0 1.65 c0 0.85 -0.20 1.60 -0.50 1.60 -0.25 0 -0.50 1.15 -0.50 2.50 0 1.40 0.25 2.50 0.50 2.50 0.35 0 0.50 9.15 0.50 26.50 0 17.35 -0.15 26.50 -0.50 26.50 -0.25 0 -0.50 0.90 -0.50 2 0 1.10 0.25 2 0.50 2 0.30 0 0.50 3.25 0.50 8.75 0 5.50 -0.20 8.75 -0.50 8.75 -0.30 0 -0.50 1.65 -0.50 4 0 2.60 0.20 4 0.55 4 0.40 0 0.50 1.55 0.35 5.05 l-0.20 5.10 16.45 -0.30 c9 -0.15 16.50 -0.35 16.60 -0.45 0.10 -0.10 0.25 -12.30 0.35 -27.15 l0.15 -27 1.45 -2.90 c0.80 -1.60 2.40 -3.75 3.60 -4.75 1.85 -1.70 2.80 -2.05 7.35 -3 4.70 -1 6.65 -1.10 20.95 -1.10 14.70 0 20.05 0.35 22.80 1.50 3.05 1.35 3.85 1.90 5.35 3.75 3 3.75 2.95 3 3.15 33.65 l0.15 28.10 16.85 0 16.85 0 -0.10 -50.90z m-52.65 27.65 l0 -22.30 -1.30 -1.20 c-1.25 -1.15 -1.75 -1.25 -5.90 -1.25 -2.50 0.05 -7.45 0.25 -11.05 0.50 -6.10 0.40 -6.55 0.50 -7.60 1.75 l-1.15 1.30 0 21.75 0 21.70 13.50 0 13.50 0 0 -22.25z"/>
  <path d="M447.25 642.95 c-8.80 -0.15 -16.80 -0.55 -17.80 -0.80 -5.90 -1.65 -9.80 -5.30 -11.45 -10.60 -1.60 -5.05 -2.35 -19.60 -1.60 -31.20 0.65 -10.50 1.40 -13.55 4 -16.45 2 -2.25 6.30 -4.90 7.90 -4.90 0.55 0 1.20 -0.15 1.40 -0.35 0.45 -0.50 3.10 -0.55 20.55 -0.75 11.70 -0.10 16.25 0 18.55 0.55 5.70 1.25 10.45 6.10 11.65 11.85 0.65 3.20 0.50 35.50 -0.20 39.65 -0.40 2.55 -2.25 6.10 -4.20 8.25 -1.60 1.75 -5.85 3.75 -9 4.15 -1.25 0.15 -2.65 0.45 -3.05 0.60 -0.40 0.15 -7.95 0.15 -16.75 0z m12.50 -19.70 l2 -0.15 0.15 -12.55 0.10 -12.55 -12.70 0 -12.75 0 -0.15 12.65 c-0.10 6.90 -0.05 12.80 0.05 13.05 0.15 0.35 15.55 0.05 23.30 -0.45z"/>
  <path d="M532.75 643.15 c-11.65 -1 -15.25 -3.15 -18.10 -11 -0.80 -2.15 -0.90 -4.45 -0.90 -20.65 0 -20.10 0.20 -21.95 2.85 -26.35 1.60 -2.65 3.75 -4.45 6.65 -5.50 3.05 -1.20 12.80 -1.85 27 -1.85 l14.50 -0.05 3.65 1.50 c6.30 2.50 8.80 6.10 9.65 13.80 0.80 6.90 0.30 36.70 -0.60 38.95 -2.30 5.80 -6.50 8.90 -13.80 10.25 -3.45 0.65 -26.05 1.30 -30.90 0.90z m19.10 -19.95 c1.20 -0.15 2.25 -0.45 2.40 -0.75 0.20 -0.25 1.30 -0.45 2.50 -0.45 l2.20 0 -0.25 -2.60 c-0.15 -1.45 -0.40 -6.90 -0.50 -12.05 l-0.25 -9.40 -12.70 0.10 -12.75 0.05 0 12.90 0 12.95 8.65 -0.25 c4.70 -0.15 9.55 -0.35 10.70 -0.50z"/>
  <path d="M332 642.45 c-6.50 -1.25 -10.20 -5.55 -12.10 -13.95 -0.85 -3.60 -1.10 -35.20 -0.35 -38.50 1.35 -5.90 6.45 -10.40 12.95 -11.45 4 -0.65 30.80 -1.05 35.50 -0.55 4.45 0.50 8.45 2.50 11.45 5.80 4.10 4.50 4.25 5.25 4.45 25.70 0.15 19.25 0.10 20.20 -2.50 25.85 -0.95 2.05 -4.65 5.40 -6.80 6.10 -3.80 1.25 -37.30 2.05 -42.60 1z m32.15 -28.75 c0.20 -5.65 0.20 -11.55 0.05 -13.10 l-0.30 -2.85 -12.75 0.15 -12.70 0.15 0.25 12.85 c0.10 7.05 0.20 12.85 0.25 12.85 0.05 0 5.65 0.05 12.45 0.10 l12.45 0.10 0.30 -10.25z"/>
  <path d="M447.40 547.75 c-0.20 -0.20 -3.70 -0.50 -7.75 -0.60 -7.35 -0.25 -10.60 -0.75 -14.35 -2.35 -4.55 -1.90 -7.60 -5.55 -8.50 -10.15 -0.80 -4.15 -0.30 -42.25 0.60 -42.55 0.30 -0.10 0.60 -0.50 0.60 -0.90 0 -0.80 0.30 -1.20 3.45 -4.75 2.45 -2.75 5.80 -4.50 10.30 -5.50 3.75 -0.80 33.20 -0.75 35.25 0.05 0.15 0.05 0.45 0.10 0.70 0.05 0.30 -0.05 1.05 0.15 1.75 0.50 5.85 2.70 8.30 5 10.15 9.40 1.10 2.75 1.15 3.25 1.30 23.40 l0.15 20.65 -1.60 3.05 c-1.40 2.65 -5.05 6.45 -6.20 6.45 -0.20 0 -1.05 0.30 -1.90 0.70 -2.40 1.10 -4.40 1.35 -13.10 1.80 -4.40 0.25 -8.55 0.55 -9.25 0.75 -0.70 0.20 -1.40 0.15 -1.60 0z m14.60 -32.95 l0 -12.65 -2.30 -0.35 c-2.90 -0.40 -20.05 -0.40 -22 0 l-1.45 0.25 0.10 12.60 c0.05 6.95 0.15 12.65 0.15 12.75 0 0.05 5.75 0.10 12.75 0.10 l12.75 0 0 -12.70z"/>
  <path d="M538.75 547.50 c-0.15 -0.25 -2.20 -0.50 -4.50 -0.50 -4.10 0 -9.90 -1 -11.95 -2.10 -2.45 -1.30 -4.95 -3.70 -6 -5.85 -2.25 -4.50 -2.40 -6.55 -2.20 -27.05 0.15 -18.75 0.20 -19.30 1.35 -22.15 1.20 -3.05 3.90 -6.20 6.20 -7.20 0.75 -0.35 1.95 -0.95 2.70 -1.25 0.95 -0.50 6.15 -0.65 20.35 -0.65 16.75 0 19.40 0.10 21.80 0.90 4.55 1.45 7.05 3.35 8.85 6.65 1.45 2.75 1.65 3.65 2.40 11.95 0.95 10 0.80 29.85 -0.25 33.50 -2.50 8.85 -9.70 13.25 -21.60 13.25 -2.10 0 -4 0.25 -4.15 0.50 -0.20 0.30 -2.90 0.50 -6.50 0.50 -3.60 0 -6.30 -0.20 -6.50 -0.50z m19.45 -21.15 c0.15 -0.60 0.30 -6.30 0.30 -12.65 l0 -11.55 -1.85 -0.35 c-2.40 -0.35 -19.80 -0.40 -22.15 0 l-1.75 0.30 0 12.70 0 12.75 12.60 -0.10 c12.40 -0.05 12.55 -0.05 12.85 -1.10z"/>
  <path d="M333.85 546 c-6.90 -1.45 -11.20 -4.65 -13.45 -10 -1.05 -2.60 -1.15 -3.45 -1.30 -17.25 -0.20 -15.95 0.35 -23.95 1.95 -27.20 0.50 -1.10 0.95 -2.25 0.95 -2.55 0 -1 2.25 -3.60 4.40 -5.05 4.80 -3.25 4.30 -3.15 23 -3.35 17.65 -0.15 21.05 0.10 25.10 2.05 2.70 1.25 5.45 3.95 6.75 6.60 1.75 3.55 2.10 5 3 11 0.70 4.95 0.75 19.40 0.05 20.10 -0.15 0.15 -0.30 3.40 -0.30 7.15 0 7.40 -0.35 9.05 -2.60 12.35 -1.90 2.85 -4.10 4.40 -8.05 5.85 -3.25 1.20 -3.70 1.20 -19.20 1.20 -13.55 0 -16.55 -0.10 -20.30 -0.90z m30.30 -22.10 c0.15 -2 0.30 -7.75 0.35 -12.70 l0.05 -9.10 -6.25 -0.35 c-6.20 -0.35 -19.05 -0.20 -19.50 0.25 -0.35 0.40 -0.40 2.35 -0.35 14.15 l0.05 11.35 12.70 0 12.65 0 0.30 -3.60z"/>
 </g>
 <g fill="#ff9500">
  <path d="M689.95 469.75 c-0.95 -1.55 -3.80 -5.90 -6.30 -9.80 -2.55 -3.85 -4.65 -7.20 -4.65 -7.45 0 -0.20 -0.20 -0.50 -0.40 -0.60 -0.20 -0.05 -1.15 -1.40 -2.05 -2.90 -0.95 -1.50 -1.85 -2.85 -2 -3 -0.60 -0.45 -3.55 -5.05 -3.55 -5.55 0 -0.25 -0.20 -0.45 -0.45 -0.45 -0.25 0 -0.65 -0.45 -0.80 -1 -0.15 -0.55 -0.60 -1.30 -0.90 -1.60 -0.35 -0.35 -1.15 -1.65 -1.80 -2.90 -0.70 -1.25 -1.35 -2.35 -1.50 -2.50 -0.15 -0.15 -0.60 -0.75 -0.90 -1.35 -0.35 -0.65 -0.95 -1.65 -1.25 -2.25 -0.35 -0.65 -0.80 -1.25 -0.95 -1.40 -0.55 -0.40 -5.50 -8.60 -5.35 -8.80 0.25 -0.20 8.40 -1.20 10.20 -1.20 1.15 0 1.70 0.30 2.25 1.40 0.40 0.75 0.80 1.45 0.95 1.60 0.15 0.15 0.90 1.30 1.65 2.60 0.75 1.30 1.65 2.65 2 3 0.30 0.40 0.85 1.05 1.10 1.50 1.55 2.55 8.10 10.85 8.55 10.85 1.40 0.10 3.20 -10.55 3.20 -19 0 -6.05 0.10 -6.85 0.90 -7.10 0.45 -0.20 2.55 -0.90 4.60 -1.60 5.75 -1.90 5.35 -2.25 5.20 5.15 -0.15 7.30 -0.50 12.15 -1.20 17.60 -1.25 9.80 -1.55 12.70 -1.80 18.25 -0.35 7.95 -0.85 12.25 -1.60 13.60 -0.35 0.60 -0.60 2.55 -0.60 4.35 0 1.80 -0.20 3.30 -0.45 3.30 -0.25 0 -1.20 -1.25 -2.10 -2.75z"/>
  <path d="M610.75 470.65 c-0.65 -2.50 -1.30 -8.25 -1.75 -15.65 -0.20 -4 -0.55 -7.90 -0.75 -8.75 -0.65 -3.30 -1.25 -7.15 -1.50 -10 -0.15 -1.65 -0.50 -4.80 -0.75 -7 -0.30 -2.20 -0.50 -4.45 -0.55 -5 -0.05 -0.55 -0.35 -3.30 -0.75 -6.05 -1 -7.20 -0.95 -9.20 0.25 -9.20 1 0 6 1.90 6.75 2.60 0.30 0.20 0.90 0.40 1.40 0.40 0.50 0 0.90 0.25 0.90 0.50 0 0.30 0.35 0.50 0.75 0.50 0.70 0 0.80 0.45 1 4.50 0 0.70 0.30 2.95 0.65 5 0.35 2.05 0.85 5.35 1.15 7.25 0.30 1.95 0.75 4 1 4.65 0.25 0.65 0.45 2.05 0.45 3.10 0 1.10 0.20 2 0.45 2 0.55 0 2.05 -1.40 2.05 -1.90 0 -0.20 0.50 -0.95 1.15 -1.60 3.35 -3.85 11.10 -15 12.35 -17.80 0.40 -1.05 0.65 -1.10 5.85 -0.85 2.95 0.15 5.60 0.45 5.85 0.70 0.30 0.25 0.05 1.25 -0.70 2.55 -0.65 1.20 -1.40 2.60 -1.70 3.10 -0.30 0.55 -0.70 1.25 -0.95 1.50 -1.05 1.50 -2.95 4.50 -3.65 5.90 -0.45 0.85 -1 1.80 -1.30 2.10 -0.25 0.30 -0.85 1.15 -1.30 1.85 -0.45 0.75 -2.05 3.05 -3.45 5.15 -1.45 2.10 -2.65 4.05 -2.65 4.30 0 0.30 -0.15 0.50 -0.40 0.50 -0.20 0 -0.60 0.45 -0.85 0.95 -0.50 1.05 -3.75 5.90 -6.15 9.30 -0.75 1.10 -1.70 2.60 -2.10 3.40 -0.35 0.75 -0.85 1.35 -1.10 1.35 -0.20 0 -0.40 0.30 -0.40 0.65 0 0.35 -0.65 1.40 -1.50 2.35 -0.80 0.95 -1.45 2.05 -1.50 2.40 0 0.30 -0.15 0.60 -0.40 0.60 -0.20 0 -0.65 0.65 -1 1.40 -0.35 0.80 -1.15 1.75 -1.85 2.10 -0.70 0.35 -1.35 1.05 -1.55 1.60 -0.40 1.30 -1.05 1.10 -1.45 -0.45z"/>
  <path d="M539 434.15 c0.95 -3.35 2.15 -6.45 2.55 -6.85 0.25 -0.30 0.45 -0.95 0.45 -1.55 0 -0.60 0.20 -1.25 0.40 -1.50 0.25 -0.30 0.70 -1.50 1.05 -2.75 0.35 -1.25 0.85 -2.65 1.10 -3.10 0.25 -0.50 0.45 -1.10 0.45 -1.40 0 -0.30 0.40 -1.45 0.95 -2.65 0.50 -1.15 1.20 -2.90 1.55 -3.85 0.35 -0.95 0.80 -2.20 1 -2.75 0.20 -0.55 0.85 -2.25 1.40 -3.75 1.25 -3.40 5.45 -14.25 6.35 -16.25 0.35 -0.80 1.10 -2.55 1.70 -3.85 0.55 -1.30 1.05 -2.60 1.05 -2.80 0 -0.75 1.55 -3.55 2.15 -3.95 0.30 -0.15 0.65 0 0.75 0.40 0.15 0.40 1.80 2.30 3.70 4.25 1.85 1.95 3.40 3.80 3.40 4.15 0 0.30 -0.65 1.85 -1.40 3.45 -1.70 3.35 -4.25 9.95 -5.10 13.10 -0.35 1.25 -0.80 2.75 -1.05 3.40 -0.45 1.15 -0.65 4.10 -0.25 4.10 0.15 0 2.25 -1.05 6.55 -3.35 0.55 -0.30 2.15 -1.05 3.50 -1.70 1.40 -0.65 2.60 -1.30 2.75 -1.45 0.60 -0.60 2.55 -1.50 3.25 -1.50 0.40 0 0.75 -0.20 0.75 -0.45 0 -0.25 0.40 -0.60 0.95 -0.80 0.50 -0.15 1.55 -0.85 2.35 -1.50 1.85 -1.60 2.10 -1.55 5.20 0.25 1.40 0.85 2.75 1.50 3 1.50 0.30 0 0.50 0.25 0.50 0.50 0 0.30 0.30 0.50 0.65 0.50 0.35 0 1.15 0.45 1.80 1.05 1.30 1.20 0.90 2 -1.65 3.30 -0.85 0.45 -1.65 0.95 -1.80 1.10 -0.40 0.50 -3.15 2.10 -4.10 2.40 -0.50 0.15 -0.90 0.45 -0.90 0.70 0 0.25 -0.20 0.45 -0.50 0.45 -0.45 0 -7.20 3.85 -11 6.25 -0.95 0.65 -2.35 1.45 -3.10 1.80 -2.25 1.20 -10.95 6.30 -15.15 8.90 -2.20 1.40 -5.55 3.35 -7.45 4.40 -1.90 1.05 -3.90 2.20 -4.50 2.50 -0.60 0.35 -1.65 0.65 -2.40 0.65 -1.20 0 -1.30 -0.10 -0.90 -1.35z"/>
  <path d="M756 431.50 c-2.35 -1.40 -4.60 -2.75 -5 -3 -0.40 -0.25 -1.55 -0.90 -2.50 -1.40 -1.70 -0.95 -14.75 -8.45 -19.90 -11.55 -1.45 -0.85 -2.75 -1.55 -2.90 -1.55 -0.15 0 -0.90 -0.40 -1.60 -0.90 -1.40 -1 -4.90 -2.95 -11.10 -6.25 -3.70 -1.95 -5.40 -3.15 -4.95 -3.50 1.15 -1 8.05 -5.35 8.45 -5.35 0.25 0 0.50 -0.20 0.50 -0.50 0 -0.80 2 -0.55 3.40 0.45 2.95 2.05 8.15 4.95 13.35 7.50 7.75 3.75 7.70 3.75 8.10 3.40 0.30 -0.35 -0.70 -4.05 -1.35 -5.10 -0.20 -0.25 -0.60 -1.50 -1 -2.75 -0.35 -1.25 -1.05 -3.20 -1.55 -4.35 -0.55 -1.20 -0.95 -2.35 -0.95 -2.60 0 -0.25 -1 -2.50 -2.25 -4.95 -1.25 -2.45 -2.25 -4.55 -2.25 -4.70 0 -0.15 0.80 -1.15 1.80 -2.20 1 -1.10 2.45 -2.90 3.25 -4 1.20 -1.75 2.85 -3.10 3.20 -2.60 0.05 0.10 0.50 1.05 1 2.15 0.50 1.10 1.40 3.10 2.05 4.45 0.65 1.40 1.20 2.65 1.20 2.90 0 0.20 0.65 1.70 1.45 3.35 0.75 1.60 1.70 3.95 2.10 5.25 0.35 1.25 0.85 2.30 1.05 2.30 0.20 0 0.40 0.35 0.40 0.75 0 0.70 1.40 4.25 2.55 6.35 0.25 0.50 0.45 1.10 0.45 1.40 0 0.30 0.45 1.60 1.05 2.90 0.60 1.30 1.25 2.80 1.45 3.35 0.20 0.55 0.85 2.05 1.45 3.35 0.60 1.30 1.05 2.55 1.05 2.80 0 0.20 0.80 2.40 1.80 4.90 2.50 6.10 4.20 10.80 4.20 11.55 0 0.40 -0.70 0.65 -1.85 0.65 -1.35 0 -3.10 -0.70 -6.15 -2.50z"/>
  <path d="M641.90 408.50 c-0.35 -0.25 -2.80 -0.65 -5.40 -0.95 -5.90 -0.75 -10 -1.50 -11.15 -2.10 -0.50 -0.25 -1.10 -0.35 -1.35 -0.20 -0.45 0.25 -10.50 -2.85 -12.10 -3.75 -0.50 -0.30 -1.20 -0.50 -1.60 -0.50 -0.70 0 -12.85 -5.90 -13.30 -6.45 -0.15 -0.15 -1.25 -0.85 -2.50 -1.50 -2.10 -1.15 -4.70 -2.90 -9.20 -6.15 -1.65 -1.20 -8 -6.70 -10.25 -8.90 -1.50 -1.45 -7.80 -8.60 -8.50 -9.70 -0.45 -0.55 -1.20 -1.50 -1.70 -2.05 -3.05 -3.30 -11.85 -18.20 -11.85 -20.15 0 -0.35 -0.20 -1 -0.45 -1.50 -2.30 -4.55 -5.65 -15.85 -6.55 -22.35 -1.55 -10.65 -1.95 -24.75 -0.90 -31 0.25 -1.65 0.60 -4.40 0.75 -6.10 0.10 -1.75 0.40 -3.15 0.65 -3.15 0.20 0 0.50 -0.75 0.65 -1.60 0.15 -0.90 0.55 -2.65 0.85 -3.90 0.30 -1.25 0.70 -3 0.85 -3.90 0.15 -0.90 0.45 -1.75 0.70 -1.90 0.25 -0.15 0.45 -0.60 0.45 -0.95 0 -0.40 0.70 -2.20 1.50 -4 0.85 -1.80 1.50 -3.45 1.50 -3.65 0 -0.45 2.55 -5.45 5.35 -10.60 1.95 -3.50 7.55 -12 8.60 -13 0.45 -0.40 1.50 -1.65 2.30 -2.75 1.85 -2.50 5.75 -6.45 9 -9 1.35 -1.10 2.80 -2.30 3.20 -2.65 0.40 -0.40 1.55 -1.25 2.65 -1.90 1.05 -0.65 1.90 -1.45 1.90 -1.70 0 -0.30 0.30 -0.50 0.65 -0.50 0.35 0 1.10 -0.40 1.65 -0.90 2.20 -2 5.20 -3.85 12.70 -7.60 4.65 -2.35 9.15 -4.35 11.25 -5 1.10 -0.30 2.45 -0.75 3 -1 1.15 -0.45 7.10 -2.20 10 -2.90 1.10 -0.30 2.95 -0.75 4.05 -1.05 1.15 -0.30 2.85 -0.55 3.80 -0.55 0.95 0 1.90 -0.20 2.20 -0.45 1.45 -1.45 19.45 -1.55 28.95 -0.15 6 0.90 16 2.85 16 3.10 0 0.05 0.80 0.20 1.75 0.35 0.95 0.10 1.95 0.45 2.20 0.70 0.30 0.25 0.90 0.45 1.40 0.45 0.50 0 1.30 0.20 1.80 0.45 0.45 0.25 1.40 0.65 2.10 0.95 3.80 1.55 5.75 2.45 10.75 4.95 3.05 1.55 6.45 3.40 7.60 4.20 1.15 0.80 2.30 1.45 2.60 1.45 0.30 0 0.55 0.20 0.55 0.45 0 0.25 0.70 0.70 1.50 1.05 0.80 0.35 1.50 0.75 1.50 0.95 0 0.20 0.70 0.75 1.55 1.25 2.50 1.50 16.05 15.25 19.50 19.80 1.75 2.35 3.35 4.35 3.60 4.40 0.20 0.10 0.35 0.40 0.35 0.70 0 0.25 0.45 1.10 1 1.90 1.80 2.50 5.50 9.60 8.95 17.05 0.60 1.25 1.05 2.65 1.05 3.10 0 0.50 0.20 1.25 0.45 1.75 1.05 2 2.55 7.60 3.60 13.35 1.40 7.60 1.55 9.60 1.60 18.75 0.05 10.15 -0.35 14.20 -2.20 23 -0.60 2.90 -1.20 6.05 -1.30 7 -0.10 0.95 -0.45 2.30 -0.75 3 -0.85 1.95 -1.20 2.90 -3 7.75 -1.55 4.25 -7.05 14.90 -9.35 18.15 -0.55 0.85 -1.05 1.65 -1.05 1.80 0 0.35 -2 3.35 -2.55 3.80 -0.15 0.15 -1 1.30 -1.90 2.65 -3.45 5.05 -15.65 16.35 -23.15 21.40 -1.75 1.15 -3.25 2.25 -3.40 2.45 -0.30 0.35 -8.95 5.50 -9.25 5.50 -0.15 0 -1.35 0.50 -2.65 1.05 -4.95 2.25 -5.65 2.50 -8.70 3.50 -1.70 0.50 -3.80 1.10 -4.60 1.20 -0.85 0.15 -2.10 0.45 -2.80 0.70 -2 0.70 -5.10 1.50 -7 1.75 -0.95 0.15 -2.75 0.50 -4 0.80 -1.25 0.30 -3.80 0.65 -5.75 0.80 -1.90 0.15 -3.85 0.40 -4.25 0.55 -1.10 0.45 -15.30 0.55 -16.10 0.15z m21.10 -23.50 c1.80 -0.25 4.55 -0.85 6.15 -1.25 1.60 -0.40 3.35 -0.75 3.90 -0.75 0.50 0 0.95 -0.20 0.95 -0.50 0 -0.25 0.55 -0.50 1.20 -0.50 4.20 0 15.65 -5.80 24.65 -12.45 1.65 -1.25 3.70 -2.75 4.50 -3.30 1.80 -1.25 3.75 -3.20 6.90 -6.95 1.40 -1.60 3.20 -3.65 4 -4.55 1.65 -1.80 1.75 -2 4.15 -5.35 0.85 -1.25 1.60 -2.55 1.60 -2.80 0 -0.30 0.20 -0.60 0.40 -0.70 0.40 -0.15 5.30 -9.85 6.20 -12.25 0.20 -0.65 0.60 -1.65 0.90 -2.25 0.60 -1.50 3.30 -11.15 3.70 -13.40 1 -5.20 1.35 -11.65 1.15 -19.20 -0.15 -4.65 -0.50 -8.60 -0.75 -8.75 -0.25 -0.15 -0.60 -1.20 -0.75 -2.30 -0.35 -2.85 -1.80 -8.85 -2.35 -9.85 -0.30 -0.50 -0.50 -1.25 -0.50 -1.65 0 -0.75 -2.95 -7.80 -3.50 -8.25 -0.15 -0.15 -0.60 -0.90 -1 -1.75 -0.85 -1.75 -7.25 -11.60 -8.15 -12.45 -0.35 -0.35 -1.40 -1.65 -2.35 -2.85 -1.65 -2.10 -5.10 -5.60 -8.40 -8.55 -7.10 -6.40 -21.30 -14.50 -29.60 -16.85 -1.25 -0.35 -2.70 -0.85 -3.25 -1.05 -0.55 -0.25 -1.65 -0.55 -2.50 -0.70 -0.80 -0.15 -3.20 -0.55 -5.25 -0.95 -3.05 -0.60 -15.75 -1.55 -19.75 -1.50 -3.30 0.05 -12.10 1.50 -13.35 2.20 -0.50 0.25 -1.35 0.45 -1.85 0.45 -0.55 0 -1.65 0.25 -2.40 0.55 -2.25 0.90 -3.30 1.30 -5.15 1.95 -4.80 1.70 -13.65 6.10 -17.10 8.55 -0.70 0.55 -1.55 0.95 -1.85 0.95 -0.30 0 -0.55 0.15 -0.55 0.40 0 0.20 -0.85 0.90 -1.90 1.60 -2.45 1.65 -12.70 11.30 -15.60 14.75 -0.70 0.85 -2.30 2.95 -3.50 4.75 -1.25 1.80 -2.35 3.35 -2.50 3.50 -0.25 0.25 -0.70 1 -2.60 4.45 -0.55 1 -1.20 2 -1.45 2.25 -0.25 0.30 -0.45 0.90 -0.45 1.35 0 0.50 -0.20 0.95 -0.50 1.05 -0.75 0.25 -3.10 6.75 -5.50 15.40 -0.60 2.05 -1.30 4.55 -1.60 5.60 -0.35 1.20 -0.45 6.10 -0.25 14.25 0.30 13.10 0.90 17.05 3.35 23.40 0.20 0.55 0.65 1.90 1 3 1.90 6.15 9.15 18.55 14 23.95 9.25 10.35 16.50 16.10 26.95 21.40 3.15 1.60 6.10 2.90 6.60 2.90 0.45 0 0.95 0.20 1.05 0.40 0.10 0.20 2.95 1.15 6.40 2 3.45 0.90 7.05 1.85 8.05 2.15 1 0.25 2.70 0.45 3.75 0.50 1.10 0 2.40 0.25 2.95 0.50 1.25 0.55 17.45 0.20 21.75 -0.55z"/>
  <path d="M490 368.95 c0 -0.15 3.05 -3.25 6.75 -6.75 3.70 -3.55 6.85 -6.80 7 -7.20 0.15 -0.40 1.05 -1.30 2.05 -1.95 1 -0.70 3.30 -2.70 5.15 -4.45 1.80 -1.75 4.65 -4.40 6.30 -5.85 1.65 -1.50 4.90 -4.50 7.25 -6.70 2.35 -2.20 4.55 -4.05 4.90 -4.05 0.30 0 0.60 -0.15 0.60 -0.35 0 -0.65 4.70 -4.50 5.90 -4.85 0.85 -0.30 1.10 -0.15 1.10 0.50 0 0.50 0.20 1.55 0.50 2.40 0.25 0.85 0.85 3 1.25 4.80 l0.80 3.25 -1.90 1.50 c-1 0.85 -5.10 4.70 -9.05 8.65 -4 3.90 -7.40 7.10 -7.65 7.10 -0.25 0 -0.45 0.20 -0.45 0.50 0 0.60 16.85 0.60 18 -0.05 0.45 -0.20 2.35 -0.45 4.20 -0.55 3.25 -0.15 3.45 -0.05 4.65 1.35 0.65 0.85 1.70 2.40 2.30 3.50 2.70 4.90 2.55 5.05 -6.65 6.10 -4 0.40 -8.55 0.75 -10.10 0.70 -1.55 0 -3.40 0.15 -4.05 0.40 -0.70 0.30 -5.85 0.65 -11.45 0.85 -5.55 0.15 -10.35 0.50 -10.65 0.70 -0.65 0.50 -16.75 0.95 -16.75 0.45z"/>
  <path d="M799 367.90 c-1.50 -0.20 -7.40 -0.30 -13.15 -0.20 -5.75 0.10 -10.50 0 -10.65 -0.25 -0.15 -0.25 -2.65 -0.45 -5.60 -0.45 -2.95 0 -8.50 -0.35 -12.30 -0.75 -3.80 -0.40 -7.55 -0.55 -8.30 -0.40 -2.05 0.40 -2.35 -0.70 -0.65 -2.50 0.80 -0.90 1.95 -2.60 2.60 -3.85 2.30 -4.40 2.70 -4.60 7.55 -4.25 9.05 0.65 22 0.80 22 0.25 0 -0.65 -11.90 -12.55 -15.50 -15.50 -1.50 -1.25 -2.90 -2.45 -3.10 -2.70 -0.40 -0.60 0.05 -3.35 0.65 -4 0.25 -0.30 0.45 -0.90 0.45 -1.40 0 -1.95 1.15 -5.90 1.70 -5.90 0.60 0 3.10 2 8.55 6.75 1.40 1.20 3.20 2.70 4 3.30 0.85 0.65 1.75 1.45 2 1.75 0.30 0.35 1.65 1.55 3 2.70 1.40 1.15 4.55 4.05 7 6.45 2.50 2.35 6.75 6.35 9.50 8.80 2.75 2.45 6.55 6 8.50 7.85 1.90 1.85 3.65 3.40 3.85 3.40 0.20 0 0.40 0.30 0.40 0.70 0 0.60 -1 0.70 -4.85 0.65 -2.70 0 -6.15 -0.20 -7.65 -0.45z"/>
  <path d="M524 309.10 c-8.85 -4.45 -19.70 -10.10 -23 -12 -1.25 -0.70 -5.50 -2.95 -9.50 -5 -4 -2.05 -7.60 -4 -8 -4.35 -0.40 -0.30 -1.15 -0.75 -1.60 -0.90 -1.35 -0.45 -1.10 -1.55 0.50 -2.15 2.05 -0.85 18.30 -4.70 19.75 -4.70 0.70 0 1.45 -0.20 1.60 -0.50 0.15 -0.25 0.85 -0.50 1.50 -0.50 0.65 0 1.30 -0.20 1.45 -0.45 0.15 -0.20 1.25 -0.55 2.40 -0.70 1.20 -0.20 3.05 -0.55 4.15 -0.80 3.60 -0.90 11.40 -2.55 16.50 -3.60 2.75 -0.55 5.60 -1.10 6.40 -1.25 2.10 -0.45 2.80 0.40 2.30 2.95 -0.25 1.15 -0.75 3.55 -1.10 5.35 l-0.65 3.25 -3.05 0.35 c-1.65 0.15 -3.80 0.65 -4.80 1.05 -0.95 0.45 -1.90 0.65 -2 0.50 -0.25 -0.20 -2.60 0.30 -12.55 2.75 -0.80 0.20 -1.55 0.60 -1.65 0.85 -0.10 0.45 4.10 3.45 7.10 5.05 0.55 0.30 1.85 1.05 2.90 1.60 1.05 0.60 2.20 1.10 2.60 1.10 0.40 0 0.75 0.25 0.75 0.50 0 0.30 0.30 0.50 0.70 0.50 0.85 0 5 2.10 5.20 2.65 0.10 0.20 0.60 0.35 1.10 0.35 1.85 0 2.15 1.20 1.70 6.60 -0.45 5 -0.50 5.15 -1.70 5.25 -0.75 0.10 -4.30 -1.40 -9 -3.75z"/>
  <path d="M765.80 307.65 c0.30 -6.30 0.40 -6.65 1.50 -6.65 0.50 0 1.80 -0.40 2.90 -0.85 3.20 -1.40 13.15 -6.55 15.10 -7.90 0.95 -0.65 2 -1.25 2.35 -1.40 1.30 -0.45 -0.65 -1.65 -3.75 -2.30 -1.75 -0.35 -3.60 -0.80 -4.15 -1.05 -0.55 -0.25 -1.90 -0.55 -3 -0.75 -2.55 -0.45 -5.10 -1 -9.65 -2.10 -4.20 -1.05 -4 -0.75 -4.20 -7.40 l-0.15 -4.50 2.50 0.20 c1.40 0.05 2.75 0.35 3 0.55 0.30 0.20 1.40 0.50 2.50 0.65 1.10 0.15 3.60 0.60 5.50 1.05 1.95 0.40 4.75 1 6.25 1.35 4.05 0.80 6.05 1.25 13.10 2.95 3.50 0.85 8.90 2.05 12 2.75 9.90 2.10 10.40 2.30 10.40 3.55 0 0.40 0.35 0.70 0.75 0.70 1.70 0 0.50 1.05 -3.35 3.05 -2.30 1.15 -5.25 2.70 -6.65 3.45 -4.80 2.65 -12.05 6.40 -18.75 9.70 -3.70 1.85 -7.20 3.60 -7.75 3.95 -6 3.40 -12.75 6.35 -14.60 6.35 l-2.10 0 0.25 -5.35z"/>
  <path d="M541.65 255.60 c-0.90 -1.30 -2.95 -4.25 -4.60 -6.55 -1.65 -2.35 -3.25 -4.65 -3.65 -5.20 -0.35 -0.55 -1.25 -1.85 -2 -2.90 -0.80 -1.05 -1.40 -2.10 -1.40 -2.30 0 -0.20 -0.40 -0.80 -0.95 -1.35 -0.50 -0.60 -2.55 -3.50 -4.60 -6.55 -2.05 -3 -4.10 -5.85 -4.55 -6.30 -0.50 -0.45 -0.90 -1.05 -0.90 -1.30 0 -0.25 -0.40 -0.90 -0.85 -1.45 -0.50 -0.55 -1.10 -1.35 -1.40 -1.80 -1.65 -2.60 -5.70 -8.20 -6.85 -9.45 -1.80 -2 -1.40 -2.95 1 -2.60 1 0.15 2.05 0.50 2.30 0.70 0.30 0.25 1.35 0.45 2.35 0.45 1.05 0 2 0.20 2.15 0.45 0.15 0.20 1.35 0.55 2.65 0.75 3.15 0.45 6.45 1.10 8.90 1.80 1.10 0.30 3.80 1 6 1.50 2.20 0.50 4.80 1.15 5.75 1.45 1.70 0.45 10.05 2.70 17.25 4.55 6.45 1.70 9.50 2.85 9.65 3.65 0.20 1.05 -0.60 2.20 -4.10 5.85 -3.20 3.30 -2.50 3.30 -9.55 0.45 -1 -0.40 -3.70 -1 -9 -1.95 -1.65 -0.30 -3.70 -0.75 -4.55 -1.05 -2.25 -0.70 -4.85 -0.60 -4.50 0.20 0.15 0.30 0.45 1 0.60 1.50 0.20 0.45 0.50 0.85 0.75 0.85 0.25 0 0.45 0.20 0.45 0.50 0 0.45 3.45 6.15 4.50 7.35 0.25 0.35 0.50 0.75 0.50 0.90 0 0.55 5.45 8.55 6.25 9.25 0.60 0.50 0.65 0.75 0.15 1.40 -0.35 0.40 -1.65 2.65 -2.90 5 -1.25 2.35 -2.45 4.35 -2.75 4.45 -0.25 0.05 -1.20 -0.95 -2.10 -2.25z"/>
  <path d="M755 256.50 c0 -0.30 -0.90 -2.45 -2 -4.80 -1.10 -2.35 -2 -4.45 -2 -4.65 0 -0.25 0.50 -0.80 1.05 -1.35 0.60 -0.50 1.75 -1.95 2.60 -3.20 0.85 -1.25 1.70 -2.35 1.90 -2.50 0.15 -0.15 1.90 -2.70 3.90 -5.75 1.95 -3 3.80 -5.75 4.05 -6.10 0.30 -0.35 0.50 -0.95 0.50 -1.35 0 -0.90 -1.40 -0.75 -6.75 0.85 -1.90 0.55 -4.40 1.15 -5.50 1.40 -1.10 0.20 -4.15 0.95 -6.75 1.65 -5.40 1.45 -6.35 1.55 -7.15 0.65 -4.85 -5.20 -6.85 -7.45 -6.85 -7.80 0 -0.55 4.80 -2.10 9.25 -3.05 1.65 -0.35 3.90 -0.90 5 -1.25 1.10 -0.35 4.60 -1.20 7.75 -2 3.15 -0.75 6.10 -1.50 6.50 -1.65 0.75 -0.25 7.05 -1.80 10.75 -2.60 1.10 -0.20 3.70 -0.85 5.75 -1.40 2.05 -0.55 5.20 -1.40 7 -1.85 1.80 -0.40 4.05 -1 5.05 -1.25 2.50 -0.70 3.45 -0.60 3.75 0.20 0.25 0.65 -3.40 5.95 -10.60 15.45 -1.20 1.55 -2.20 3.05 -2.20 3.30 0 0.25 -0.20 0.55 -0.40 0.65 -0.50 0.20 -5.10 5.90 -5.10 6.35 0 0.15 -0.50 0.85 -1.15 1.55 -0.65 0.70 -2.15 2.70 -3.35 4.50 -1.20 1.80 -2.70 3.80 -3.35 4.50 -0.65 0.70 -1.15 1.40 -1.15 1.60 0 0.15 -0.30 0.65 -0.65 1 -0.35 0.35 -1.20 1.45 -1.85 2.40 -2.75 4 -5.70 7 -6.85 7 -0.65 0 -1.15 -0.25 -1.15 -0.50z"/>
  <path d="M581.40 211.15 c-0.60 -0.15 -0.95 -0.95 -1.15 -2.55 -0.15 -1.30 -0.50 -2.75 -0.80 -3.20 -0.25 -0.50 -0.45 -1.60 -0.45 -2.50 0 -0.90 -0.45 -4.10 -1 -7.10 -0.55 -3 -1 -6.25 -1 -7.15 0 -0.95 -0.20 -2.10 -0.45 -2.55 -0.25 -0.45 -0.55 -2.55 -0.70 -4.60 -0.15 -2.05 -0.65 -6.10 -1.10 -9 -0.70 -4.80 -0.90 -7.10 -1.60 -17.70 l-0.25 -3.45 1.55 1.10 c0.85 0.60 1.55 1.30 1.55 1.50 0 0.25 0.90 1 2 1.75 1.80 1.20 6.30 5.25 12.35 11.20 1.20 1.15 2.35 2.10 2.60 2.10 0.25 0 1.65 1.20 3.15 2.65 1.50 1.40 3.95 3.60 5.40 4.85 1.50 1.25 4.65 4.15 7.05 6.50 2.40 2.35 5.50 5.25 6.90 6.45 2.25 1.85 2.60 2.35 2.45 3.70 -0.15 1.35 -0.45 1.60 -2.70 2.40 -1.45 0.45 -3.40 1.25 -4.40 1.70 -1.25 0.60 -2.15 0.75 -2.80 0.45 -0.55 -0.25 -3.50 -2.90 -6.65 -5.95 -3.10 -3 -6.75 -6.45 -8.10 -7.65 -1.40 -1.20 -3 -2.65 -3.60 -3.20 -1 -0.95 -1.15 -1 -1.40 -0.30 -0.20 0.45 -0.20 2.60 -0.05 4.75 0.20 2.15 0.40 5.50 0.50 7.50 0.10 2 0.40 4.25 0.70 5 0.30 0.75 0.65 2.40 0.85 3.65 0.15 1.25 0.40 2.75 0.55 3.35 0.25 0.90 -0.35 1.50 -3.95 3.85 -2.30 1.55 -4.30 2.75 -4.40 2.75 -0.10 -0.05 -0.60 -0.15 -1.05 -0.30z"/>
  <path d="M716.30 209.25 c-3.90 -2.70 -3.90 -2.65 -3.25 -5.75 0.30 -1.50 0.60 -4.20 0.75 -6 0.10 -1.80 0.45 -4.05 0.70 -5 0.25 -0.95 0.55 -3.45 0.70 -5.50 0.10 -2.05 0.40 -4.35 0.55 -5.10 0.40 -1.50 -0.20 -1.85 -1.35 -0.75 -0.35 0.35 -1.70 1.35 -2.95 2.25 -1.30 0.85 -2.85 2.20 -3.50 2.95 -0.65 0.75 -1.85 1.90 -2.70 2.55 -2.65 2 -8.25 7.75 -8.25 8.45 0 0.35 -0.35 0.65 -0.75 0.65 -0.40 0 -0.75 -0.20 -0.75 -0.50 0 -0.25 -0.90 -0.50 -2 -0.50 -1.05 0 -2.45 -0.20 -3.10 -0.45 -0.65 -0.25 -2.10 -0.75 -3.25 -1.10 -1.30 -0.35 -2.15 -0.90 -2.15 -1.35 0 -1.55 4.40 -6.15 13.50 -14.20 0.95 -0.80 3.65 -3.25 6 -5.40 2.35 -2.15 4.95 -4.45 5.75 -5.10 0.85 -0.60 1.90 -1.65 2.40 -2.25 0.50 -0.65 1.15 -1.15 1.45 -1.15 0.25 0 1.30 -0.85 2.30 -1.85 1 -1.05 4 -3.80 6.60 -6.15 2.60 -2.35 5.35 -4.85 6.05 -5.60 1.65 -1.70 2.55 -1.80 2.20 -0.30 -0.15 0.65 -0.35 2.50 -0.50 4.15 -0.15 1.65 -0.40 4 -0.50 5.25 -0.10 1.25 -0.30 2.95 -0.45 3.75 -0.10 0.85 -0.45 3.40 -0.70 5.75 -0.30 2.35 -0.75 4.80 -1 5.50 -0.25 0.70 -0.60 3.05 -0.80 5.25 -0.45 4.70 -0.45 4.90 -1.55 12 -0.50 3.05 -1.05 5.95 -1.25 6.50 -0.20 0.55 -0.40 1.80 -0.45 2.75 -0.05 0.95 -0.25 2.20 -0.50 2.75 -0.25 0.55 -0.65 1.90 -0.85 3 -0.40 1.85 -0.60 2 -2.20 2.10 -1.30 0.10 -2.40 -0.30 -4.20 -1.60z"/>
  <path d="M668.25 191.75 c-0.25 -0.10 -2 -0.30 -3.85 -0.50 -3.15 -0.30 -3.40 -0.40 -3.40 -1.50 0 -0.65 -0.20 -1.35 -0.50 -1.50 -0.25 -0.15 -0.50 -0.95 -0.50 -1.70 0 -1.30 -0.55 -3.50 -1.50 -5.80 -0.20 -0.55 -0.65 -2 -1 -3.25 -0.65 -2.25 -4.05 -9.80 -5.40 -11.90 l-0.75 -1.15 -0.65 1.40 c-0.35 0.75 -1.35 3.55 -2.20 6.15 -0.85 2.60 -1.75 5.20 -1.95 5.75 -0.25 0.55 -0.70 1.80 -1.05 2.75 -0.35 0.95 -0.80 2.20 -1 2.75 -0.20 0.55 -0.65 2 -1 3.25 -1.25 4.70 -1.25 4.65 -4.15 4.30 -1.45 -0.15 -3.30 -0.10 -4.15 0.10 -0.80 0.20 -2.05 0.30 -2.80 0.20 -1.20 -0.15 -1.40 -0.40 -1.40 -1.80 0 -0.85 0.20 -1.80 0.40 -2.05 0.25 -0.30 0.95 -2.20 1.60 -4.25 0.65 -2.05 1.35 -3.95 1.60 -4.25 0.20 -0.25 0.40 -0.85 0.40 -1.35 0 -0.50 0.20 -1.30 0.45 -1.80 0.25 -0.45 1.20 -3.20 2.10 -6.10 0.90 -2.90 2.05 -6.05 2.50 -7 0.45 -0.95 1.10 -2.80 1.50 -4.10 0.35 -1.35 0.80 -2.40 1 -2.40 0.15 0 0.60 -1.30 0.95 -2.85 0.40 -1.60 0.80 -3 0.95 -3.15 0.20 -0.15 0.60 -1.15 0.95 -2.25 0.40 -1.10 1.10 -2.90 1.55 -4 0.50 -1.10 1.65 -4.40 2.60 -7.35 1.60 -5.15 2.50 -6.45 3.10 -4.50 0.15 0.45 1.10 3.10 2.10 5.85 1 2.75 2.35 6.60 3 8.50 1.95 5.80 2.50 7.40 4.20 11.70 0.60 1.45 1.05 3 1.05 3.35 0 0.40 0.20 1.10 0.45 1.60 0.75 1.45 1.40 3.25 2.10 5.60 0.35 1.25 0.75 2.50 0.95 2.75 0.15 0.30 0.85 2.20 1.45 4.25 0.65 2.05 1.35 4.20 1.55 4.75 1.05 2.80 3 10.80 2.75 11.25 -0.30 0.45 -2.90 0.65 -4 0.25z"/>
 </g>
 <g fill="#006df7">
  <path d="M232 826 c-2.95 -1.50 -3.90 -2.95 -4.55 -6.80 -0.55 -3.10 -0.50 -3.80 0.20 -5.25 1.25 -2.70 4.30 -5.05 7.40 -5.65 0.65 -0.15 2.40 -0.45 3.90 -0.75 1.45 -0.30 6.70 -0.55 11.60 -0.55 4.90 0 9 -0.20 9.15 -0.40 0.15 -0.20 0.25 -85.35 0.30 -189.15 0.05 -103.80 0.20 -189.45 0.35 -190.40 0.35 -2.05 3.85 -5.70 6.80 -7 4.50 -2.05 4.85 -2.05 32.15 -2.05 l26.65 0 0.25 -24.90 c0.10 -13.65 0.30 -26.65 0.50 -28.80 0.50 -6.80 2.35 -10.45 6.30 -12.25 1.60 -0.70 8.85 -0.80 74.15 -0.95 55.30 -0.10 72.35 0 72.35 0.45 0 0.35 -2.35 3 -5.25 5.95 -3.30 3.40 -5.30 5.90 -5.50 6.80 -0.20 0.80 -0.70 2.70 -1.20 4.20 -0.75 2.45 -1 2.75 -2.55 3.10 -0.95 0.20 -2.40 0.15 -3.25 -0.10 -0.80 -0.25 -21.20 -0.55 -45.25 -0.70 -24.05 -0.15 -49.10 -0.45 -55.65 -0.60 -10.95 -0.30 -11.95 -0.25 -12.85 0.55 -0.95 0.90 -1 1.65 -1 23.85 0 18.15 -0.15 22.95 -0.65 22.75 -0.45 -0.15 -0.60 -3.90 -0.50 -17 0.10 -10.65 -0.05 -16.85 -0.35 -16.85 -0.30 0 -0.50 -0.35 -0.50 -0.75 0 -0.40 0.20 -0.75 0.40 -0.75 0.75 0 0.70 -5.10 0 -5.60 -0.55 -0.30 -0.50 -0.50 0.05 -0.85 0.50 -0.35 0.60 -1.05 0.40 -2.65 -0.35 -2.60 0.05 -3.40 1.70 -3.40 0.65 0 6.10 0 12.10 0.05 7.70 0 10.85 -0.15 10.85 -0.55 0 -0.90 57.55 -0.25 65.55 0.80 5.05 0.65 7.55 0.70 12.75 0.30 4.30 -0.30 6.55 -0.30 6.80 0.05 0.20 0.35 1.30 0.30 3.30 -0.10 1.65 -0.30 3.20 -0.55 3.45 -0.50 0.20 0.05 1.15 0.05 2.10 0 1.25 -0.05 1.60 -0.25 1.35 -0.80 -0.15 -0.40 -0.05 -0.75 0.25 -0.75 0.30 0 0.35 -0.20 0.20 -0.50 -0.15 -0.25 -0.05 -0.50 0.25 -0.50 0.35 0 0.45 -0.35 0.30 -0.80 -0.20 -0.55 0.05 -1.10 0.75 -1.60 0.75 -0.50 0.95 -1.05 0.75 -1.90 -0.25 -0.85 -0.05 -1.30 0.70 -1.70 0.55 -0.30 0.90 -0.75 0.75 -1.05 -0.20 -0.25 -0.05 -0.45 0.30 -0.45 0.35 0 0.50 -0.15 0.35 -0.30 -0.45 -0.40 3.80 -4.20 4.70 -4.20 0.80 0 3.20 -2.35 2.80 -2.75 -0.15 -0.15 -31.85 -0.30 -70.50 -0.30 -52.70 0 -70.85 0.15 -72.70 0.60 -2.75 0.65 -4.45 1.95 -4.90 3.75 -0.20 0.65 -0.50 1.20 -0.75 1.20 -0.65 0 -1.20 2.70 -1.30 6.25 -0.05 1.65 -0.35 8.05 -0.65 14.25 -0.35 6.20 -0.60 17.65 -0.55 25.45 0 9.30 -0.15 14.35 -0.50 14.70 -0.35 0.35 -9.25 0.55 -26.95 0.60 -26.10 0.10 -26.45 0.15 -29.90 1.25 -3.50 1.20 -6.70 3.80 -7.70 6.35 -0.25 0.60 -0.45 83.35 -0.45 188.25 -0.05 164.65 -0.20 191.75 -1.10 192.60 -0.10 0.10 -5.05 0.35 -10.95 0.55 -5.90 0.15 -10.95 0.50 -11.25 0.75 -0.30 0.25 -1.70 0.70 -3.05 1 -2.60 0.55 -6.60 3.50 -6 4.40 0.15 0.30 0.10 0.65 -0.20 0.85 -0.65 0.40 -0.65 3.60 0.05 4.05 0.30 0.15 0.45 0.75 0.30 1.25 -0.15 0.50 0.25 1.50 0.95 2.30 0.65 0.75 1.20 1.70 1.20 2.05 0 0.30 0.55 0.60 1.20 0.60 0.70 0 1.40 0.25 1.55 0.50 0.45 0.75 29.40 0.65 30.15 -0.10 0.45 -0.45 0.90 -0.45 1.80 0 0.70 0.30 1.30 0.40 1.40 0.15 0.10 -0.20 5.65 -0.20 12.40 0.05 17 0.55 158.50 0.75 158.50 0.20 0 -0.20 0.60 -0.25 1.30 -0.10 0.70 0.20 50.45 0.35 110.60 0.30 80.55 0 109.40 -0.15 109.65 -0.60 0.20 -0.30 0.80 -0.40 1.40 -0.25 0.60 0.15 1.05 0.05 1.05 -0.25 0 -0.30 0.35 -0.40 0.75 -0.20 0.40 0.15 0.75 0.05 0.75 -0.15 0 -0.25 0.70 -0.70 1.50 -1 0.80 -0.25 1.50 -0.85 1.50 -1.30 0 -0.45 0.30 -0.90 0.65 -1 0.30 -0.15 0.65 -0.90 0.70 -1.65 0.05 -0.75 0.15 -1.70 0.20 -2.10 0.35 -2.40 -0.20 -3.90 -1.90 -5.80 -1.75 -1.90 -2.20 -2.10 -6.40 -2.90 -2.95 -0.50 -7.40 -0.80 -13 -0.85 -4.65 0 -8.95 -0.20 -9.50 -0.45 -1.45 -0.60 15.10 -0.60 20 0 5.90 0.75 8.70 1.90 10.55 4.35 2.05 2.70 2.50 5.25 1.45 8.45 -1.05 3.10 -2.85 5 -5.15 5.50 -1.05 0.20 -2.20 0.50 -2.60 0.65 -0.55 0.20 -335.20 0.30 -384.25 0.15 -4.10 -0.05 -15.60 0.05 -25.50 0.15 -16.65 0.15 -18.15 0.10 -19.75 -0.75z"/>
  <path d="M298.65 807.60 c-10.40 -0.05 -16.15 -0.30 -16.15 -0.60 0 -0.35 7.80 -0.50 22.75 -0.45 13.25 0 22.75 0.25 22.75 0.50 0 0.70 -4.55 0.75 -29.35 0.55z"/>
  <path d="M535.35 807.40 c-0.75 -0.25 -1.20 -0.70 -1.05 -1 0.20 -0.30 0.05 -0.70 -0.30 -0.90 -0.90 -0.55 -1.10 -7.35 -0.20 -7.70 0.85 -0.30 0.90 -1.95 0.20 -3.35 -0.30 -0.50 -0.35 -0.95 -0.10 -0.95 0.60 0 0.65 -83.80 0.10 -85.30 -0.25 -0.55 -0.20 -1.35 0 -1.70 0.25 -0.40 0.20 -1.10 -0.05 -1.60 -0.35 -0.60 -0.30 -0.90 0.05 -0.90 0.30 0 0.40 -0.25 0.20 -0.55 -0.20 -0.35 -0.40 -2.55 -0.45 -4.90 -0.15 -5.35 -0.25 -6.15 -0.90 -6.90 -0.25 -0.35 -0.30 -0.65 -0.15 -0.65 0.20 0 0.05 -0.30 -0.30 -0.70 -0.35 -0.35 -1 -1.15 -1.40 -1.75 -0.40 -0.55 -1 -1.05 -1.30 -1.05 -0.30 0 -0.85 -0.30 -1.15 -0.70 -1.55 -1.85 -3.70 -1.90 -81.90 -1.90 -57.70 -0.05 -76.70 0.10 -77.65 0.55 -3.95 1.85 -5.25 3.35 -6.50 7.55 -0.85 2.75 -0.90 6.55 -0.90 57.50 0.05 30 -0.10 54.70 -0.30 54.85 -0.15 0.15 -0.30 -24.65 -0.30 -55.20 0 -62.55 -0.20 -58.95 3.70 -62.90 1.65 -1.65 2.75 -2.25 4.75 -2.70 1.85 -0.40 24.60 -0.55 78.20 -0.55 l75.55 0 3.45 1.10 c3.75 1.15 6.30 3.50 7.45 6.85 0.50 1.40 0.65 15.15 0.80 58.40 l0.10 56.60 25.90 -0.20 c14.20 -0.10 31.95 -0.30 39.35 -0.45 8.75 -0.15 12.90 -0.10 11.75 0.20 -0.95 0.30 -6.25 0.50 -11.75 0.45 -5.50 0 -11.35 0.25 -13 0.50 -3.95 0.70 -50 0.65 -51.90 -0.05z"/>
  <path d="M329.30 806.45 c0.15 -0.25 7.20 -0.45 16.10 -0.45 10.65 0 15.60 0.20 15.10 0.50 -0.95 0.65 -31.60 0.60 -31.20 -0.05z"/>
  <path d="M482.05 806.65 c-1.25 -0.25 -2.70 -1.35 -2.25 -1.75 0.40 -0.45 0.25 -52.05 -0.15 -52.35 -0.25 -0.15 -0.40 -1.30 -0.45 -2.50 -0.05 -1.45 -0.30 -2.30 -0.85 -2.65 -0.50 -0.25 -0.85 -0.75 -0.85 -1.10 0 -1.50 -3.45 -3.90 -7.05 -4.95 -3.40 -0.95 -5.20 -1.05 -21.15 -1.25 -14.80 -0.15 -17.85 -0.05 -19.85 0.60 -1.30 0.45 -2.70 0.80 -3.05 0.80 -0.35 0 -1.50 0.55 -2.50 1.25 -1 0.70 -2.15 1.25 -2.50 1.25 -0.40 0 -1.10 0.70 -1.55 1.50 -0.50 0.85 -0.80 1.50 -0.60 1.50 0.15 0 -0.05 0.50 -0.50 1.15 -0.40 0.65 -0.60 1.35 -0.40 1.50 0.15 0.20 0.05 0.35 -0.25 0.35 -0.35 0 -0.60 0.50 -0.60 1.15 0.05 0.60 -0.10 5.05 -0.25 9.85 -0.15 4.80 -0.35 16.65 -0.40 26.35 -0.05 13.65 -0.25 17.75 -0.75 18.25 -0.90 0.90 -32.20 1.30 -33.80 0.40 -0.85 -0.45 -1.05 -0.90 -0.90 -2.30 0.10 -0.95 -0.05 -2 -0.35 -2.35 -0.70 -0.90 -0.70 -38.35 0.05 -39.20 0.35 -0.45 0.35 -0.65 -0.05 -0.65 -0.30 0 -0.55 -0.80 -0.55 -1.75 0 -0.95 0.25 -1.75 0.50 -1.75 0.75 0 0.65 -15.75 -0.10 -17 -0.50 -0.80 -0.50 -1.20 0 -2.05 0.55 -0.80 0.55 -1.20 0.05 -1.80 -0.50 -0.55 -0.50 -0.80 -0.05 -1.10 0.65 -0.40 0.65 -3.55 0 -3.55 -0.20 0 -0.40 -1.25 -0.40 -2.75 0 -1.55 0.20 -2.75 0.50 -2.75 0.55 0 0.40 -2.90 -0.20 -3.90 -0.20 -0.35 -0.10 -0.60 0.15 -0.60 0.30 0 0.55 -0.35 0.55 -0.75 0 -0.40 -0.20 -0.75 -0.40 -0.75 -0.25 0 -0.45 -3.65 -0.55 -8.15 -0.10 -7.55 -0.05 -8.20 0.90 -9.05 0.90 -0.80 2.35 -0.90 20.65 -0.85 10.80 0 20.50 0.15 21.55 0.35 1.20 0.20 1.85 0.10 1.85 -0.25 0 -0.30 0.35 -0.55 0.75 -0.55 0.40 0 0.75 0.20 0.75 0.40 0 0.20 0.45 0.40 1 0.40 0.55 0 1 -0.15 1 -0.35 0 -0.50 8.15 -0.45 8.75 0.05 0.25 0.20 1.85 0.15 3.50 -0.10 2.15 -0.40 3 -0.40 3.15 0.05 0.25 0.75 3.60 0.70 3.60 0 0 -0.45 1.40 -0.50 5.15 -0.20 7.55 0.55 58.85 0.75 58.85 0.20 0 -0.80 2.35 -0.50 3.05 0.40 0.60 0.65 0.70 9.30 0.70 51.70 0 27.95 -0.20 51.05 -0.40 51.30 -0.45 0.40 -31.15 0.70 -33.30 0.30z m-81.65 -1.15 l15.50 -0.05 0.25 -26.60 c0.10 -14.65 0.35 -27.25 0.45 -28 0.15 -0.80 0.50 -1.65 0.85 -2 0.30 -0.30 0.55 -0.90 0.55 -1.30 0 -1 2.20 -3.75 4.05 -5.10 1.55 -1.10 2.40 -1.35 9.20 -2.70 5.25 -1.05 31.95 -1.05 36.60 0.05 6.35 1.40 7 1.70 9.05 3.70 2 1.95 2.80 3.80 3.45 7.75 0.15 0.85 0.35 1.85 0.40 2.25 0.10 0.40 0.20 12.40 0.20 26.65 l0.05 25.85 17 0 17 0 0 -50.90 0 -50.95 -32.15 -0.10 c-17.65 -0.05 -47.45 0.05 -66.15 0.25 l-34.10 0.35 0.05 50.70 0 50.70 1.10 -0.25 c0.60 -0.15 8.10 -0.30 16.65 -0.30z"/>
  <path d="M634.35 806.65 c-0.20 -0.15 -0.35 -65.20 -0.35 -144.50 0 -115 0.15 -144.15 0.65 -144.15 0.40 0 0.35 -0.20 -0.15 -0.50 -0.65 -0.45 -0.65 -0.55 0 -1 0.65 -0.45 0.65 -0.55 0.05 -0.95 -0.65 -0.40 -0.65 -0.60 -0.05 -1.30 0.60 -0.70 0.60 -0.90 -0.05 -1.30 -0.50 -0.30 -0.50 -0.45 -0.05 -0.45 0.30 0 0.60 -0.35 0.60 -0.75 0 -0.40 -0.30 -0.75 -0.60 -0.75 -0.45 0 -0.40 -0.20 0.10 -0.50 0.65 -0.45 0.65 -0.55 0 -1 -0.65 -0.45 -0.65 -0.55 0 -1 0.55 -0.35 0.60 -0.60 0.15 -0.90 -0.40 -0.25 -0.65 -2.65 -0.70 -7.75 -0.05 -4.45 -0.30 -7.35 -0.55 -7.35 -0.30 0 -0.40 -0.55 -0.30 -1.20 0.15 -0.75 -0.10 -1.35 -0.70 -1.75 -0.50 -0.30 -0.90 -0.90 -0.90 -1.35 0 -0.70 -0.85 -2.55 -1.95 -4.20 -0.50 -0.75 -1.65 0.25 -10.55 9 -2.80 2.75 -2.80 2.75 -3.35 7 -0.65 4.75 -0.85 251.90 -0.25 277.50 0.40 17 0.25 29 -0.40 29 -0.30 0 -0.50 -57.10 -0.50 -151.60 0 -159.95 -0.05 -157.80 2.10 -160.85 0.40 -0.55 2 -2 3.65 -3.20 1.65 -1.25 4.35 -3.85 6 -5.80 3 -3.50 3.60 -3.85 4.35 -2.50 0.70 1.25 3.25 7.10 4.20 9.70 0.90 2.40 0.95 7.50 1.10 158.65 0.10 160.15 0.15 157.45 -1.55 155.75z"/>
  <path d="M280 803.15 c-0.15 -79.90 0.10 -141.90 0.55 -142.20 0.35 -0.20 0.35 -0.40 0.10 -0.50 -0.30 -0.10 -0.65 -1.05 -0.80 -2.05 -0.25 -1.65 -0.15 -1.90 0.70 -1.90 0.95 0 0.95 1.15 0.95 74.75 0 66.10 -0.10 74.75 -0.75 74.75 -0.60 0 -0.75 -0.65 -0.75 -2.85z"/>
  <path d="M435 805.50 c1.05 -0.70 26.65 -0.65 26.25 0 -0.20 0.35 -5.05 0.50 -13.65 0.50 -8.40 -0.05 -13.05 -0.25 -12.60 -0.50z"/>
  <path d="M434 804.45 c-0.55 -0.40 -0.60 -0.60 -0.15 -0.80 0.50 -0.20 0.60 -4.65 0.35 -20.80 -0.15 -11.35 -0.40 -20.75 -0.55 -20.95 -0.10 -0.25 0.10 -0.40 0.45 -0.40 0.50 0 0.45 -0.15 -0.10 -0.50 -0.60 -0.40 -0.60 -0.50 0.20 -0.80 0.55 -0.20 0.70 -0.45 0.35 -0.70 -1 -0.60 1.20 -2 3.25 -2.10 1.05 -0.05 6.65 0 12.40 0.05 l10.45 0.15 1.05 1.30 c1 1.30 1.05 1.90 1.15 22.25 0.10 11.55 -0.05 21.65 -0.30 22.55 -0.30 1 -0.50 -6.55 -0.50 -21 l-0.05 -22.55 -1.15 -1.10 c-1.15 -1.05 -1.55 -1.10 -10.40 -1 -9.10 0.05 -13.30 0.60 -14.55 1.85 -0.50 0.50 -0.70 6 -0.90 22.85 -0.20 19.60 -0.35 22.15 -1 21.70z"/>
  <path d="M280.10 655.20 c-0.55 -0.60 -0.50 -0.70 0.15 -0.70 0.40 0 0.75 -0.20 0.75 -0.50 0 -0.25 -0.20 -0.50 -0.50 -0.50 -0.75 0 -0.60 -4.35 0.15 -4.65 0.50 -0.20 0.50 -0.30 0 -0.30 -0.50 -0.05 -0.65 -2.55 -0.65 -10.80 0 -9.20 0.10 -10.75 0.75 -10.75 0.65 0 0.75 1.90 0.75 14.20 0 7.85 -0.15 14.35 -0.35 14.45 -0.25 0.15 -0.70 -0.05 -1.05 -0.45z"/>
  <path d="M532.25 643.10 c-1.35 -0.05 -2.85 -0.25 -3.25 -0.45 -0.40 -0.15 -1.60 -0.40 -2.60 -0.45 -2.85 -0.25 -7.10 -2.40 -8.55 -4.30 -1.70 -2.20 -3.35 -5.85 -3.35 -7.45 0 -0.70 -0.15 -1.40 -0.30 -1.60 -0.35 -0.35 -0.25 -35.85 0.10 -36.45 0.15 -0.25 0.35 -1.25 0.40 -2.30 0.25 -3.60 4.35 -8.70 8.15 -10.15 2.45 -0.95 16.50 -1.90 28.15 -1.95 12.35 -0.05 13.25 0.05 18.05 1.80 5.15 1.90 8 5.60 8.70 11.35 0.15 1.60 0.35 11.05 0.35 21 l0 18.10 -1.30 2.85 c-2.50 5.45 -7.70 8.60 -15.15 9.20 -5.15 0.40 -26.20 1 -29.40 0.80z m20.15 -1.65 c0.10 -0.25 1.95 -0.45 4.05 -0.45 4.30 0 9 -0.75 11.40 -1.80 0.85 -0.40 1.75 -0.70 2 -0.70 0.25 0 1.10 -0.65 1.90 -1.50 0.80 -0.80 1.85 -1.50 2.40 -1.50 0.65 0 0.85 -0.25 0.65 -0.75 -0.15 -0.40 -0.05 -0.75 0.25 -0.75 0.30 0 0.35 -0.20 0.20 -0.50 -0.15 -0.25 -0.05 -0.50 0.25 -0.50 0.35 0 0.50 -0.35 0.30 -0.75 -0.15 -0.40 -0.05 -0.75 0.15 -0.75 0.25 0 0.35 -0.45 0.20 -1 -0.15 -0.55 0.10 -2.10 0.55 -3.45 0.65 -2.05 0.80 -5 0.80 -17 0 -9.75 -0.20 -14.60 -0.55 -14.80 -0.30 -0.20 -0.40 -0.65 -0.25 -1 0.15 -0.40 0 -0.80 -0.35 -0.90 -0.45 -0.15 -0.45 -0.40 0.05 -0.90 0.75 -0.80 0.80 -2.45 0.05 -2.45 -0.30 0 -0.45 -0.45 -0.30 -1 0.15 -0.55 0.05 -1.15 -0.20 -1.30 -0.25 -0.15 -0.35 -0.50 -0.20 -0.75 0.20 -0.25 0.05 -0.45 -0.25 -0.45 -0.30 0 -0.40 -0.20 -0.25 -0.50 0.15 -0.25 0.05 -0.50 -0.30 -0.50 -0.35 0 -0.50 -0.15 -0.30 -0.30 0.35 -0.35 -1.75 -2.35 -3.95 -3.75 -0.90 -0.55 -3.05 -1.40 -4.80 -1.85 -2.80 -0.75 -4.95 -0.80 -18.90 -0.50 -21.40 0.45 -22.05 0.50 -25.40 2.25 -2.45 1.30 -2.95 1.85 -4.50 4.85 -0.95 1.90 -1.85 4.35 -2 5.50 -0.20 1.10 -0.30 10.15 -0.35 20.05 0 16.80 0.05 18.20 1 20.70 1.70 4.65 4.75 6.95 10.60 8 1.15 0.20 2.45 0.65 2.85 1 0.45 0.40 1.35 0.50 2.20 0.35 0.75 -0.20 1.90 -0.15 2.45 0.05 1.50 0.55 18.35 0.20 18.55 -0.40z"/>
  <path d="M533.85 624.55 l-2.45 -0.30 0.05 -13.50 0 -13.50 11.85 -0.10 c7.80 -0.10 12 -0.30 12.20 -0.65 0.25 -0.35 0.75 -0.40 1.65 -0.05 1.65 0.65 1.75 1.60 2 15.05 0.10 7.30 0 9.45 -0.30 7.50 -0.25 -1.50 -0.55 -6.85 -0.70 -11.90 l-0.20 -9.15 -12.70 0.10 -12.75 0.05 0 12.95 0 12.95 7.90 0 c7.70 0 13.35 -0.60 14.35 -1.55 0.60 -0.60 3.40 -0.60 3.05 0 -0.15 0.25 -1 0.55 -1.90 0.70 -0.90 0.15 -2.55 0.50 -3.65 0.75 -2.40 0.60 -15.05 1 -18.40 0.65z"/>
  <path d="M333.50 642.50 c-7.10 -1 -10.90 -4.65 -13 -12.60 -1 -3.75 -1.15 -5.70 -1.35 -19.75 -0.35 -20.15 0.10 -22.80 4.20 -26.70 5.35 -5.05 8.20 -5.55 31.15 -5.35 l16.25 0.15 2.80 1.40 c3.10 1.60 7.05 5.10 8.15 7.30 1.80 3.40 2.35 10.20 2.25 25.85 -0.10 14.50 -0.15 15.30 -1.35 19.05 -1 3.25 -1.65 4.30 -3.80 6.45 -2.30 2.30 -2.95 2.65 -6.30 3.45 -2.65 0.55 -5.40 0.80 -9.35 0.65 -3.05 -0.05 -5.75 0.05 -5.95 0.25 -0.45 0.45 -20.10 0.35 -23.70 -0.15z m33.40 -1.50 c0.10 -0.25 1 -0.50 2 -0.50 3.65 -0.05 6.95 -1.15 8.50 -2.90 0.80 -0.85 1.70 -1.60 2.05 -1.60 0.35 0 0.55 -0.30 0.40 -0.70 -0.35 -0.90 1.10 -4.80 1.80 -4.80 0.25 0 0.35 -0.35 0.15 -0.75 -0.15 -0.50 0.05 -0.75 0.60 -0.75 0.75 0 0.75 -0.10 0.10 -0.50 -0.50 -0.30 -0.55 -0.50 -0.10 -0.50 0.75 0 0.90 -33.75 0.10 -34.25 -0.25 -0.15 -0.35 -0.60 -0.15 -1 0.15 -0.40 -0.05 -0.75 -0.40 -0.75 -0.35 0 -0.45 -0.15 -0.30 -0.35 0.20 -0.15 0.15 -0.55 -0.10 -0.85 -0.25 -0.30 -0.70 -1.45 -1 -2.55 -0.65 -2.30 -1.45 -3.35 -4.45 -5.70 -4.40 -3.45 -5.05 -3.55 -24.60 -3.55 -16.80 -0.05 -17.70 0 -20.90 1.05 -4.95 1.65 -8.20 4.30 -9.55 7.80 -1.05 2.70 -1.10 3.55 -1.05 19.70 0.05 13.15 0.25 17.45 0.80 19.55 0.40 1.45 0.85 3.05 0.95 3.60 0.10 0.50 0.50 1.20 0.80 1.60 0.35 0.40 0.45 0.85 0.25 1.05 -0.70 0.70 4.20 6.10 5.60 6.15 0.35 0 1.55 0.45 2.75 0.95 1.15 0.55 2.65 1.10 3.35 1.25 2.45 0.50 32.25 -0.15 32.40 -0.70z"/>
  <path d="M347.20 624.65 c-8.30 -0.15 -9.15 -0.25 -9.95 -1.15 -0.60 -0.65 -0.70 -1 -0.30 -1 0.50 0 0.60 -2.65 0.45 -12.25 -0.10 -9.55 0 -12.25 0.50 -12.25 0.45 0 0.60 2.95 0.60 13 l0 13 12.90 0 c8.45 0 12.60 0.20 12.10 0.50 -0.40 0.25 -2.20 0.45 -4 0.40 -1.80 -0.10 -7.35 -0.20 -12.30 -0.25z"/>
  <path d="M364.20 616.50 c0.20 -4 0.35 -9.70 0.35 -12.75 0.05 -4.45 0.15 -5.10 0.50 -3.50 0.25 1.10 0.30 5.40 0.10 9.50 -0.15 4.15 -0.35 8.75 -0.35 10.35 -0.05 1.55 -0.25 3 -0.45 3.25 -0.25 0.20 -0.30 -2.85 -0.15 -6.85z"/>
  <path d="M338.05 597.55 c-1.40 -0.90 0.80 -1.10 12.85 -1.15 10.15 0 12.35 0.10 12.35 0.65 0 0.55 -2.25 0.70 -12.25 0.80 -6.75 0.10 -12.55 -0.05 -12.95 -0.30z"/>
  <path d="M432.50 642.70 c-6.45 -1.05 -12.15 -5.05 -13.70 -9.55 -1.15 -3.40 -2.35 -9.25 -2.40 -12.05 -0.20 -8.55 0.10 -24 0.55 -27.35 0.80 -6.05 1.35 -7.50 3.95 -10.15 4.90 -5 8.10 -5.55 30.15 -5.60 18.85 -0.05 20.05 0.20 24.70 4.20 1.55 1.35 1.75 1.70 0.90 1.45 -0.65 -0.15 -1.15 -0.45 -1.15 -0.65 0 -0.25 -0.40 -0.55 -0.95 -0.75 -0.50 -0.15 -1.45 -0.70 -2.05 -1.25 -2.35 -2.05 -4.40 -2.25 -21.75 -2.10 -22.50 0.15 -25.95 0.80 -29.95 5.75 -1.95 2.45 -2.75 5.45 -3.35 12.85 -1.05 13.05 -1.05 15.70 -0.25 21.20 0.45 3 0.75 5.50 0.65 5.65 -0.15 0.10 0 1.05 0.25 2.05 0.25 1 0.55 2.60 0.70 3.55 0.40 2.85 4.10 9 4.90 8.20 0.15 -0.20 0.30 0 0.30 0.35 0 0.35 0.15 0.55 0.30 0.40 0.15 -0.15 1.40 0.15 2.85 0.65 1.40 0.50 3.05 0.95 3.65 0.95 0.60 0 1.35 0.35 1.70 0.75 0.90 1.10 30.25 1.10 31.70 0 0.50 -0.40 1.95 -0.85 3.25 -1.05 3.95 -0.55 8.10 -2.70 8.35 -4.30 0.05 -0.25 0.10 -0.65 0.15 -0.90 0 -0.30 0.55 -0.75 1.20 -1 0.60 -0.25 0.80 -0.45 0.40 -0.45 -0.50 -0.05 -0.45 -0.30 0.25 -0.90 1.90 -1.70 2.20 -5.30 2.20 -24.35 0 -15.05 -0.10 -18.25 -0.75 -19.10 -0.40 -0.60 -0.55 -1.20 -0.40 -1.40 0.15 -0.15 0.05 -0.30 -0.30 -0.30 -0.35 0 -0.45 -0.25 -0.30 -0.50 0.20 -0.30 -0.20 -1 -0.85 -1.55 -1.05 -0.90 -1.05 -1 -0.15 -0.85 0.55 0.10 1.30 0.80 1.70 1.60 1.80 3.80 2.05 6.35 2.05 21.80 0 18.10 -0.60 23.15 -3.15 27.40 -2.05 3.40 -3.80 4.70 -8.10 6.15 -3.35 1.10 -4.20 1.15 -19.75 1.25 -8.95 0.05 -16.80 0 -17.50 -0.10z"/>
  <path d="M280.45 626.10 c0.40 -0.30 0.45 -0.55 0.15 -0.65 -0.75 -0.25 -1.05 -157.85 -0.35 -158.15 0.30 -0.15 0.20 -0.25 -0.10 -0.25 -0.85 -0.05 -0.85 -1.40 0 -1.70 0.50 -0.20 0.45 -0.30 0 -0.30 -0.75 -0.05 -0.90 -1.55 -0.15 -1.55 0.30 0 0.50 -2.50 0.50 -6.50 0 -3.55 0.15 -6.50 0.40 -6.50 0.20 0 0.35 39.50 0.35 87.85 0 77.65 -0.10 87.85 -0.75 88 -0.60 0.20 -0.60 0.15 -0.05 -0.25z"/>
  <path d="M436.65 624.70 c-1.10 -0.25 -1.10 -0.25 -1.25 -14.10 -0.10 -8.80 0.05 -14 0.35 -14.20 0.30 -0.20 1.30 -0.40 2.35 -0.40 1.55 0 1.75 0.15 1.55 1 -0.25 1 -1.15 1.40 -1.15 0.50 0 -0.70 -0.80 -0.60 -1.60 0.15 -0.50 0.55 -0.65 3.50 -0.65 13.40 l0 12.70 11.50 -0.10 c6.35 -0.05 12.10 -0.10 12.90 -0.15 l1.35 0 0 -13.10 c0 -8.55 0.20 -12.90 0.50 -12.40 0.50 0.80 0.45 25.20 -0.05 25.70 -0.50 0.50 -23.90 1.40 -25.80 1z"/>
  <path d="M440.50 597.50 c0 -1.10 2.25 -1.35 10.50 -1.20 9.10 0.20 10 0.35 10 1.20 0 0.30 -3.55 0.50 -10.25 0.50 -6.25 0 -10.25 -0.20 -10.25 -0.50z"/>
  <path d="M538.70 547.45 c-0.10 -0.15 -2.60 -0.45 -5.55 -0.60 -9.55 -0.50 -14.25 -2.90 -17 -8.60 -1.95 -4 -2.25 -8 -2.05 -27 0.20 -15.50 0.35 -18.35 1.10 -20.65 1.10 -3.45 4.25 -6.90 7.80 -8.55 l2.75 -1.30 16.05 -0.15 c16.25 -0.10 21.20 0.20 26.10 1.75 3.15 0.95 6 3.45 7.80 6.75 1.75 3.30 2.45 12.45 2.20 30.40 l-0.15 14.25 -1.70 3.40 c-1.80 3.60 -3.40 5.25 -6.65 6.90 -3.15 1.60 -9.20 2.95 -13.40 2.95 -2.10 0 -4 0.15 -4.20 0.35 -0.45 0.45 -12.80 0.55 -13.10 0.10z m21.30 -1.90 c0.15 -0.20 2.15 -0.85 4.45 -1.50 3.45 -1 4.55 -1.60 6.40 -3.40 1.25 -1.15 2.65 -2.15 3.20 -2.15 0.50 0 0.95 -0.20 0.95 -0.50 0 -0.25 -0.20 -0.50 -0.50 -0.50 -0.80 0 0.05 -1.50 0.95 -1.55 0.55 0 0.60 -0.10 0.15 -0.30 -0.50 -0.20 -0.45 -0.45 0.20 -1.20 0.50 -0.55 0.60 -0.95 0.30 -0.95 -0.90 0 -0.70 -1.30 0.25 -2.30 0.75 -0.75 0.85 -2.35 0.85 -15.05 0 -9.75 -0.15 -14.30 -0.55 -14.55 -0.85 -0.55 -1.25 -3.40 -0.70 -5.30 0.30 -1.25 0.30 -1.80 -0.05 -1.80 -0.30 0 -0.40 -0.65 -0.30 -1.50 0.15 -0.80 0.10 -1.50 -0.05 -1.50 -0.20 0 -0.70 -0.85 -1.15 -1.95 -1.15 -2.60 -3.45 -4.80 -6.80 -6.45 l-2.85 -1.35 -20 0 -20 0 -2.40 1.20 c-1.30 0.65 -2.90 1.80 -3.60 2.65 -1.15 1.35 -1.65 2.30 -3.25 6.15 -0.65 1.65 -0.75 38.75 -0.10 41.50 1.15 4.70 2.30 6.60 5 8.55 1.45 1.10 2.90 1.90 3.20 1.80 0.30 -0.05 1 0.20 1.65 0.60 0.60 0.40 1.90 0.95 2.80 1.20 1.90 0.50 31.55 0.65 31.95 0.15z"/>
  <path d="M531.90 528 c-0.45 -0.30 -0.75 -0.85 -0.60 -1.20 0.15 -0.40 0.05 -0.85 -0.25 -1 -0.55 -0.35 -0.30 -24 0.25 -24.90 0.15 -0.20 0.45 -0.30 0.70 -0.15 0.25 0.15 0.55 0.05 0.75 -0.25 0.20 -0.30 4.80 -0.50 12.55 -0.50 11.95 0 12.20 0 12.20 1 0 1.05 -0.20 1.05 -12.50 0.90 l-12.50 -0.15 0 12.90 0 12.85 12.70 0 c14.80 0 13.40 0.70 13.45 -6.60 0.05 -2.40 0.25 -4.40 0.55 -4.40 0.75 0 -0.15 10.15 -1 11 -0.60 0.60 -2.90 0.75 -13.10 0.85 -7.75 0.10 -12.65 -0.05 -13.20 -0.35z"/>
  <path d="M558.75 511.85 c-0.20 -2.30 -0.25 -5.45 -0.20 -7 0.10 -1.60 0 -2.95 -0.30 -3.05 -0.25 -0.10 -0.35 -0.35 -0.10 -0.55 0.20 -0.25 0.50 -0.25 0.70 -0.10 0.30 0.35 0.75 14.85 0.45 14.85 -0.10 0 -0.35 -1.85 -0.55 -4.15z"/>
  <path d="M439.50 547 c-8.75 -0.40 -10.35 -0.70 -14.30 -2.55 -3.80 -1.75 -6.90 -5.05 -7.70 -8.05 -0.30 -1.15 -0.70 -2.70 -0.90 -3.40 -0.20 -0.70 -0.25 -9.95 -0.10 -20.60 0.20 -15.60 0.40 -19.50 0.95 -20 0.60 -0.55 0.60 -0.40 0.25 1.10 -0.25 0.95 -0.45 10.30 -0.45 20.75 0 21 0.15 22.50 2.95 25.35 2 2.05 8.20 5.20 9.70 4.95 0.40 -0.05 1.05 0.20 1.50 0.60 1.25 1.10 7.55 1.70 8.20 0.80 0.35 -0.55 0.55 -0.55 0.75 -0.05 0.25 0.65 3.15 0.85 3.15 0.20 0 -0.20 4.15 -0.30 9.25 -0.25 6.35 0.10 9.25 0 9.25 -0.40 0 -0.25 0.40 -0.45 0.90 -0.40 1.35 0.20 4.60 -0.55 7.60 -1.70 2.60 -0.95 7.20 -4.50 7.30 -5.60 0.10 -1.25 1.40 -4.75 1.80 -4.75 0.60 0 0.50 -34.45 -0.15 -38.55 -0.35 -2.20 -0.90 -3.90 -1.60 -4.75 -6.45 -7.60 -7.90 -8.10 -26.85 -8.40 -7.65 -0.10 -15.40 0 -17.45 0.30 -6.80 0.90 -11.95 4.05 -14.50 8.80 -0.35 0.65 -0.75 1.10 -0.90 0.95 -0.45 -0.50 2.30 -4.25 4.65 -6.25 1.55 -1.30 3.65 -2.45 5.90 -3.20 3.40 -1.10 4.20 -1.15 19.55 -1.15 15.45 0 19.85 0.20 20.60 0.90 0.15 0.20 0.75 0.35 1.25 0.35 2.75 0 8.40 5.60 9.40 9.40 1.20 4.40 1.25 5.85 1.25 25.10 0 21.90 0.10 21.25 -4.30 25.50 -2.35 2.25 -4.80 3.30 -10.45 4.45 -3.05 0.65 -17.65 0.95 -26.50 0.55z"/>
  <path d="M337 546.50 c-0.70 -0.25 -2.70 -0.70 -4.50 -1 -5.90 -1.05 -9.75 -4.25 -11.90 -9.80 -1.30 -3.40 -1.30 -3.75 -1.50 -17.45 -0.20 -15.25 0.35 -22.95 1.95 -26.25 0.50 -1.05 0.95 -2.30 0.95 -2.75 0 -0.45 0.35 -1.15 0.75 -1.55 0.40 -0.40 1 -1.15 1.35 -1.60 1.25 -1.60 4.15 -3.45 7.30 -4.50 2.90 -1.05 4.05 -1.10 17.55 -1.10 21.15 0 24.90 0.65 29.45 5.30 1.40 1.50 2.60 2.95 2.60 3.20 0 1 -1.55 0.45 -1.95 -0.70 -0.70 -1.75 -4.15 -4.45 -7.15 -5.55 -2.45 -0.95 -3.95 -1 -21.15 -1 l-18.55 0 -3.35 1.65 c-2.70 1.35 -3.55 2.05 -4.35 3.65 -0.55 1.05 -1.25 1.95 -1.55 1.95 -0.25 0 -0.45 0.30 -0.35 0.65 0.05 0.30 -0.30 1.35 -0.75 2.20 -0.80 1.50 -1.05 2.75 -1.60 7.90 -0.10 1.10 -0.20 2.10 -0.25 2.25 -0.15 0.30 0.10 27.85 0.25 29.50 0.10 1.65 2 5.85 3.55 7.85 1.45 1.90 5.45 3.95 8.70 4.45 1.25 0.20 2.50 0.55 2.80 0.80 0.30 0.20 0.95 0.30 1.40 0.10 0.45 -0.15 0.90 0 1.05 0.35 0.20 0.55 2.80 0.70 13.25 0.70 7.15 0 13 -0.15 13 -0.30 0 -0.15 1.80 -0.45 4 -0.60 3.95 -0.25 7.75 -1.65 10.05 -3.65 0.40 -0.40 1.10 -0.70 1.50 -0.70 1.15 0 2.45 -2.60 1.90 -3.65 -0.40 -0.65 -0.30 -0.95 0.30 -1.15 0.45 -0.20 0.70 -0.65 0.55 -1 -0.15 -0.40 0 -0.70 0.35 -0.70 0.40 0 0.40 -0.15 -0.10 -0.45 -0.45 -0.30 -0.50 -0.50 -0.05 -0.65 0.40 -0.10 0.60 -2.35 0.65 -7.40 0.05 -4.15 0.30 -7.40 0.60 -7.60 0.30 -0.25 0.25 -0.40 -0.10 -0.40 -0.35 0 -0.65 -0.30 -0.65 -0.70 0 -0.40 0.30 -0.85 0.65 -0.95 0.50 -0.20 0.50 -0.30 0 -0.30 -0.80 -0.05 -0.90 -6.05 -0.15 -6.05 0.30 0 0.50 -0.45 0.50 -1 0 -0.55 -0.20 -1 -0.50 -1 -0.30 0 -0.45 -2.20 -0.40 -5.55 0.05 -3.05 -0.15 -5.70 -0.40 -5.85 -0.25 -0.20 -0.50 -1 -0.60 -1.85 -0.10 -0.80 -0.40 -1.75 -0.65 -2.05 -0.25 -0.30 -0.30 -0.70 -0.10 -0.85 0.15 -0.20 0.05 -0.35 -0.30 -0.35 -0.35 0 -0.45 -0.25 -0.30 -0.50 0.55 -0.90 1.05 -0.15 1.90 2.85 1.95 7.10 2.25 13.85 1.40 32.65 -0.45 10 -0.80 11.55 -3.60 15.05 -1.75 2.20 -6.20 4.55 -10.35 5.40 -3.05 0.65 -31.15 0.65 -33.10 0.05z"/>
  <path d="M338.10 528.05 c-0.50 -0.30 -0.65 -2.75 -0.65 -11 0.05 -6.60 -0.15 -10.55 -0.45 -10.55 -0.30 0 -0.50 -0.80 -0.50 -1.75 0 -0.95 0.25 -1.75 0.55 -1.75 0.30 0 0.45 -0.40 0.35 -0.90 -0.50 -1.95 1.05 -2.15 13.50 -2.05 11.60 0.10 13.25 0.25 13.75 1.55 0.15 0.50 -2.30 0.60 -12.35 0.50 -7.20 -0.05 -12.75 -0.35 -13 -0.60 -0.30 -0.30 -0.60 -0.50 -0.80 -0.50 -0.15 0 -0.20 5.95 -0.10 13.25 l0.15 13.25 12.85 0 c8.50 0 12.60 0.20 12.10 0.50 -0.90 0.60 -24.50 0.65 -25.40 0.05z"/>
  <path d="M436.05 528.05 c-1.25 -0.35 -2.10 -1.55 -1.10 -1.55 0.35 0 0.60 -4.25 0.65 -13.10 l0.15 -13.15 12.90 0 c14.55 0 13.60 -0.30 14.15 4.15 0.55 4.55 0 22.40 -0.75 23.30 -0.60 0.70 -2.30 0.80 -12.75 0.75 -6.60 -0.05 -12.60 -0.20 -13.25 -0.40z m25.95 -13.30 l0 -12.70 -13 -0.15 -13 -0.15 0.05 12.90 0.05 12.85 12.95 0 12.95 0 0 -12.75z"/>
  <path d="M364.40 526.15 c-0.10 -0.25 -0.05 -5.55 0.10 -11.90 0.15 -7.85 0.40 -10.90 0.70 -9.65 0.20 1 0.25 4.05 0.10 6.75 -0.15 2.70 -0.30 7.20 -0.35 10.05 -0.05 4.80 -0.15 5.60 -0.55 4.75z"/>
  <path d="M280.15 449.20 c-0.35 -0.35 -0.65 -0.85 -0.65 -1.15 0 -0.25 0.30 -0.60 0.65 -0.70 0.50 -0.20 0.50 -0.30 0 -0.30 -0.40 -0.05 -0.65 -0.75 -0.65 -1.75 0 -0.95 0.30 -1.85 0.65 -2 0.50 -0.25 0.50 -0.35 0 -0.60 -0.90 -0.40 -0.85 -2.70 0.05 -2.70 0.40 0 0.80 0.30 0.90 0.65 0.25 0.65 0.05 8.85 -0.20 9.10 -0.10 0.10 -0.45 -0.15 -0.75 -0.55z"/>
  <path d="M280.65 439.70 c-2.50 -1.10 2.80 -2.10 10.10 -1.95 3.05 0.05 9.25 0.30 13.90 0.50 6.45 0.30 8.50 0.25 9.10 -0.25 0.60 -0.50 1.05 -0.50 2.05 -0.05 1.60 0.70 27.20 0.80 27.20 0.05 0 -0.25 0.45 -0.50 1 -0.50 0.55 0 1 0.25 1 0.50 0 0.75 5.85 0.65 6.15 -0.10 0.20 -0.50 0.40 -0.45 0.85 0.10 0.45 0.55 0.65 0.60 0.85 0.15 0.30 -0.75 3.15 -0.90 3.15 -0.15 0 0.75 6.85 0.65 7.20 -0.10 0.25 -0.50 0.35 -0.50 0.60 0 0.35 0.70 5.20 0.85 5.20 0.10 0 -0.25 0.35 -0.50 0.75 -0.50 0.40 0 0.75 0.25 0.75 0.50 0 0.30 0.55 0.50 1.25 0.50 0.70 0 1.25 -0.20 1.25 -0.50 0 -0.25 0.35 -0.50 0.75 -0.50 0.40 0 0.75 0.25 0.75 0.50 0 0.35 0.30 0.35 0.95 0 1.15 -0.60 3.05 -0.65 3.05 -0.10 0 0.20 6.20 0.35 13.75 0.35 7.55 0 13.75 -0.20 13.75 -0.40 0 -0.25 0.60 -0.30 1.40 -0.15 1.65 0.35 16.90 0.55 28.10 0.35 4.55 -0.10 9.45 -0.05 10.90 0.10 1.40 0.10 2.60 0 2.60 -0.20 0 -0.25 0.55 -0.45 1.25 -0.45 0.70 0 1.25 0.25 1.25 0.50 0 0.55 2.60 0.40 4.90 -0.30 0.65 -0.20 1.10 -0.10 1.10 0.25 0 0.75 3.35 0.70 3.65 -0.05 0.20 -0.50 0.30 -0.50 0.30 0 0.05 0.80 3.25 0.80 4.60 0 0.85 -0.50 1.15 -0.50 1.30 0 0.30 0.70 4.65 0.85 4.65 0.10 0 -0.25 0.80 -0.50 1.75 -0.50 0.95 0 1.75 0.15 1.75 0.40 0 0.20 6.65 0.35 14.75 0.40 8.10 0 14.75 -0.15 14.75 -0.40 0 -0.20 0.35 -0.40 0.75 -0.40 0.40 0 0.75 0.15 0.75 0.40 0 0.20 1.10 0.25 2.50 0.20 1.35 -0.10 2.50 -0.40 2.50 -0.60 0 -0.25 0.50 -0.60 1.15 -0.80 1.20 -0.35 4.35 -3.50 3.95 -3.95 -0.15 -0.15 0 -0.25 0.35 -0.25 0.35 0 0.45 -0.20 0.30 -0.50 -0.15 -0.25 -0.10 -0.50 0.15 -0.50 0.30 0 0.40 -0.45 0.25 -1 -0.15 -0.60 0 -1 0.35 -1 0.35 0 0.50 -0.35 0.30 -0.75 -0.15 -0.40 -0.05 -0.75 0.25 -0.75 0.30 0 0.45 -0.30 0.35 -0.60 -0.15 -0.35 0.10 -0.95 0.45 -1.30 0.40 -0.40 0.55 -1.15 0.40 -1.65 -0.20 -0.55 -0.10 -0.95 0.25 -0.95 0.30 0 0.40 -0.20 0.25 -0.50 -0.15 -0.25 -0.10 -0.50 0.15 -0.50 0.65 0 1.05 -1.75 0.75 -2.95 -0.25 -0.95 -2 -0.95 -84.05 -1 -46.15 -0.05 -84.90 -0.20 -86.25 -0.40 -1.30 -0.15 -2.50 -0.50 -2.70 -0.80 -0.20 -0.35 0.60 -0.40 2.40 -0.20 1.50 0.20 40.30 0.35 86.20 0.40 45.95 0 84.15 0.15 84.90 0.30 1.30 0.25 1.40 0.45 1.20 1.85 -0.15 0.85 -1.15 4.20 -2.25 7.45 -2.05 5.85 -4.50 10.45 -6.05 11.20 -0.45 0.20 -52.30 0.55 -115.30 0.70 -62.95 0.15 -115.30 0.45 -116.25 0.60 -0.95 0.15 -2.05 0.20 -2.35 0.05z"/>
 </g>
 <g fill="#ff7d00">
  <path d="M691.90 472.90 c-0.50 -0.75 -0.90 -1.45 -0.90 -1.60 0 -0.15 -2.10 -3.40 -4.60 -7.25 -2.55 -3.85 -5.05 -7.65 -5.50 -8.40 -1.05 -1.70 -1.35 -2.20 -9.90 -14.90 -0.40 -0.65 -1.50 -2.45 -2.45 -4.05 -0.95 -1.65 -2.60 -4.25 -3.65 -5.80 -1.05 -1.55 -1.90 -3.10 -1.90 -3.35 0 -0.30 -0.20 -0.55 -0.40 -0.55 -0.25 0 -0.75 -0.60 -1.15 -1.35 -0.35 -0.80 -1.30 -2.35 -2.05 -3.50 -0.75 -1.15 -1.40 -2.30 -1.40 -2.60 0 -0.30 -0.20 -0.55 -0.50 -0.55 -0.25 0 -0.50 -0.20 -0.50 -0.45 0 -0.40 3.40 -0.90 9.30 -1.35 2.35 -0.20 2.60 -0.10 3.20 1.20 0.40 0.75 1.80 2.95 3.10 4.95 1.30 2 2.40 3.80 2.40 4.05 0 0.25 0.45 0.85 1 1.35 0.50 0.45 2.35 2.75 4.10 5.05 1.75 2.30 3.40 4.20 3.70 4.20 0.35 0 1 -1.45 1.45 -3.25 1.10 -4 1.65 -3.90 0.75 0.15 -0.75 3.30 -1.80 4.35 -3.60 3.65 -1 -0.40 -3.40 -3.55 -2.70 -3.55 0.15 0 -0.30 -0.55 -1 -1.25 -0.70 -0.70 -1.10 -1.50 -0.95 -1.75 0.15 -0.30 0 -0.50 -0.35 -0.50 -0.60 0 -1.60 -1.30 -6.15 -7.65 -0.80 -1.15 -1.85 -2.75 -2.25 -3.60 -0.40 -0.80 -0.95 -1.65 -1.25 -1.90 -0.45 -0.30 -8.75 0.05 -9.20 0.45 -0.25 0.20 6.30 10.55 7.50 11.95 0.50 0.55 1.45 1.95 2.05 3.10 2.05 3.65 3.95 6.70 6.95 10.95 1.60 2.30 3.30 4.90 3.70 5.75 0.45 0.80 1.15 1.90 1.55 2.35 0.80 0.90 5.20 7.60 5.20 7.90 0 0.45 4.50 7.15 4.95 7.45 0.35 0.20 0.55 -0.35 0.55 -1.60 0 -1.05 0.35 -3.10 0.70 -4.55 0.40 -1.45 0.70 -2.80 0.75 -3 0 -0.20 0.40 -0.45 0.85 -0.55 0.75 -0.15 0.80 0.15 0.45 2.25 -0.20 1.35 -0.50 4.90 -0.70 7.95 -0.30 5.45 -0.30 5.45 -1.15 4.15z"/>
  <path d="M610.60 469.35 c-0.30 -1.45 -0.60 -3.55 -0.60 -4.70 0 -1.15 -0.20 -2.25 -0.50 -2.40 -0.30 -0.20 -0.50 -3.35 -0.50 -7.75 0 -4.10 -0.20 -7.55 -0.40 -7.70 -0.25 -0.15 -0.45 -1.20 -0.50 -2.30 -0.05 -1.15 -0.25 -2.35 -0.40 -2.60 -0.20 -0.30 -0.40 -1.60 -0.50 -2.85 -0.10 -1.25 -0.45 -4.50 -0.75 -7.20 -0.30 -2.70 -0.45 -5.05 -0.30 -5.20 0.15 -0.15 0.40 0.25 0.55 0.90 0.30 1.55 1.40 10.20 1.60 12.45 0.10 0.95 0.50 3.90 0.90 6.50 0.40 2.60 0.75 7 0.75 9.75 0 2.75 0.25 5.80 0.55 6.75 0.25 0.95 0.50 2.60 0.50 3.60 0 2.60 0.90 2.45 3.20 -0.60 1.05 -1.35 2.10 -2.50 2.40 -2.50 0.25 0 0.30 -0.25 0.15 -0.50 -0.15 -0.30 0 -0.65 0.40 -0.80 0.35 -0.10 0.70 -0.55 0.70 -0.90 0 -0.85 3.10 -5.30 3.70 -5.30 0.30 0 0.35 -0.25 0.15 -0.55 -0.15 -0.30 0.30 -1.10 1.05 -1.75 0.80 -0.65 1.25 -1.20 1.05 -1.20 -0.70 0 1.85 -3.70 3.30 -4.95 0.80 -0.65 1.35 -1.45 1.25 -1.75 -0.15 -0.35 0.40 -1.55 1.20 -2.70 0.80 -1.15 1.90 -3 2.40 -4 0.55 -1.05 1.60 -2.60 2.40 -3.45 0.75 -0.85 1.45 -1.85 1.55 -2.15 0.10 -0.35 0.85 -1.65 1.75 -2.95 0.85 -1.25 2 -3.10 2.55 -4.05 0.50 -0.95 1.35 -2.50 1.85 -3.45 0.50 -0.90 1.30 -2.10 1.75 -2.60 1.20 -1.35 0.45 -1.95 -3 -2.30 -3.60 -0.35 -4.85 0.25 -6.90 3.55 -0.85 1.40 -1.65 2.65 -1.85 2.80 -0.15 0.15 -1.30 1.70 -2.50 3.50 -4.90 7.15 -8.95 12 -9.95 11.95 -0.80 0 -0.80 -0.05 0 -0.35 0.45 -0.20 2.25 -2.25 4 -4.55 1.70 -2.30 3.75 -5 4.50 -6 0.75 -1 1.75 -2.45 2.20 -3.30 0.45 -0.80 1.30 -2.05 1.90 -2.75 0.60 -0.70 1.60 -2.35 2.30 -3.65 1.25 -2.35 1.30 -2.40 3.25 -2.15 1.10 0.15 3.65 0.40 5.65 0.60 3.65 0.35 4.15 0.70 2.90 2.15 -0.35 0.45 -1.25 1.80 -1.90 3.05 -1.90 3.40 -4.30 7.35 -7 11.40 -1.30 2 -2.40 3.85 -2.40 4.05 0 0.25 -0.15 0.55 -0.35 0.65 -0.60 0.25 -4.65 6.25 -4.65 6.80 0 0.30 -0.20 0.60 -0.40 0.70 -0.55 0.20 -7.60 10.75 -7.60 11.35 0 0.20 -0.45 0.80 -1 1.30 -0.55 0.50 -1 1.10 -1 1.40 0 0.25 -0.65 1.30 -1.50 2.35 -0.80 1.05 -1.50 2.05 -1.50 2.25 0 0.15 -0.30 0.65 -0.60 1.05 -0.35 0.40 -1.55 1.80 -2.65 3.15 -1.10 1.35 -2.10 2.50 -2.25 2.50 -0.15 0.05 -0.55 -1.15 -0.90 -2.60z"/>
  <path d="M692.80 450.90 c0.15 -3.90 0.50 -7.50 0.75 -8 0.25 -0.50 0.50 -1.80 0.60 -2.90 0.05 -1.10 0.25 -2 0.45 -2 0.20 0 0.25 -0.65 0.10 -1.50 -0.25 -1.15 -0.15 -1.50 0.50 -1.50 0.95 0 1 0.70 0.25 6.60 -0.40 3.10 -0.80 4.40 -1.25 4.40 -0.40 0 -0.70 0.45 -0.70 1 0 0.55 0.30 1 0.65 1 0.55 0 0.65 2.60 0.35 9.65 0 0.20 -0.45 0.35 -1 0.35 -0.95 0 -0.95 -0.25 -0.70 -7.10z"/>
  <path d="M616.80 435.10 c-1 -3.65 -1 -5.40 0 -5.80 0.40 -0.15 0.60 -0.10 0.45 0.15 -0.15 0.25 -0.05 0.60 0.25 0.80 0.25 0.15 0.50 1.20 0.50 2.25 0 1.05 0.25 2.10 0.50 2.25 0.75 0.50 0.60 3.25 -0.20 3.25 -0.40 0 -1 -1.20 -1.50 -2.90z"/>
  <path d="M538 436.35 c0 -0.40 0.15 -0.85 0.35 -1 0.20 -0.20 0.80 -1.75 1.45 -3.50 2.40 -6.75 3.10 -8.70 3.75 -9.95 0.25 -0.50 0.45 -1.30 0.45 -1.80 0 -0.50 0.55 -2 1.20 -3.40 0.65 -1.35 1.90 -4.55 2.75 -7.15 0.90 -2.60 1.95 -5.35 2.35 -6.10 0.40 -0.80 0.70 -1.75 0.70 -2.20 0 -0.45 0.45 -1.75 1 -2.85 0.55 -1.15 1 -2.25 1 -2.45 0 -0.80 1.60 -4.05 1.85 -3.75 0.15 0.15 -0.10 1.25 -0.60 2.40 -1.85 4.50 -2.30 5.65 -2.30 6 0 0.20 -0.45 1.55 -1 3 -0.55 1.45 -1.30 3.55 -1.65 4.65 -0.65 1.90 -1.55 4.05 -3.05 7.50 -0.40 0.85 -1.15 3.10 -1.75 5.10 -0.55 1.95 -1.40 4.45 -1.85 5.50 -0.45 1.05 -0.85 2 -0.90 2.15 -0.05 0.15 -0.20 0.60 -0.35 1 -0.40 1 -1.40 4.10 -1.40 4.30 0 0.40 3.80 -1.60 4.15 -2.15 0.20 -0.35 1.35 -1.05 2.50 -1.60 2.30 -1.10 4.95 -2.65 5.35 -3.10 0.15 -0.20 2.40 -1.50 5 -2.95 2.60 -1.45 5.10 -2.90 5.50 -3.25 0.40 -0.35 1.65 -1.10 2.75 -1.70 1.10 -0.60 3.15 -1.75 4.50 -2.55 1.40 -0.85 3.25 -1.85 4.20 -2.30 0.90 -0.40 2.05 -1.15 2.55 -1.60 0.50 -0.50 2.60 -1.70 4.60 -2.75 4.90 -2.50 9.15 -5.45 9.15 -6.30 0 -0.35 -0.80 -1.10 -1.75 -1.60 -0.95 -0.50 -1.95 -1.10 -2.25 -1.30 -0.25 -0.25 -1.10 -0.70 -1.90 -1 -1.25 -0.60 -1.60 -0.50 -3.75 1.05 -2.65 1.85 -12 6.55 -12.35 6.20 -0.15 -0.10 1.95 -1.30 4.65 -2.65 2.65 -1.35 6.15 -3.35 7.75 -4.45 2.45 -1.65 3.05 -1.90 3.75 -1.40 0.45 0.35 1.30 0.85 1.85 1.10 3.25 1.70 7 4 7.15 4.45 0.10 0.25 -0.80 1.10 -2 1.85 -1.20 0.75 -2.25 1.50 -2.40 1.65 -0.15 0.15 -1.25 0.85 -2.50 1.50 -1.25 0.70 -2.35 1.35 -2.50 1.50 -0.15 0.20 -0.80 0.60 -1.50 0.90 -0.70 0.35 -2.35 1.30 -3.75 2.15 -1.35 0.80 -3.05 1.75 -3.75 2.10 -0.70 0.35 -1.90 1.10 -2.75 1.70 -0.80 0.55 -1.90 1.20 -2.40 1.40 -0.50 0.15 -2.10 1.05 -3.50 2 -2.40 1.55 -3.55 2.20 -6.85 3.90 -0.70 0.35 -1.35 0.75 -1.50 0.90 -0.50 0.50 -3.30 2.30 -4.75 3 -0.80 0.40 -2.60 1.50 -4 2.40 -1.35 0.85 -2.70 1.60 -2.95 1.60 -0.25 0 -1.95 1 -3.85 2.25 -3.60 2.35 -4.45 2.65 -4.45 1.60z"/>
  <path d="M761.50 434.65 c-1.25 -0.70 -3.35 -2 -4.75 -2.85 -1.35 -0.90 -3.35 -2 -4.35 -2.45 -1 -0.50 -2 -1.10 -2.15 -1.35 -0.20 -0.30 -1.15 -0.85 -2.15 -1.30 -1 -0.40 -1.95 -0.90 -2.10 -1.10 -0.15 -0.20 -0.80 -0.65 -1.50 -1 -0.70 -0.35 -2.35 -1.25 -3.75 -2.10 -1.35 -0.80 -3.85 -2.20 -5.50 -3.15 -1.65 -0.90 -5.80 -3.30 -9.15 -5.30 -3.40 -2 -6.55 -3.75 -7 -3.90 -0.50 -0.20 -1.65 -0.85 -2.60 -1.45 -0.95 -0.60 -3.20 -1.90 -5 -2.85 -1.75 -0.95 -3.30 -1.95 -3.35 -2.20 -0.10 -0.20 1.45 -1.40 3.40 -2.65 1.95 -1.25 4.15 -2.65 4.90 -3.10 1.75 -1.10 2.70 -1.10 3.80 0.10 0.50 0.55 1.10 1 1.30 1 0.20 0 1.35 0.65 2.55 1.40 1.20 0.80 3.30 1.95 4.65 2.65 1.40 0.65 2.60 1.35 2.75 1.50 0.15 0.15 1.70 0.95 3.50 1.75 6.05 2.80 6.90 3.25 5.50 3 -1.95 -0.30 -7.15 -2.35 -8.05 -3.10 -0.40 -0.40 -1.50 -0.95 -2.45 -1.25 -0.90 -0.35 -2.95 -1.45 -4.55 -2.55 -1.60 -1.05 -3.10 -1.90 -3.30 -1.90 -0.25 0 -1.20 -0.65 -2.15 -1.40 -1.90 -1.60 -1.85 -1.60 -5.95 1.15 -1.20 0.85 -2.75 1.80 -3.45 2.20 l-1.25 0.70 2.70 1.40 c1.50 0.75 3.60 1.85 4.75 2.40 1.10 0.55 2.55 1.45 3.25 1.95 1.10 0.85 5.90 3.70 10.70 6.35 12.85 7.10 18.75 10.65 18.75 11.35 0 0.25 0.20 0.30 0.50 0.15 0.60 -0.35 2.85 0.80 4.35 2.20 0.60 0.60 1.40 1.05 1.75 1.05 0.35 0 1.65 0.55 2.85 1.25 1.15 0.70 2.25 1.25 2.40 1.25 0.50 0 -0.45 -3.70 -1.95 -7.45 -0.80 -2.10 -1.95 -4.90 -2.50 -6.30 -0.55 -1.35 -1.40 -3.60 -1.85 -5 -0.50 -1.35 -1.75 -4.20 -2.75 -6.35 -1 -2.10 -1.80 -4 -1.80 -4.25 0 -0.25 -1.05 -2.90 -2.30 -5.90 -2.35 -5.65 -3.25 -8.25 -3.05 -8.80 0.05 -0.20 -0.30 -0.75 -0.75 -1.25 -0.70 -0.80 -3.10 -6.15 -2.95 -6.60 0.10 -0.25 -1.50 -3.10 -1.70 -3.10 -0.35 0 -2.25 1.95 -4.30 4.40 l-1.80 2.20 0.85 1.80 c3.40 7 4.70 10.50 7.50 19.50 0.80 2.50 0.40 3.35 -0.45 1 -0.35 -0.90 -0.85 -2.05 -1.10 -2.50 -0.25 -0.50 -0.45 -1.35 -0.45 -1.85 0 -0.55 -0.20 -1.15 -0.50 -1.30 -0.25 -0.15 -0.50 -0.85 -0.50 -1.50 0 -0.65 -0.20 -1.35 -0.50 -1.50 -0.25 -0.15 -0.50 -0.65 -0.50 -1 0 -0.95 -3.90 -9.65 -5.10 -11.30 -0.50 -0.70 -0.05 -1.45 2.50 -4.45 1.70 -1.95 3.10 -3.75 3.10 -3.95 0 -0.20 0.55 -0.65 1.25 -0.95 0.85 -0.40 1.25 -0.40 1.25 -0.05 0 0.30 0.70 2 1.55 3.85 0.85 1.85 1.70 3.80 1.95 4.35 0.50 1.30 4.35 10.35 5.55 13.10 0.55 1.20 0.95 2.45 0.95 2.85 0 0.40 0.15 0.80 0.40 0.90 0.20 0.10 0.80 1.40 1.30 2.90 0.55 1.50 1.50 4 2.20 5.50 2.05 4.65 5.25 13 7.80 20.35 0.90 2.55 1.80 4.80 1.95 5 0.55 0.55 0.40 1.15 -0.25 1.10 -0.35 0 -1.65 -0.60 -2.90 -1.30z"/>
  <path d="M694.50 433.05 c0 -0.85 0.20 -1.55 0.45 -1.55 0.25 0 0.40 -0.55 0.30 -1.25 -0.05 -0.80 0.15 -1.25 0.55 -1.25 0.40 0 0.70 -0.20 0.70 -0.50 0 -0.25 -0.25 -0.50 -0.50 -0.50 -0.35 0 -0.45 -3.10 -0.25 -9.05 0.20 -7.20 0.15 -9 -0.35 -8.85 -0.35 0.15 -1.55 0.55 -2.65 0.90 -4.10 1.30 -4.75 1.65 -4.80 2.45 0 0.45 -0.10 4.10 -0.20 8.10 -0.10 4.35 -0.40 7.80 -0.75 8.45 -0.80 1.45 -1.15 0.95 -0.50 -0.70 0.25 -0.75 0.50 -4.95 0.50 -9.35 0 -6.75 0.10 -7.95 0.75 -7.95 0.40 0 1.15 -0.20 1.65 -0.45 1.80 -1 7.60 -2.60 8.15 -2.25 0.45 0.25 0.50 1.70 0.20 5.15 -0.20 2.65 -0.45 6.70 -0.55 9.05 -0.10 2.35 -0.35 5.25 -0.55 6.50 -0.20 1.25 -0.35 2.70 -0.35 3.25 -0.05 0.55 -0.45 1.05 -0.90 1.15 -0.70 0.15 -0.90 -0.15 -0.90 -1.35z"/>
  <path d="M615.25 426.90 c-0.50 -2.60 -0.70 -4.40 -1 -8.15 -0.50 -5.50 -0.50 -5.50 -2.85 -6.20 -1.20 -0.35 -2.95 -1.10 -3.95 -1.60 -1 -0.50 -1.95 -0.75 -2.15 -0.60 -0.55 0.60 -0.30 5 0.50 8.60 0.50 2.15 0.70 4.30 0.45 5.35 -0.40 2.35 -0.90 1.80 -1 -1.15 -0.05 -1.35 -0.40 -4.95 -0.75 -8.05 -0.35 -3.10 -0.50 -5.75 -0.30 -5.95 0.45 -0.45 4.15 0.85 9 3.15 0.80 0.40 1.70 0.70 2 0.70 0.35 0 0.60 1.60 0.70 4.30 0.05 2.35 0.35 5.20 0.60 6.35 0.25 1.15 0.50 2.70 0.50 3.50 0 1.95 -1.40 1.75 -1.75 -0.25z"/>
  <path d="M562 409.95 c0 -0.50 4.50 -2.65 4.85 -2.25 0.15 0.15 -0.90 0.80 -2.30 1.50 -1.40 0.65 -2.55 1 -2.55 0.75z"/>
  <path d="M559.25 408.90 c-0.15 -0.65 0.05 -2.25 0.50 -3.65 0.40 -1.35 0.75 -3 0.75 -3.65 0 -0.65 0.55 -2.35 1.20 -3.75 0.65 -1.45 1.35 -3.15 1.55 -3.85 0.20 -0.70 1.15 -2.80 2.05 -4.70 0.95 -1.85 1.70 -3.60 1.70 -3.85 0 -0.70 -5.55 -5.95 -6.30 -5.95 -0.85 0 -0.85 -0.25 -0.20 -1.55 0.65 -1.15 1.50 -1.25 1.50 -0.20 0 0.40 1.60 2.25 3.50 4.15 1.95 1.90 3.50 3.65 3.50 3.90 0 0.30 -0.55 1.60 -1.20 3 -2.15 4.45 -4.55 10.40 -5.30 13.20 -0.35 1.25 -0.80 2.75 -1.05 3.40 -0.25 0.65 -0.45 1.90 -0.45 2.85 0 2 -1.30 2.45 -1.75 0.65z"/>
  <path d="M641 408.25 c-7.05 -0.80 -9.50 -1.25 -9.50 -1.75 0 -0.20 -1.25 -0.40 -2.85 -0.45 -1.55 0 -3.05 -0.25 -3.35 -0.55 -0.25 -0.25 -1.25 -0.50 -2.15 -0.50 -0.90 0 -2.05 -0.20 -2.55 -0.45 -0.45 -0.25 -1.85 -0.75 -3.10 -1.10 -1.25 -0.35 -2.45 -0.80 -2.70 -1.05 -0.30 -0.20 -1 -0.40 -1.65 -0.40 -0.65 0 -1.15 -0.20 -1.15 -0.50 0 -0.25 -0.50 -0.50 -1.10 -0.50 -1.15 0 -13.55 -5.90 -13.80 -6.60 -0.10 -0.20 -0.40 -0.40 -0.60 -0.40 -0.45 0 -7.05 -4 -7.50 -4.50 -0.15 -0.20 -1.75 -1.40 -3.65 -2.70 -3.65 -2.60 -16.55 -15.15 -18.45 -17.95 -0.65 -0.95 -2.40 -3.35 -3.90 -5.40 -4.55 -6.10 -9.95 -15.55 -10 -17.45 0 -0.45 -0.20 -1 -0.40 -1.25 -0.25 -0.30 -0.95 -2.20 -1.60 -4.25 -0.65 -2.05 -1.35 -3.95 -1.55 -4.25 -0.15 -0.25 -0.60 -1.75 -0.90 -3.25 -0.35 -1.50 -0.80 -3.20 -1.05 -3.75 -0.25 -0.55 -0.55 -1.65 -0.75 -2.50 -0.15 -0.80 -0.45 -2 -0.60 -2.60 -0.15 -0.70 -0.05 -1.15 0.30 -1.15 0.30 0 0.55 0.30 0.55 0.70 0 2.50 6.55 21.75 9 26.50 3.90 7.45 7.50 13.20 10.10 16.05 0.50 0.55 2.60 2.90 4.65 5.25 4.40 4.95 3.50 4 8.60 8.80 2.25 2.10 5.15 4.50 6.50 5.35 1.35 0.90 3.20 2.20 4.15 2.95 2.45 1.85 12.55 7.40 17 9.30 7.95 3.40 19.85 6.65 28.75 7.80 3.30 0.45 7 0.95 8.25 1.20 1.25 0.25 4.95 0.25 8.25 0.05 3.30 -0.20 6.60 -0.20 7.40 -0.10 0.85 0.20 1.35 0.05 1.35 -0.35 0 -0.40 0.45 -0.55 1.25 -0.40 0.65 0.15 1.30 0.05 1.35 -0.20 0.10 -0.20 1.30 -0.50 2.65 -0.65 3.75 -0.35 18.45 -3.95 21.50 -5.25 0.55 -0.20 2.35 -0.95 4 -1.55 1.65 -0.65 3.95 -1.70 5.10 -2.30 1.15 -0.65 2.60 -1.15 3.20 -1.15 0.60 0 1 -0.15 0.80 -0.30 -0.15 -0.15 2.25 -2.05 5.35 -4.15 5.85 -3.90 7.65 -5.25 10.45 -7.70 0.90 -0.80 2.25 -1.90 3.05 -2.50 0.80 -0.60 2.40 -1.95 3.55 -2.95 1.15 -1.05 2.30 -1.90 2.55 -1.90 0.70 0 2.25 -2 1.95 -2.50 -0.15 -0.20 0.35 -0.90 1.10 -1.50 0.80 -0.60 1.30 -1.15 1.15 -1.20 -0.15 -0.05 0.60 -1.10 1.65 -2.30 1 -1.20 1.85 -2.35 1.85 -2.60 0 -0.20 0.35 -0.40 0.75 -0.40 0.45 0 0.75 -0.30 0.65 -0.60 -0.20 -0.80 2 -4.40 2.65 -4.40 0.30 0 0.40 -0.20 0.20 -0.45 -0.15 -0.25 0.10 -0.85 0.55 -1.25 0.40 -0.45 0.65 -0.80 0.45 -0.80 -0.15 0 0.40 -1 1.30 -2.25 0.90 -1.25 1.90 -2.25 2.30 -2.25 0.95 0 0.80 0.55 -0.85 3.15 -0.80 1.30 -1.50 2.50 -1.50 2.60 0 0.10 -1.05 1.80 -2.35 3.80 -1.35 1.95 -2.75 4.10 -3.20 4.75 -0.40 0.65 -1.55 2.05 -2.50 3.05 -0.95 1.05 -2.40 2.75 -3.15 3.80 -2.10 2.75 -16.10 14.85 -17.20 14.85 -0.25 0 -0.85 0.45 -1.35 1 -0.50 0.55 -1.15 1 -1.45 1 -0.25 0 -1.05 0.55 -1.75 1.20 -0.75 0.65 -2.65 1.90 -4.30 2.80 -1.65 0.90 -3.90 2.15 -5 2.70 -1.65 0.90 -5.25 2.40 -11.50 4.80 -7.95 3.05 -35.75 7.75 -35.75 6.05 0 -0.30 -0.35 -0.55 -0.75 -0.55 -0.40 0 -0.75 0.25 -0.75 0.50 0 0.60 -1.05 0.55 -8 -0.25z"/>
  <path d="M555 391.10 c0 -0.60 1.35 -3.80 3.05 -7.25 0.50 -1.10 0.95 -2.35 0.95 -2.90 0 -0.50 0.25 -0.95 0.50 -0.95 0.80 0 0.55 1.05 -0.75 3.75 -0.70 1.40 -1.25 2.75 -1.25 3.05 0 0.80 -2.50 5.10 -2.50 4.30z"/>
  <path d="M641.25 386.45 c-1.65 -0.20 -3.55 -0.60 -4.25 -0.90 -1 -0.45 -0.60 -0.50 1.75 -0.20 1.65 0.20 7.15 0.35 12.25 0.35 7.70 0 10.15 -0.20 14.75 -1.15 3.05 -0.65 6.10 -1.25 6.90 -1.40 0.75 -0.15 1.35 -0.50 1.35 -0.75 0 -0.25 0.25 -0.30 0.50 -0.15 0.65 0.40 4.65 -0.90 9 -2.90 1.80 -0.80 3.70 -1.65 4.25 -1.90 0.55 -0.25 1.75 -0.90 2.70 -1.50 0.90 -0.55 1.80 -0.90 1.90 -0.75 0.30 0.25 -3.60 2.80 -4.35 2.80 -0.25 0 -2.10 0.80 -4.10 1.80 -4.80 2.35 -9.45 3.70 -19.65 5.65 -5.90 1.15 -17.50 1.65 -23 1z"/>
  <path d="M629.85 384.45 c-3.80 -0.80 -8.05 -2.15 -14.85 -4.70 -2.05 -0.80 -7.45 -3.80 -11.05 -6.15 -6.95 -4.50 -15.65 -12.10 -18.45 -16.10 -0.70 -0.95 -1.85 -2.35 -2.55 -3.05 -1.25 -1.25 -4.15 -5.35 -4.20 -5.95 0 -0.15 -0.55 -0.85 -1.15 -1.50 -2.65 -2.75 -11.65 -23.50 -10.25 -23.50 0.15 0 0 -0.35 -0.35 -0.75 -0.35 -0.40 -0.50 -1.05 -0.35 -1.50 0.20 -0.40 0.10 -0.85 -0.15 -1 -0.25 -0.15 -0.35 -1 -0.15 -1.80 0.20 -1.05 0.05 -1.70 -0.40 -2 -0.55 -0.35 -0.70 -2.75 -0.80 -12.40 -0.10 -11.65 0.25 -15.05 1.45 -15.05 0.30 0 0.40 -0.45 0.25 -1 -0.15 -0.55 -0.05 -1 0.25 -1 0.30 0 0.40 -0.50 0.20 -1.15 -0.15 -0.70 0.10 -1.90 0.70 -2.95 0.50 -1 0.80 -2.25 0.65 -2.85 -0.15 -0.55 -0.05 -1.05 0.25 -1.05 0.25 0 0.45 -0.30 0.40 -0.60 -0.10 -1.15 2.30 -7.65 3.05 -8.25 0.40 -0.30 0.70 -0.75 0.70 -1 -0.05 -0.85 0.55 -2.15 1 -2.15 0.30 0 0.40 -0.20 0.25 -0.45 -0.20 -0.25 -0.15 -0.55 0.05 -0.65 0.25 -0.05 1.05 -1.40 1.85 -2.90 2.25 -4.35 4.80 -7.90 6.40 -9.05 0.80 -0.60 1.35 -1.15 1.20 -1.30 -0.40 -0.45 3.75 -5.60 4.75 -5.90 0.55 -0.20 1.95 -1.40 3.10 -2.65 3.40 -3.80 5.85 -6 7.65 -6.85 0.95 -0.45 1.70 -1 1.70 -1.25 0 -0.75 5 -3.10 5.85 -2.80 0.55 0.20 0.65 0.10 0.45 -0.45 -0.20 -0.50 0.25 -1.10 1.35 -1.80 3.50 -2.20 10.85 -5.45 15.60 -6.95 2.75 -0.85 5.70 -1.90 6.50 -2.25 1.70 -0.85 10.80 -2.25 14.25 -2.25 1.25 0 2.60 0.30 2.90 0.60 0.40 0.40 0.75 0.45 1 0.15 0.20 -0.30 1.15 -0.55 2.10 -0.60 2.80 -0.15 15 1.30 18 2.15 5.25 1.45 9.75 2.90 10.25 3.30 0.25 0.20 0.75 0.40 1.10 0.40 0.55 0 5.45 2.25 8.65 3.95 0.40 0.25 1.55 0.80 2.50 1.30 2.55 1.35 8.05 4.95 9.55 6.30 3 2.70 4.25 3.85 4.80 4.50 1 1.20 2.05 1.90 2.30 1.65 0.35 -0.35 6.85 6.80 6.85 7.55 0 0.30 0.50 0.85 1.15 1.20 1.10 0.60 6.95 9.10 7.25 10.55 0.10 0.40 0.50 1 0.90 1.30 2.20 1.75 7.45 16.60 9.25 26.45 0.90 4.80 0.95 23.60 0.05 25 -0.55 0.85 -0.60 0.70 -0.30 -1.15 0.80 -5.40 0.15 -24.10 -0.85 -24.10 -0.25 0 -0.45 -1 -0.45 -2.15 0 -1.20 -0.15 -2.35 -0.35 -2.55 -0.20 -0.15 -0.40 -0.70 -0.45 -1.20 -0.35 -2.20 -1.35 -5.90 -1.75 -6.30 -0.25 -0.30 -0.45 -1 -0.45 -1.65 0 -2.05 -5 -11.70 -9.45 -18.20 -6.10 -8.80 -11.85 -14.60 -21.15 -21.10 -1.80 -1.30 -3.70 -2.75 -4.20 -3.20 -0.50 -0.50 -0.95 -0.85 -1.05 -0.75 -0.30 0.30 -3.15 -1.10 -3.15 -1.50 0 -0.25 -0.20 -0.40 -0.50 -0.40 -0.25 0 -1.85 -0.65 -3.60 -1.45 -6.35 -2.90 -7.90 -3.55 -8.60 -3.55 -0.40 0 -0.90 -0.20 -1.05 -0.50 -0.15 -0.25 -0.95 -0.50 -1.80 -0.50 -0.80 0 -1.45 -0.20 -1.45 -0.50 0 -0.25 -0.80 -0.50 -1.80 -0.50 -0.95 0 -2.20 -0.25 -2.70 -0.50 -0.55 -0.30 -3.50 -0.80 -6.60 -1.10 -3.10 -0.30 -5.75 -0.70 -5.90 -0.85 -0.35 -0.45 -14 -0.35 -14 0.10 0 0.20 -0.75 0.35 -1.65 0.35 -1.90 0 -6.85 0.85 -9.10 1.50 -3.20 1 -8.05 2.60 -9 2.95 -4.95 2 -13.40 6.30 -16.10 8.10 -1.15 0.80 -2.30 1.45 -2.55 1.45 -0.25 0 -0.80 0.35 -1.15 0.80 -0.40 0.45 -1.50 1.35 -2.45 2 -2.35 1.55 -12.85 11.80 -15.60 15.25 -2 2.50 -3.95 5.35 -6.65 9.65 -1.80 3 -4.65 8.60 -5.25 10.55 -0.35 1.10 -0.80 2.20 -1.05 2.45 -0.25 0.30 -0.45 0.90 -0.45 1.40 0 0.50 -0.20 1.30 -0.50 1.80 -0.60 1.10 -2.05 6.30 -2.35 8.60 -0.10 0.95 -0.45 2.25 -0.75 2.85 -0.65 1.35 -0.85 16.35 -0.25 22.65 0.20 2.35 0.70 5.50 1.10 7 0.40 1.50 0.75 3.20 0.75 3.85 0 0.60 0.25 1.25 0.50 1.40 0.30 0.15 0.50 0.85 0.50 1.50 0 0.65 0.25 1.35 0.50 1.50 0.25 0.15 0.50 0.80 0.50 1.35 0 1.75 7.20 15.90 9.85 19.30 4.95 6.45 11.15 13.20 15.20 16.55 4.95 4.05 13.10 9.55 14.15 9.55 0.40 0 0.80 0.15 0.90 0.40 0.25 0.50 6.55 3.60 7.45 3.60 0.40 0 0.95 0.20 1.20 0.40 0.90 0.75 9.05 3 13.90 3.80 1 0.20 1.85 0.55 1.85 0.80 0 0.65 -0.35 0.60 -5.65 -0.55z"/>
  <path d="M693 374.60 c0 -0.20 0.75 -0.80 1.65 -1.35 0.85 -0.50 3.95 -2.70 6.85 -4.85 2.85 -2.15 5.35 -3.95 5.50 -4 0.40 -0.20 9.65 -11.05 10.50 -12.35 0.40 -0.65 1.30 -1.75 1.90 -2.55 2.25 -2.70 7.45 -13.05 9.30 -18.50 1.35 -4 3.30 -11.40 3.30 -12.70 0 -0.70 0.25 -1.40 0.50 -1.55 0.70 -0.40 0.65 1.85 -0.05 3.60 -0.60 1.45 -1.30 4.35 -1.70 6.80 -0.15 0.75 -0.55 2 -0.90 2.75 -0.40 0.75 -0.85 2.20 -1.05 3.20 -0.20 1 -0.50 1.90 -0.70 2 -0.45 0.20 -2.10 3.75 -2.10 4.45 0 1 -4.75 9.10 -6.10 10.35 -0.75 0.70 -1.25 1.45 -1.10 1.70 0.15 0.20 0 0.40 -0.25 0.40 -0.30 0 -0.55 0.25 -0.55 0.55 0 0.30 -0.90 1.50 -1.95 2.65 -1.80 1.90 -5.70 6.30 -7.60 8.60 -0.75 0.95 -2.05 1.95 -4.70 3.70 -0.80 0.55 -2.50 1.75 -3.75 2.70 -3.20 2.45 -7 4.85 -7 4.40z"/>
  <path d="M490.30 369.55 c-0.20 -0.25 0.90 -1.65 2.35 -3.15 6.55 -6.50 10.85 -10.55 10.85 -10.20 0 0.25 -1.95 2.40 -4.35 4.80 -2.45 2.40 -4.85 4.85 -5.40 5.45 l-0.95 1.10 6.70 -0.30 c3.70 -0.15 8.35 -0.40 10.25 -0.45 1.95 -0.10 5.55 -0.40 8 -0.70 2.50 -0.30 5.55 -0.50 6.90 -0.35 1.30 0.10 2.35 0 2.35 -0.20 0 -0.20 2.65 -0.55 5.90 -0.75 11.15 -0.65 14.35 -0.90 15.45 -1.35 l1.15 -0.40 -1.10 -2.15 c-0.55 -1.20 -1.60 -2.90 -2.25 -3.75 -1.15 -1.55 -1.30 -1.60 -3.80 -1.35 -5.35 0.55 -21.65 1 -22.35 0.65 -0.45 -0.25 1.15 -0.45 3.75 -0.45 2.50 -0.05 6.75 -0.15 9.50 -0.25 2.75 -0.15 6.90 -0.30 9.20 -0.35 l4.20 -0.15 2.65 4.25 c1.45 2.35 2.65 4.50 2.65 4.80 0.05 0.60 -2.20 1.05 -7.45 1.45 -1.50 0.15 -5.10 0.45 -8 0.75 -5.10 0.55 -9.25 0.75 -22.85 1.30 -3.65 0.15 -6.65 0.45 -6.65 0.70 0 0.20 -3.30 0.55 -7.35 0.70 -4.10 0.20 -7.75 0.45 -8.25 0.60 -0.45 0.15 -0.95 0 -1.10 -0.25z"/>
  <path d="M792.65 368.15 c-5.05 -0.10 -9.15 -0.35 -9.15 -0.55 0 -0.20 -5.70 -0.45 -12.65 -0.55 -6.90 -0.10 -12.80 -0.35 -13.10 -0.60 -0.25 -0.25 -2.65 -0.45 -5.30 -0.45 -2.70 0 -5 -0.20 -5.20 -0.45 -0.15 -0.25 0.30 -1.10 1.05 -1.90 0.70 -0.75 1.95 -2.65 2.70 -4.15 1.35 -2.65 3.50 -5.20 3.50 -4.15 0 0.30 -0.35 0.85 -0.85 1.20 -0.45 0.40 -1.20 1.65 -1.75 2.75 -0.50 1.15 -1.25 2.35 -1.65 2.70 -1.35 1.15 -0.90 2 1.15 2.05 1 0 2.30 0.10 2.85 0.20 3.75 0.70 14.30 1.25 28.25 1.55 8.95 0.20 16.75 0.50 17.30 0.75 0.60 0.20 1.55 0.25 2.10 0.10 0.55 -0.10 1.50 0.05 2.15 0.40 1.15 0.60 1.15 0.60 0.20 1 -0.55 0.20 -1.35 0.35 -1.75 0.30 -0.40 -0.05 -4.85 -0.15 -9.85 -0.20z"/>
  <path d="M808.50 367.60 c0 -0.50 -0.55 -1.45 -1.25 -2.10 -0.70 -0.65 -1.25 -1.45 -1.25 -1.80 0 -0.35 -0.80 -1.10 -1.80 -1.70 -1.80 -1.15 -3.25 -2.45 -15.70 -14.25 -7.15 -6.75 -11.30 -10.40 -16.25 -14.25 -1.55 -1.25 -3.85 -3.20 -5.10 -4.35 -2.35 -2.30 -2.95 -2.60 -2.45 -1.40 0.15 0.40 0.05 0.75 -0.20 0.75 -0.30 0 -0.50 0.60 -0.50 1.40 0 0.75 -0.40 2.45 -0.85 3.75 l-0.90 2.45 1.50 1.05 c4.20 3 17.25 16.50 17.25 17.90 0 0.25 -3.10 -2.65 -6.85 -6.45 -3.80 -3.80 -8.20 -8 -9.75 -9.30 -3.05 -2.55 -3.20 -3.05 -1.90 -6.05 0.25 -0.55 0.70 -2.30 1 -3.85 0.30 -1.60 0.75 -3 0.95 -3.15 0.85 -0.50 15.90 12.25 25.40 21.45 3.40 3.30 6.80 6.45 7.50 7 2.40 1.90 7.95 7.05 10.40 9.70 1.30 1.45 2.70 2.60 3.05 2.60 0.40 0 0.70 0.35 0.70 0.75 0 0.50 -0.50 0.75 -1.50 0.75 -1.10 0 -1.50 -0.25 -1.50 -0.90z"/>
  <path d="M765.50 356.40 c-2.90 -0.25 -5.90 -0.45 -6.75 -0.40 -1.15 0 -1.35 -0.10 -0.75 -0.50 1 -0.65 3.85 -0.65 4.25 0 0.20 0.30 3.85 0.50 9.15 0.55 5.40 0 8.45 0.20 7.85 0.45 -1.25 0.55 -6.85 0.50 -13.75 -0.10z"/>
  <path d="M504 355.05 c0 -0.30 1.20 -1.40 2.65 -2.50 1.40 -1.05 3.60 -3 4.85 -4.30 1.25 -1.30 3.40 -3.25 4.75 -4.40 1.70 -1.35 1.05 -0.55 -2 2.60 -4.75 4.85 -10.25 9.45 -10.25 8.60z"/>
  <path d="M519.85 354.60 c-0.75 -0.30 -0.75 -0.50 -0.25 -1.15 1.20 -1.45 4.80 -3.95 5.65 -3.95 0.50 0 0.75 -0.25 0.60 -0.70 -0.30 -0.80 2.75 -3.80 3.90 -3.80 0.45 0 0.75 -0.30 0.60 -0.60 -0.25 -0.75 5.30 -6.20 6.75 -6.70 0.55 -0.15 0.90 -0.55 0.75 -0.85 -0.55 -1.45 -1.35 -4.20 -1.55 -5.35 -0.15 -0.70 -0.55 -1.70 -0.95 -2.20 -0.70 -0.95 -0.90 -0.85 -4.65 2.25 -2.20 1.75 -5.25 4.50 -6.85 6.05 -1.60 1.60 -3.40 3.15 -4 3.45 -0.60 0.30 1.15 -1.60 3.90 -4.25 2.75 -2.65 5.30 -4.80 5.65 -4.80 0.30 0 0.60 -0.20 0.60 -0.40 0 -0.70 5.05 -4.60 5.95 -4.60 0.65 0 1.05 0.95 1.75 3.90 1.70 7.50 1.75 7.25 -1.30 9.50 -1.45 1.10 -5.45 4.85 -8.90 8.30 -3.45 3.45 -6.35 6.30 -6.50 6.25 -0.15 0 -0.65 -0.20 -1.15 -0.35z"/>
  <path d="M742.50 352.45 c-0.55 -0.35 -0.60 -0.60 -0.15 -0.75 0.35 -0.15 0.45 -0.60 0.30 -1 -0.15 -0.35 0.10 -0.85 0.55 -1 0.45 -0.15 0.75 -0.55 0.70 -0.90 -0.20 -0.80 2.20 -6.30 2.75 -6.30 0.25 0 0.35 -0.30 0.20 -0.70 -0.15 -0.40 -0.15 -0.80 0.05 -0.90 0.20 -0.10 0.75 -1.45 1.25 -3 0.50 -1.60 1.15 -2.90 1.40 -2.90 0.30 0 0.35 -0.20 0.20 -0.50 -0.15 -0.25 0.10 -0.50 0.60 -0.55 0.50 0 0.65 -0.15 0.30 -0.30 -0.85 -0.30 -0.80 -1.95 0.15 -5.20 0.85 -2.85 0.95 -3.25 1.40 -7.20 0.20 -1.35 0.45 -3.05 0.65 -3.75 0.15 -0.70 0.25 -1.65 0.20 -2.10 -0.05 -0.50 0.15 -0.90 0.45 -0.90 0.40 0 0.50 -0.55 0.30 -1.75 -0.20 -1.05 -0.15 -1.75 0.15 -1.75 0.30 0 0.40 -3.40 0.25 -9.35 -0.15 -5.20 -0.30 -10.25 -0.30 -11.25 0 -1.05 -0.20 -1.90 -0.45 -1.90 -0.25 0 -0.45 -0.45 -0.45 -1 0 -0.55 0.35 -1 0.75 -1 0.75 0 0.85 0.20 1 2.60 0.05 0.75 0.35 2 0.70 2.75 1.10 2.65 0.45 18.15 -1.15 27.65 -0.75 4.55 -1.60 9.15 -1.85 10.25 -1.25 4.95 -2.85 9.70 -4.75 14.10 -0.40 0.85 -0.70 1.80 -0.70 2.10 0 0.30 -0.50 1.35 -1.10 2.40 -0.60 1.05 -1.40 2.50 -1.75 3.30 -0.40 0.75 -0.75 1.35 -0.80 1.35 -0.05 0 -0.45 -0.25 -0.85 -0.55z"/>
  <path d="M545.80 320.15 c-1.25 -7.15 -1.80 -25.60 -0.85 -27.10 0.30 -0.45 0.50 2.30 0.55 7.50 0.10 8.60 0.15 8.80 0.75 16.60 0.35 4.90 0.15 6.45 -0.45 3z"/>
  <path d="M765.25 314 c-0.15 -0.20 -0.10 -0.80 0.05 -1.25 0.40 -0.95 0.50 -2.80 0.65 -7.80 l0.05 -3.35 2.40 -0.75 c3.20 -1.05 13.20 -6.05 16.50 -8.20 1.45 -1 2.75 -1.65 2.90 -1.55 0.30 0.35 -4.10 3.15 -7.70 4.95 -1.60 0.80 -3.20 1.65 -3.60 1.90 -1.40 0.90 -7.60 3.55 -8.30 3.55 -1.20 0 -1.75 1.90 -1.65 6 0.10 3.25 0.25 4 0.90 4 0.60 0 18.50 -8.55 23.15 -11.05 0.50 -0.25 1.20 -0.45 1.60 -0.45 0.40 0 0.80 -0.20 0.90 -0.45 0.10 -0.25 2.05 -1.45 4.40 -2.70 2.35 -1.25 6.40 -3.40 9 -4.80 2.60 -1.40 5.95 -3.15 7.40 -3.85 4.55 -2.15 3.45 -2.90 -8.15 -5.45 -2.20 -0.45 -5.80 -1.30 -8 -1.85 -2.20 -0.55 -5 -1.20 -6.25 -1.40 -3 -0.55 -10.95 -2.25 -15 -3.25 -1.80 -0.45 -3.70 -0.90 -4.25 -1 -1.90 -0.45 -8 -1.35 -8.85 -1.35 -0.50 0.05 -0.90 -0.15 -0.90 -0.45 0 -0.60 4.25 -0.60 5.40 0 0.45 0.25 2.10 0.70 3.60 1 1.50 0.30 4.35 0.85 6.25 1.30 1.95 0.45 4.65 1 6 1.25 6.60 1.20 8.15 1.55 10.50 2.20 1.35 0.45 5.20 1.35 8.50 2.05 3.30 0.75 8.20 1.85 10.85 2.55 2.65 0.65 5.65 1.20 6.60 1.20 3.20 0 2.30 0.85 -4.45 4.30 -2.75 1.40 -7.35 3.80 -10.25 5.30 -13.50 7.10 -30.75 15.85 -35.75 18.15 -3.40 1.55 -4.15 1.80 -4.50 1.25z"/>
  <path d="M531 312.50 c-1.25 -0.80 -2.55 -1.45 -2.90 -1.45 -0.35 -0.05 -2.60 -1.10 -5 -2.35 -2.40 -1.30 -7.15 -3.80 -10.60 -5.60 -3.45 -1.80 -7.80 -4.10 -9.75 -5.10 -7.50 -4.05 -9.65 -5.15 -13.50 -7.15 -2.20 -1.10 -4.55 -2.40 -5.25 -2.90 -0.70 -0.45 -1.80 -0.95 -2.50 -1 -0.70 -0.10 -1.30 -0.60 -1.40 -1.05 -0.15 -0.70 0.15 -0.90 1.35 -0.90 0.80 0 1.65 -0.20 1.80 -0.50 0.15 -0.25 0.55 -0.50 0.85 -0.50 0.30 0 0.20 0.40 -0.30 0.95 -0.80 0.85 -0.70 1 1.95 2.30 1.50 0.80 2.75 1.60 2.75 1.85 0 0.20 0.25 0.40 0.50 0.40 0.55 0 1.45 0.40 8.75 4.20 10.20 5.25 17.25 9.10 18.70 10.20 0.85 0.60 1.80 1.10 2.15 1.10 0.35 0 1.65 0.55 2.90 1.20 6.15 3.25 10.70 5.30 11 4.95 0.20 -0.20 0.50 -2.20 0.65 -4.40 l0.25 -4 -1.75 -1.10 c-0.95 -0.65 -1.95 -1.15 -2.20 -1.15 -0.25 0 -0.45 -0.20 -0.45 -0.50 0 -0.25 -0.30 -0.50 -0.65 -0.50 -1 0 -11.60 -5.35 -12.35 -6.25 -0.35 -0.40 -0.90 -0.75 -1.20 -0.75 -0.85 -0.05 -3.55 -2.40 -3.15 -2.80 0.30 -0.30 4.75 2.30 6 3.55 0.80 0.75 13 6.75 13.75 6.75 0.35 0 0.60 0.15 0.60 0.40 0 0.20 0.70 0.65 1.50 1 l1.50 0.70 0 5.95 c0 6.85 -0.10 6.90 -4 4.45z"/>
  <path d="M545 290.35 c0 -0.65 0.20 -1.35 0.45 -1.60 0.25 -0.30 0.55 -1.75 0.60 -3.25 0.10 -1.50 0.30 -2.95 0.45 -3.25 0.20 -0.25 0.60 -1.85 0.95 -3.50 0.35 -1.65 0.85 -3.50 1.10 -4.15 0.25 -0.65 0.45 -1.60 0.45 -2.15 0 -0.50 0.20 -1.35 0.45 -1.85 0.25 -0.45 0.70 -1.45 1.10 -2.20 0.60 -1.35 1.30 -1.60 0.85 -0.30 -0.15 0.35 -0.30 0.80 -0.35 1 -0.05 0.25 -0.40 1.25 -0.80 2.25 -1.10 2.90 -3.10 11.40 -3.75 16.05 -0.35 2.25 -0.80 4.10 -1.05 4.10 -0.25 0 -0.45 -0.50 -0.45 -1.15z"/>
  <path d="M784 288.65 c-1.80 -0.40 -3.70 -0.95 -4.25 -1.15 -0.55 -0.25 -2.70 -0.75 -4.75 -1.20 -7.25 -1.45 -10.75 -2.35 -11.15 -2.75 -0.25 -0.25 -0.50 -2.30 -0.60 -4.60 -0.20 -4.55 0.05 -4.45 0.65 0.30 0.35 2.90 0.40 3 2.10 3.35 0.95 0.20 4.70 1.05 8.25 1.90 3.60 0.85 7.40 1.75 8.50 2 4.05 0.95 5 1.35 5.15 2.15 0.20 0.95 0.35 0.95 -3.90 0z"/>
  <path d="M511.90 288.40 c-0.85 -0.55 0.80 -1.90 2.40 -1.90 0.65 0 1.75 -0.25 2.55 -0.55 1.85 -0.70 14.20 -3.30 17.55 -3.70 2.40 -0.25 2.65 -0.20 2.50 0.60 -0.10 0.70 -0.70 0.95 -2.40 1.05 -1.25 0.10 -2.45 0.35 -2.75 0.65 -0.25 0.25 -1.15 0.45 -2 0.45 -0.90 0 -1.75 0.15 -1.90 0.35 -0.20 0.15 -1.20 0.40 -2.25 0.50 -1 0.10 -3.35 0.60 -5.25 1.20 -4.75 1.40 -7.65 1.90 -8.45 1.35z"/>
  <path d="M753.15 284.65 c-0.35 -0.10 -0.45 -0.55 -0.30 -0.95 0.15 -0.40 0 -1.05 -0.35 -1.45 -0.35 -0.40 -0.50 -1.30 -0.40 -2 0.15 -0.70 0.10 -1.25 -0.05 -1.25 -0.55 0 -2.70 -7.35 -2.35 -7.95 0.20 -0.30 0.10 -0.55 -0.15 -0.55 -0.30 0 -0.55 -0.25 -0.55 -0.55 0 -1.80 -7.15 -17.05 -9.70 -20.70 -0.60 -0.80 -1.75 -2.65 -2.60 -4.05 -1.80 -2.95 -1.55 -2.65 -6 -7.95 -1.90 -2.20 -4.55 -5.05 -5.90 -6.35 -1.40 -1.30 -3.55 -3.35 -4.80 -4.60 -8.80 -8.60 -26.95 -18.65 -38.50 -21.35 -2.35 -0.55 -5.05 -1.20 -6 -1.45 -11.10 -3 -22.40 -3.85 -36.50 -2.75 -5.35 0.45 -5.05 0 0.50 -0.75 6.80 -0.90 14.35 -1 19 -0.25 2.35 0.40 6.05 0.90 8.25 1.20 5.15 0.60 11.75 1.95 12.85 2.55 0.50 0.30 1.40 0.50 2 0.50 1.25 0 4.65 1.10 5.20 1.65 0.20 0.20 0.70 0.35 1.10 0.35 1.05 0 3.80 1.20 11.10 4.90 7.55 3.80 8.50 4.35 14.30 8.40 4.35 3 16.70 14.75 19.65 18.70 0.70 0.95 1.90 2.40 2.65 3.25 3.55 3.90 13.40 22 14.25 26.25 0.15 0.85 0.50 1.65 0.70 1.80 0.25 0.15 0.45 0.90 0.45 1.65 0 0.75 0.20 1.55 0.40 1.80 0.65 0.75 2.70 9.90 2.50 11.05 -0.05 0.60 -0.40 0.95 -0.75 0.85z"/>
  <path d="M485.80 284.05 c0.50 -0.45 11.40 -3.20 13.05 -3.25 0.60 -0.05 1.25 -0.20 1.45 -0.40 0.20 -0.25 1 -0.40 1.75 -0.40 0.75 0 1.55 -0.20 1.70 -0.50 0.15 -0.25 0.95 -0.50 1.80 -0.50 0.80 0 1.45 -0.20 1.45 -0.45 0 -0.25 1.05 -0.55 2.40 -0.70 1.30 -0.15 4.25 -0.70 6.60 -1.30 2.35 -0.60 5.40 -1.30 6.75 -1.55 1.40 -0.30 4.75 -0.95 7.50 -1.55 2.75 -0.55 5.90 -1.15 6.95 -1.30 1.85 -0.25 1.95 -0.20 1.60 0.90 -0.50 1.50 -0.70 2.60 -1.05 5.60 -0.30 2.15 -0.40 2.30 -1.30 1.85 -0.55 -0.30 -0.85 -0.75 -0.70 -1 0.15 -0.25 0.35 -1.30 0.45 -2.35 0.10 -1.05 0.25 -2.10 0.30 -2.40 0.05 -0.25 0.10 -0.90 0.05 -1.45 -0.05 -0.65 -0.20 -0.80 -0.65 -0.40 -0.35 0.25 -1.30 0.60 -2.15 0.75 -0.80 0.15 -2.95 0.50 -4.75 0.80 -4.30 0.75 -9.75 1.90 -15.25 3.35 -2.45 0.60 -5.45 1.30 -6.60 1.45 -1.20 0.20 -2.25 0.55 -2.45 0.80 -0.15 0.25 -0.85 0.45 -1.60 0.45 -0.75 0 -2 0.35 -2.80 0.75 -0.75 0.40 -2.10 0.75 -3 0.75 -0.85 0 -2.35 0.25 -3.30 0.50 -8.30 2.15 -9 2.30 -8.20 1.55z"/>
  <path d="M552.45 263.55 c0.45 -1.30 1.20 -2.95 1.70 -3.60 0.80 -1.15 0.80 -1.10 0.15 0.85 -0.75 2.25 -2.20 5.20 -2.55 5.20 -0.10 0 0.20 -1.10 0.70 -2.45z"/>
  <path d="M555 258.15 c0 -0.30 0.25 -0.75 0.50 -0.90 0.30 -0.15 0.50 -0.70 0.50 -1.15 0 -0.85 1.95 -3.75 2 -2.95 0 0.40 -1.60 3.60 -2.45 4.85 -0.35 0.45 -0.55 0.50 -0.55 0.15z"/>
  <path d="M542.10 256.15 c-0.55 -1.05 -1.45 -2.35 -2.05 -2.85 -0.60 -0.55 -1.05 -1.20 -1.05 -1.45 0 -0.30 -0.40 -1 -0.95 -1.55 -0.50 -0.60 -2.85 -3.85 -5.15 -7.30 -6.20 -9.20 -12.45 -18.20 -15.90 -22.90 -1.65 -2.30 -3 -4.25 -3 -4.40 0 -0.30 -3.55 -4.85 -4.55 -5.85 -0.50 -0.45 -0.80 -1.20 -0.65 -1.60 0.40 -1.05 2.20 0 2.20 1.25 0 0.55 0.20 1 0.45 1 0.25 0 0.55 0.40 0.75 0.90 0.35 1.10 1.25 2.40 2.75 4.05 1.15 1.30 2.60 3.35 6.55 9.30 1.10 1.65 2.25 3.35 2.60 3.75 0.35 0.40 1.50 2.05 2.55 3.65 1 1.60 2.30 3.40 2.85 3.95 0.55 0.60 1.15 1.50 1.30 2.05 0.15 0.55 1.20 2.10 2.25 3.55 1.05 1.40 1.95 2.85 1.95 3.20 0 0.30 0.20 0.60 0.45 0.60 0.35 0 2.05 2.30 6.30 8.50 0.55 0.80 1.15 1.45 1.30 1.50 0.15 0 0.85 -1.10 1.50 -2.50 0.65 -1.35 1.35 -2.50 1.60 -2.50 0.20 0 0.30 -0.20 0.10 -0.50 -0.15 -0.25 0.15 -0.90 0.70 -1.45 1 -1 1 -1 -0.10 -2.40 -0.60 -0.75 -1.25 -1.45 -1.45 -1.55 -0.25 -0.10 -0.40 -0.40 -0.40 -0.65 0 -0.20 -0.70 -1.45 -1.60 -2.70 -0.85 -1.20 -1.45 -2.35 -1.25 -2.55 0.50 -0.50 1.25 0.25 3.15 3.20 1.05 1.55 2.40 3.45 3.10 4.15 l1.20 1.35 -2.70 5.15 c-1.45 2.80 -2.90 5.20 -3.25 5.30 -0.35 0.15 -1.05 -0.65 -1.55 -1.70z"/>
  <path d="M755.35 257.65 c-0.20 -0.15 -0.35 -0.70 -0.35 -1.15 0 -0.90 -0.70 -2.60 -2.80 -6.70 l-1.20 -2.40 1.35 -1.65 c0.80 -0.95 2.25 -2.85 3.35 -4.25 1.05 -1.40 2.05 -2.45 2.15 -2.30 0.25 0.25 -2.10 3.45 -4.25 5.80 -1.35 1.50 -1.20 2.95 0.65 6.70 0.70 1.40 1.25 2.80 1.25 3.15 0 1.30 0.95 0.55 3.25 -2.60 1.35 -1.80 2.60 -3.25 2.85 -3.25 0.25 0 0.35 -0.20 0.15 -0.45 -0.15 -0.25 0.35 -0.95 1.05 -1.50 0.75 -0.60 1.20 -1.05 1 -1.05 -0.20 0 0.80 -1.40 2.15 -3.10 1.40 -1.75 2.90 -3.85 3.30 -4.75 0.45 -0.90 1.45 -2.15 2.25 -2.75 0.80 -0.55 1.35 -1.25 1.20 -1.50 -0.15 -0.20 0.05 -0.40 0.45 -0.40 0.50 0 0.65 -0.35 0.50 -0.90 -0.15 -0.60 0.20 -1.15 1.05 -1.55 0.70 -0.40 1.15 -0.90 1 -1.10 -0.10 -0.20 0.25 -0.70 0.80 -1.10 0.55 -0.35 0.85 -0.85 0.70 -1 -0.20 -0.20 0.05 -0.45 0.50 -0.65 0.45 -0.15 0.80 -0.60 0.80 -1 0 -0.40 0.25 -0.70 0.55 -0.70 0.25 0 0.40 -0.20 0.25 -0.45 -0.15 -0.20 0.20 -0.85 0.75 -1.35 0.55 -0.50 1.45 -1.70 2.05 -2.65 0.60 -1 1.35 -2.15 1.75 -2.55 1.50 -1.70 3.15 -3.90 3.15 -4.20 0 -0.15 0.80 -1.35 1.75 -2.60 1 -1.30 1.70 -2.45 1.55 -2.55 -0.20 -0.20 -10.60 2.40 -12.40 3.10 -0.55 0.20 -0.90 0.15 -0.90 -0.20 0 -0.30 0.15 -0.55 0.40 -0.55 0.20 0 2.05 -0.50 4.10 -1.05 2.05 -0.60 4.75 -1.25 6 -1.45 1.25 -0.25 3 -0.60 3.90 -0.80 1.40 -0.30 1.60 -0.20 1.60 0.75 0 0.55 -0.15 1.05 -0.35 1.05 -0.25 0.05 -1.20 1.20 -2.15 2.55 -0.95 1.40 -2.30 3.30 -3 4.20 -0.70 0.90 -2.50 3.35 -4 5.45 -1.50 2.10 -2.90 3.80 -3.10 3.80 -0.20 0 -0.40 0.45 -0.40 1 0 0.55 -0.15 1 -0.40 1 -0.35 0 -6.60 8.10 -9.90 12.85 -0.80 1.10 -2.85 3.95 -4.60 6.25 -1.70 2.25 -3.30 4.40 -3.50 4.65 -1.35 1.85 -5.30 6.25 -5.60 6.25 -0.15 0 -0.50 -0.15 -0.65 -0.35z"/>
  <path d="M558.10 252.15 c0.70 -1.60 4.25 -7.15 4.55 -7.15 0.35 0 -0.50 1.60 -3.05 5.65 -1.05 1.60 -2 2.55 -1.50 1.50z"/>
  <path d="M563 244.10 c0 -0.25 0.50 -0.85 1.05 -1.40 1.10 -0.95 1.10 -0.95 0.50 0.15 -0.60 1.20 -1.55 1.95 -1.55 1.25z"/>
  <path d="M565 241.25 c0 -0.30 0.65 -1.15 1.40 -2 0.75 -0.80 1.70 -1.95 2.10 -2.55 2.60 -3.75 9.10 -9.65 17.25 -15.65 3.05 -2.20 5.75 -4.20 6 -4.45 0.30 -0.20 1.35 -0.90 2.40 -1.50 3.40 -2 2.70 -1.15 -1.25 1.45 -2.15 1.45 -3.90 2.80 -3.90 3 0 0.25 -0.30 0.45 -0.60 0.45 -0.75 0 -1.75 0.80 -8.85 6.75 -5.15 4.35 -10.55 9.55 -10.55 10.20 -0.05 0.50 -4 4.80 -4 4.30z"/>
  <path d="M539.95 235.90 c-0.85 -1.20 -1.85 -2.90 -2.20 -3.75 -0.40 -0.90 -0.90 -1.65 -1.15 -1.65 -0.45 0 -2.10 -3.15 -2.10 -4 0 -1.75 2.60 1.60 7.05 9.15 1.85 3.10 0.60 3.25 -1.60 0.25z"/>
  <path d="M759.95 235.15 c4.15 -6.20 5.05 -7.75 5.05 -8.50 0 -0.55 -0.25 -0.65 -0.85 -0.40 -0.50 0.20 -1.80 0.55 -2.90 0.80 -1.10 0.25 -3.95 0.80 -6.35 1.30 -2.40 0.50 -4.50 1.10 -4.70 1.30 -0.20 0.20 -1.10 0.35 -2 0.35 -0.90 0 -1.75 0.20 -1.90 0.45 -0.30 0.45 -1.65 0.75 -5.30 1.25 -1.65 0.25 -1.95 0.05 -5.35 -3.75 -2 -2.20 -3.65 -4.15 -3.65 -4.35 0 -0.40 2.50 -1.25 9 -2.95 6.80 -1.80 19.50 -5 24.50 -6.20 2.35 -0.55 5.05 -1.20 6 -1.40 0.95 -0.25 2.55 -0.60 3.50 -0.80 l1.75 -0.30 -1.65 0.75 c-0.90 0.40 -2.80 1 -4.25 1.30 -1.40 0.30 -4.05 0.85 -5.85 1.20 -1.80 0.40 -4.50 1 -6 1.45 -6.85 1.95 -14.95 4 -17 4.35 -1.25 0.20 -3.60 0.85 -5.25 1.45 -1.60 0.60 -3.05 1.05 -3.10 1.05 -0.10 0 -0.15 0.20 -0.15 0.40 0 0.60 5.90 6.60 6.50 6.60 0.25 0 1.35 -0.30 2.35 -0.70 2.45 -0.90 6.05 -1.85 13.15 -3.45 8.95 -2.05 8.85 -2.05 9.45 -0.90 0.30 0.55 0.55 1.30 0.55 1.70 0 0.90 -6.45 10.85 -7.05 10.85 -0.20 0 0.45 -1.30 1.50 -2.85z"/>
  <path d="M560.30 231.60 c-0.20 -0.35 -1 -0.60 -1.85 -0.60 -0.80 0 -1.45 -0.20 -1.45 -0.45 0 -0.25 -0.50 -0.55 -1.10 -0.70 -0.65 -0.15 -2.05 -0.55 -3.15 -0.85 -1.10 -0.35 -3.10 -0.80 -4.50 -1.05 -1.35 -0.20 -3.75 -0.65 -5.25 -0.95 -1.50 -0.30 -3.60 -0.70 -4.60 -0.85 -1.10 -0.15 -1.90 -0.55 -1.90 -0.90 0 -1.20 0.90 -1.30 4.10 -0.55 3.60 0.85 5.55 1.25 7.60 1.55 2.60 0.45 5.50 1.30 7.65 2.30 3.50 1.55 4.40 1.30 7.70 -2.05 1.65 -1.70 2.95 -3.25 2.95 -3.45 0 -0.25 -1.20 -0.70 -2.60 -0.95 -1.45 -0.30 -3.45 -0.75 -4.40 -1 -4.20 -1.20 -7.50 -2.10 -8.60 -2.30 -0.60 -0.15 -1.80 -0.45 -2.65 -0.75 -3.30 -1.05 -12.70 -3.55 -15.50 -4.10 -1.65 -0.30 -3.45 -0.80 -4 -1.10 -0.55 -0.30 -1.65 -0.60 -2.45 -0.70 -0.80 -0.10 -3.30 -0.60 -5.55 -1.15 -2.30 -0.55 -4.80 -1 -5.55 -1 -1.65 -0.05 -4.05 -1.20 -3.35 -1.65 0.25 -0.15 0.75 -0.10 1.15 0.20 0.40 0.25 1.60 0.45 2.60 0.45 1 0 2 0.25 2.15 0.50 0.15 0.30 0.80 0.50 1.35 0.50 0.60 0 1.75 0.20 2.60 0.45 0.85 0.30 3.15 0.80 5.05 1.20 4.60 1 29.05 7.25 36.50 9.35 0.85 0.25 2.05 0.60 2.75 0.80 1.40 0.40 2.50 1.15 2.50 1.70 0 0.20 -1.75 2.25 -3.90 4.55 -2.60 2.70 -4.05 3.95 -4.30 3.55z"/>
  <path d="M597.20 213.60 c0.15 -0.25 1 -0.75 1.90 -1.10 0.90 -0.40 2.25 -1.10 3.05 -1.65 0.75 -0.50 1.65 -0.85 1.95 -0.75 0.35 0.15 -0.70 0.95 -2.30 1.80 -3.35 1.80 -5.05 2.45 -4.60 1.70z"/>
  <path d="M720.80 212.05 c-0.55 -0.60 -1.15 -1.05 -1.40 -1.05 -0.50 0 -4.50 -2.70 -5.95 -4 -0.70 -0.65 -0.75 -1.15 -0.40 -3.25 0.70 -3.80 1.45 -9.95 1.95 -15.50 0.20 -2.75 0.65 -5.65 0.95 -6.50 0.50 -1.35 0.50 -1.25 0.30 1 -0.60 6.50 -1.85 17.75 -2.20 19.80 -0.30 1.95 -0.25 2.50 0.65 3.55 1.35 1.65 5.45 3.75 5.70 2.95 0.10 -0.30 0.45 -0.85 0.75 -1.20 0.35 -0.30 0.65 -1.60 0.70 -2.85 0.05 -1.20 0.25 -2.30 0.50 -2.35 0.25 -0.10 0.35 -0.85 0.25 -1.65 -0.10 -0.85 0 -1.50 0.30 -1.50 0.30 0 0.45 -0.75 0.30 -1.75 -0.10 -0.95 -0.05 -1.75 0.20 -1.75 0.20 0 0.35 -0.80 0.35 -1.75 -0.05 -0.95 0.10 -1.75 0.35 -1.75 0.25 0 0.35 -0.15 0.20 -0.40 -0.10 -0.20 0 -1.35 0.20 -2.60 0.25 -1.25 0.70 -4.70 1 -7.75 0.30 -3 0.75 -5.60 1 -5.75 0.25 -0.15 0.45 -0.70 0.45 -1.25 0 -0.55 0.10 -1.80 0.20 -2.75 0.15 -0.95 0.25 -2.50 0.30 -3.35 0.05 -1.20 0.30 -1.65 0.95 -1.70 0.50 0 0.60 -0.15 0.25 -0.30 -0.70 -0.25 -0.90 -3.65 -0.25 -3.65 0.20 0 0.40 -2.05 0.45 -4.50 0 -2.50 -0.10 -4.50 -0.25 -4.50 -0.15 0 -0.90 0.55 -1.60 1.20 -0.70 0.70 -2.60 2.55 -4.25 4.15 -1.65 1.60 -4.10 3.80 -5.50 4.90 -1.35 1.10 -3.05 2.55 -3.70 3.25 -0.70 0.70 -1.75 1.60 -2.35 2 -2 1.40 -6.80 5.75 -10.25 9.25 -1.85 1.90 -3.50 3.35 -3.65 3.20 -0.35 -0.35 6.55 -7.05 10.95 -10.70 3.80 -3.20 4.45 -3.75 10.50 -9.35 5.65 -5.25 11.05 -9.95 12.05 -10.55 0.45 -0.25 0.70 -0.15 0.70 0.15 0 0.35 -0.45 0.70 -1 0.85 -1.20 0.30 -1.30 0.95 -0.20 1.35 0.70 0.25 0.75 0.85 0.50 3.70 -0.75 7.35 -1.90 15.55 -2.65 19.10 -0.45 2.05 -1 5.55 -1.20 7.75 -0.20 2.20 -0.80 6.35 -1.35 9.25 -0.50 2.90 -0.85 5.45 -0.70 5.70 0.10 0.20 0 0.55 -0.25 0.75 -0.25 0.15 -0.90 2.65 -1.40 5.50 -0.50 2.90 -1.05 5.80 -1.20 6.45 l-0.35 1.20 -0.90 -1.05z"/>
  <path d="M580.85 211.35 c-0.15 -0.40 -0.45 -1.80 -0.60 -3.15 -0.20 -1.35 -0.55 -2.65 -0.70 -2.95 -0.20 -0.25 -0.40 -1.15 -0.45 -2 -0.05 -0.80 -0.55 -4.20 -1.05 -7.50 -0.55 -3.30 -1.10 -7.25 -1.25 -8.75 -0.15 -1.50 -0.45 -4.30 -0.60 -6.25 -0.20 -1.90 -0.50 -3.60 -0.75 -3.75 -0.30 -0.20 -0.60 -2.95 -1.20 -11 -0.15 -2.50 -0.50 -5.50 -1.10 -10.65 -0.25 -1.90 -0.30 -3.50 -0.10 -3.65 0.20 -0.10 1.20 0.65 2.25 1.70 1.10 1.05 2.85 2.55 3.95 3.35 1.10 0.80 4.40 3.85 7.35 6.75 3 2.90 5.70 5.35 6 5.45 0.35 0.10 2.15 1.55 3.95 3.25 1.80 1.65 4.70 4.30 6.45 5.80 1.70 1.50 4.85 4.45 6.95 6.50 2.15 2.05 5.25 4.90 6.95 6.25 1.70 1.40 3.10 2.65 3.10 2.80 0 0.40 -1.90 1.25 -4.50 1.95 -2.30 0.65 -4.10 1.30 -5.60 2.05 -1.60 0.80 -2.20 0.50 -5.30 -2.65 -7.35 -7.50 -14.50 -14 -16.85 -15.30 -0.95 -0.55 -0.95 -0.55 0.15 -0.60 1.40 0 4.95 2.40 5.35 3.60 0.15 0.45 0.70 0.95 1.15 1.10 0.50 0.15 3.65 3 7.05 6.35 3.40 3.30 6.45 5.90 6.75 5.80 0.30 -0.10 2.20 -0.75 4.25 -1.40 2 -0.65 3.80 -1.50 3.90 -1.85 0.35 -0.85 -1 -2.30 -4.45 -4.75 -1.60 -1.10 -2.90 -2.15 -2.90 -2.35 0 -0.40 -5.60 -6 -8.40 -8.35 -5.50 -4.65 -6.40 -5.45 -6.75 -6 -0.20 -0.35 -0.65 -0.65 -0.90 -0.65 -0.30 0 -2.30 -1.75 -4.50 -3.90 -7.25 -7.10 -10.10 -9.60 -10.90 -9.60 -0.30 0 -1 -0.65 -1.65 -1.50 -0.60 -0.85 -1.25 -1.50 -1.45 -1.50 -0.75 0 -0.95 1.70 -0.45 3.55 0.30 1.05 0.85 5.35 1.25 9.55 0.40 4.20 1.05 10 1.45 12.90 0.45 2.90 1 7.45 1.30 10.20 0.30 2.70 0.75 5.30 1 5.75 0.25 0.45 0.70 3.15 1 6.05 0.60 5.60 1.15 7.50 2.05 7.50 0.30 0 1.40 -0.65 2.45 -1.50 1.05 -0.80 2.10 -1.50 2.40 -1.50 0.25 0 0.85 -0.60 1.35 -1.30 0.65 -1 0.70 -1.60 0.35 -2.60 -0.85 -2.20 -1.25 -5.60 -1.30 -10.20 -0.05 -2.45 -0.20 -4.40 -0.40 -4.40 -0.25 0 -0.40 -1.80 -0.40 -4 0 -3.05 0.15 -4 0.70 -4 0.50 0 0.75 1.30 0.95 5.40 0.35 5.65 0.90 10.25 2 16.80 l0.70 3.90 -4.25 2.75 c-5.05 3.25 -5.40 3.40 -5.75 2.50z"/>
  <path d="M605 209.70 c0 -0.30 4.90 -2.45 7.25 -3.15 1.10 -0.35 2.45 -0.80 3 -1.05 0.55 -0.20 2 -0.65 3.25 -1 1.25 -0.35 2.80 -0.80 3.50 -1 0.70 -0.25 2.50 -0.70 4 -1.05 1.50 -0.30 3.40 -0.75 4.20 -1 0.80 -0.25 2.05 -0.45 2.75 -0.40 1.25 0.05 1.25 0.05 -0.20 0.45 -0.80 0.25 -2.85 0.75 -4.50 1.15 -6.25 1.50 -11.55 2.90 -12.50 3.30 -0.55 0.20 -2.10 0.80 -3.50 1.30 -1.35 0.45 -3.55 1.25 -4.85 1.75 -1.35 0.50 -2.40 0.80 -2.40 0.70z"/>
  <path d="M694 197.50 c0 -0.25 -0.65 -0.50 -1.50 -0.50 -0.80 0 -1.50 -0.20 -1.50 -0.50 0 -0.25 -0.75 -0.50 -1.70 -0.50 -0.95 0 -1.90 -0.20 -2.05 -0.50 -0.15 -0.25 -0.80 -0.50 -1.45 -0.50 -0.60 0 -1.30 -0.15 -1.45 -0.35 -0.55 -0.50 9.40 -11.15 11.40 -12.25 0.55 -0.30 -1.30 1.80 -4.10 4.60 -2.85 2.85 -5.15 5.30 -5.15 5.50 0 1.05 4.80 3 7.40 3 1.15 0 5.70 -3.80 12.70 -10.60 1.65 -1.60 3.50 -3.05 4.15 -3.20 0.65 -0.15 1.55 -0.85 2 -1.50 0.40 -0.65 1.10 -1.20 1.50 -1.20 1.45 0 0.70 1.45 -1.60 3.30 -5.95 4.75 -15.65 13.95 -15.65 14.90 0 0.55 -0.45 0.80 -1.50 0.80 -0.80 0 -1.50 -0.20 -1.50 -0.50z"/>
  <path d="M667.25 191.45 c-1.10 -0.20 -2.95 -0.40 -4.10 -0.40 -2.05 -0.05 -2.15 -0.10 -2.15 -1.55 0 -0.80 -0.20 -1.50 -0.50 -1.50 -0.25 0 -0.50 -0.75 -0.50 -1.60 0 -1.65 -1 -5.05 -1.65 -5.70 -0.20 -0.20 -0.35 -0.85 -0.35 -1.45 0 -1.90 -4.55 -12.25 -6.10 -13.95 -0.80 -0.90 -0.90 -0.90 -0.90 -0.15 0 0.45 -0.20 0.85 -0.50 0.85 -0.25 0 -0.50 0.55 -0.50 1.25 0 1.15 -0.25 1.95 -1.80 5.50 -0.35 0.85 -1.20 3.30 -1.90 5.50 -0.75 2.20 -1.55 4.40 -1.80 4.85 -0.30 0.50 -0.50 1.35 -0.50 1.85 0 0.55 -0.20 1.15 -0.50 1.30 -0.25 0.15 -0.50 1.05 -0.50 2 0 1.80 -0.60 2.45 -2.25 2.55 -2.65 0.15 -7.15 0.30 -8.35 0.25 -1.90 -0.05 -1.80 -1.10 0.40 -7.30 0.95 -2.75 2.10 -6.10 2.55 -7.50 1.90 -6.10 3.80 -11.65 4.60 -13.50 0.50 -1.10 1.20 -3.05 1.60 -4.35 0.35 -1.35 0.85 -2.40 1.05 -2.40 0.45 0 -0.80 4.25 -2.20 7.40 -0.55 1.30 -1.20 3.15 -1.45 4.10 -0.20 0.95 -0.75 2.90 -1.20 4.25 -0.50 1.40 -1.05 3.20 -1.35 4 -1.65 5.20 -4.20 12.05 -4.50 12.15 -0.25 0.10 -0.40 0.50 -0.40 0.85 0 0.80 2.55 1.50 2.95 0.80 0.20 -0.25 1.65 -0.55 3.25 -0.65 3.25 -0.15 3.45 -0.35 4.30 -3.75 0.35 -1.45 0.80 -2.15 1.40 -2.20 0.45 0 0.60 -0.15 0.30 -0.25 -0.60 -0.25 -0.50 -1.50 0.25 -3.45 0.95 -2.40 1.65 -4.60 1.90 -5.60 0.15 -0.65 0.45 -1.15 0.70 -1.15 0.20 0 0.40 -0.40 0.40 -0.85 0 -1.35 1.60 -6.80 2.20 -7.55 0.25 -0.35 0.80 -0.55 1.10 -0.40 0.35 0.10 0.90 -0.05 1.20 -0.35 0.30 -0.30 0.60 -0.45 0.75 -0.30 0.55 0.65 5.20 11.05 5.75 12.95 0.35 1.25 1.05 3.40 1.55 4.75 0.50 1.40 1.05 3.25 1.20 4.15 0.80 4.35 0.90 4.60 2 4.60 2.55 0.10 6.10 0.35 6.80 0.55 1.10 0.30 0.90 -0.95 -1.15 -7.55 -0.95 -3.15 -2.05 -6.75 -2.35 -8 -0.35 -1.20 -1 -3.10 -1.50 -4.25 -1.15 -2.50 -1.75 -4.35 -1.55 -4.95 0.05 -0.25 -0.10 -0.60 -0.35 -0.75 -0.25 -0.15 -1.40 -3.20 -2.60 -6.80 -1.20 -3.55 -3.05 -8.85 -4.10 -11.75 -1.10 -2.90 -2 -5.70 -2.05 -6.25 0 -0.55 -0.20 -1.10 -0.40 -1.25 -0.65 -0.45 -1.10 -4 -0.50 -4 0.55 0 2.05 3.10 2.05 4.30 0 0.40 0.40 1.65 0.95 2.85 0.50 1.15 1.30 3.25 1.70 4.60 0.45 1.40 1.75 5.10 2.85 8.25 1.15 3.15 2.60 7.45 3.30 9.50 0.65 2.05 1.45 4.25 1.70 4.90 1.15 2.65 1.50 3.65 3.15 9.10 3.25 10.70 3.55 11.85 3.40 13.40 -0.05 0.65 -1.75 0.70 -4.80 0.05z"/>
  <path d="M643.25 154.40 c0.20 -0.65 0.45 -1.90 0.60 -2.75 0.15 -0.90 0.40 -1.65 0.60 -1.65 0.20 0 0.65 -1.05 1 -2.35 0.40 -1.35 0.85 -2.60 1.05 -2.90 0.30 -0.40 3.40 -9.20 4.80 -13.70 0.30 -0.95 1 -0.15 1.40 1.55 0.25 1.15 0.15 1.40 -0.65 1.40 -0.85 0 -1.65 1.40 -2.30 4 -0.05 0.15 -0.20 0.60 -0.40 1 -0.75 1.85 -1.85 5.60 -1.85 6.25 0 0.40 -0.20 0.75 -0.50 0.75 -0.25 0 -0.50 0.45 -0.50 1 0 0.55 -0.20 1 -0.45 1 -0.25 0 -0.55 0.60 -0.70 1.40 -0.70 3.45 -1.55 6.10 -2 6.10 -0.25 0 -0.30 -0.50 -0.10 -1.10z"/>
 </g>
</svg>