<?xml version="1.0" encoding="utf-8"?>
<!DOCTYPE svg PUBLIC "-//W3C//DTD SVG 1.0//EN" "http://www.w3.org/TR/2001/REC-SVG-20010904/DTD/svg10.dtd">
<svg version="1.0" xmlns="http://www.w3.org/2000/svg" width="1024px" height="1024px" viewBox="0 0 1024 1024" preserveAspectRatio="xMidYMid meet">
 <g fill="#1789e9">
  <path d="M253.75 808.35 c-5.30 -1.05 -6.70 -1.50 -9.15 -3 -5.50 -3.30 -9.25 -8.30 -10.90 -14.50 -0.55 -2.15 -0.70 -15.15 -0.70 -75.35 0 -49.05 0.20 -73.40 0.55 -74.75 1 -3.85 3.55 -8.15 6.60 -11.20 3.50 -3.45 7.75 -6.05 8.35 -5.05 0.20 0.35 0.65 0.50 0.95 0.30 0.30 -0.20 1.85 -0.70 3.40 -1.15 2.60 -0.70 12.90 -0.80 96.75 -0.80 60.40 0 94.10 0.15 94.50 0.50 0.35 0.25 1.60 0.80 2.80 1.15 1.20 0.35 2.35 1.05 2.60 1.55 0.25 0.45 1.05 1 1.70 1.15 0.70 0.15 2.70 1.70 4.45 3.45 1.75 1.70 4.60 4.40 6.40 5.95 1.75 1.60 6.45 6.10 10.45 10 4 3.90 7.60 7.35 8.05 7.65 1.35 0.80 7.80 6.15 10 8.25 1.15 1.05 2.35 1.80 2.70 1.70 0.90 -0.35 3.55 5.30 4 8.45 0.15 1.35 0.30 28 0.30 59.25 0 62.10 0.10 58.95 -2.90 64.40 -1.90 3.40 -6.40 7.75 -9.65 9.35 -6.40 3.10 1.60 2.90 -119.10 3 -60.60 0.05 -111.05 -0.10 -112.15 -0.30z m208.75 -20.80 c0 -0.30 -0.45 -0.80 -1.05 -1.20 -1.15 -0.80 -7.10 -6.20 -14.20 -12.85 -4.10 -3.80 -11.25 -10.35 -24.50 -22.20 -2.45 -2.25 -5.75 -5.20 -7.25 -6.55 -1.50 -1.40 -4.45 -3.95 -6.50 -5.75 -2.05 -1.80 -3.85 -3.35 -4 -3.50 -0.15 -0.15 -1.65 -1.45 -3.40 -2.90 l-3.10 -2.70 -5.50 5.40 c-9.95 9.80 -16.05 12.75 -26.25 12.85 -10.55 0.05 -16.60 -3 -27.85 -13.95 l-4.35 -4.30 -3.10 2.70 c-5.95 5.10 -29.80 27 -47.45 43.45 -4.60 4.25 -9.15 8.55 -10.15 9.45 -1.05 0.90 -1.85 1.85 -1.85 2.10 0 0.20 42.85 0.40 95.25 0.40 59.35 0 95.25 -0.20 95.25 -0.45z m-206.05 -14.15 c1.25 -1.10 5.35 -4.90 9.05 -8.40 3.70 -3.45 8 -7.40 9.50 -8.80 1.50 -1.35 4.30 -3.95 6.25 -5.75 1.90 -1.80 4.65 -4.30 6 -5.50 1.40 -1.20 3.85 -3.45 5.50 -5 1.65 -1.55 4.25 -3.90 5.75 -5.20 1.50 -1.30 4.35 -3.85 6.25 -5.65 1.95 -1.85 5.85 -5.45 8.65 -8.05 2.85 -2.55 5.10 -4.85 5 -5 -0.10 -0.20 -4.55 -4.35 -9.90 -9.30 -13.40 -12.25 -34.15 -31.45 -40.50 -37.50 -8.95 -8.50 -14 -12.90 -14.40 -12.55 -0.40 0.45 -0.70 115.35 -0.30 117.45 0.15 0.75 0.40 1.35 0.55 1.35 0.15 0 1.35 -0.95 2.60 -2.10z m221.25 -57.95 c0.05 -31.10 -0.10 -56.65 -0.25 -56.75 -0.20 -0.10 -1.10 0.40 -2.05 1.15 -3.70 3 -13.40 11.60 -17.15 15.15 -4 3.80 -8 7.40 -17.75 16.05 -11.90 10.55 -23.35 20.95 -24.95 22.65 -1.60 1.65 -1.65 1.85 -0.95 2.65 0.40 0.50 0.85 1.15 0.95 1.40 0.50 1.25 2.75 4.25 3.25 4.25 0.30 0 1.75 1.20 3.25 2.65 1.50 1.40 4.40 4.05 6.40 5.85 2.05 1.80 4.80 4.30 6.15 5.65 1.35 1.30 2.65 2.35 2.85 2.35 0.25 0 2.50 2.05 5 4.50 2.55 2.50 4.80 4.50 5 4.50 0.15 0 0.75 0.65 1.20 1.45 0.50 0.85 1.35 1.65 1.95 1.85 1.05 0.30 2.80 1.75 6.45 5.35 1.05 1 2.10 1.85 2.35 1.85 0.25 0 1.80 1.30 3.45 2.90 1.65 1.55 4.65 4.40 6.65 6.30 3 2.85 3.75 3.35 3.95 2.65 0.30 -0.75 0.60 -0.60 2.05 0.90 0.90 0.95 1.80 1.65 1.95 1.50 0.10 -0.15 0.25 -25.70 0.25 -56.80z m-112.20 14.65 c0 -0.60 0.45 -0.90 1.35 -1 2.35 -0.20 4.95 -2.35 18.05 -15.05 15.20 -14.65 19.50 -18.55 20.45 -18.55 0.40 0 0.60 -0.20 0.45 -0.45 -0.15 -0.25 4.25 -4.60 9.85 -9.70 5.55 -5.10 12.30 -11.30 15 -13.80 2.70 -2.45 5.30 -4.65 5.80 -4.80 0.55 -0.15 1.05 -0.70 1.15 -1.15 0.20 -0.75 15 -14.80 21.60 -20.50 1.05 -0.90 1.75 -1.80 1.55 -2 -0.55 -0.60 -187.90 -0.65 -188.75 -0.10 -0.60 0.45 -0.45 0.80 1.15 2.10 1.20 1 1.70 1.70 1.35 1.90 -0.60 0.35 2.50 4.05 6 7.20 0.95 0.85 3.65 3.30 6 5.50 2.35 2.15 5.30 4.85 6.60 6 1.25 1.10 5.60 5.25 9.60 9.20 4 3.90 7.45 7.10 7.70 7.10 0.20 0 1.95 1.50 3.85 3.35 1.95 1.85 5.10 4.70 7 6.35 1.95 1.65 4.95 4.40 6.75 6.15 6.45 6.20 9.65 9.15 10 9.15 0.20 0 1.55 1.30 3.05 2.90 1.50 1.55 5.05 5 7.90 7.60 2.85 2.60 6.75 6.25 8.75 8.15 1.95 1.85 3.75 3.35 4.05 3.35 0.30 0 0.90 0.45 1.40 1 1.05 1.25 2.35 1.30 2.35 0.10z"/>
  <path d="M504.55 644.75 c-3.55 -1 -6.35 -2.65 -7.45 -4.30 -0.45 -0.70 -2.80 -3.45 -5.15 -6 -4.40 -4.80 -18.15 -20.25 -26.20 -29.45 -2.45 -2.80 -5.65 -6.40 -7.05 -7.95 -1.40 -1.55 -4.65 -5.25 -7.20 -8.30 -2.60 -3 -5.60 -6.50 -6.70 -7.75 -3.70 -4.15 -20.05 -23.75 -25.05 -30 -1.65 -2.05 -3.10 -3.85 -3.25 -4 -1.90 -1.70 -23.05 -29.55 -28.75 -37.75 -8.60 -12.50 -10.95 -16 -15.60 -23.25 -10.90 -17 -21.50 -36.60 -27.55 -50.95 -5.85 -13.75 -11.35 -32.55 -13.55 -46.30 -0.60 -3.55 -1.20 -7.15 -1.35 -8 -1.45 -8.75 -2.10 -26.20 -1.25 -33.55 0.30 -2.15 0.75 -6.40 1.05 -9.45 1.05 -10.15 5.40 -27.95 9 -37 0.20 -0.55 0.90 -2.35 1.50 -4 1.55 -4.25 1.50 -4.15 5.70 -12.75 7.75 -15.85 12.80 -23.75 24.25 -37.50 6.10 -7.30 16.30 -17.70 17 -17.25 0.30 0.15 0.55 -0.05 0.55 -0.45 0 -0.40 1.25 -1.80 2.80 -3.15 1.55 -1.30 3.65 -3.15 4.65 -4.10 5.25 -4.85 24.05 -17.80 24.05 -16.55 0 0.25 0.65 0.50 1.45 0.50 1.20 0 1.45 -0.25 1.75 -1.50 0.20 -1.20 0.75 -1.75 2.40 -2.50 1.20 -0.55 2.20 -0.75 2.30 -0.55 0.35 1.10 4.10 -0.90 4.10 -2.20 0 -0.30 0.85 -0.85 1.90 -1.25 1 -0.40 2 -0.80 2.25 -0.90 0.20 -0.10 0.35 0.15 0.35 0.60 0 0.60 0.25 0.65 1.55 0.20 1.10 -0.40 1.35 -0.65 0.90 -0.95 -0.50 -0.30 -0.55 -0.55 -0.15 -0.95 0.95 -0.95 8.40 -3.95 8.70 -3.55 0.30 0.55 11 -2.20 13.75 -3.50 1.10 -0.50 2.75 -0.95 3.65 -0.95 1.25 0 1.60 -0.20 1.60 -0.95 0 -0.75 0.70 -1.10 3.55 -1.75 4.20 -0.95 4.80 -0.95 5.05 -0.30 0.10 0.35 0.65 0.35 1.65 0 0.85 -0.25 3.75 -0.70 6.50 -1 2.75 -0.25 6.90 -0.75 9.25 -1 10.40 -1.30 36.10 -0.55 45 1.30 2.05 0.40 5 1 6.50 1.30 1.50 0.25 3.20 0.70 3.75 0.95 0.55 0.20 2.05 0.50 3.40 0.65 5.90 0.70 7.15 0.95 7.60 1.35 0.25 0.25 0.90 0.45 1.40 0.45 0.55 0 1.25 0.30 1.55 0.65 0.30 0.40 2.60 1.20 5.05 1.80 2.50 0.60 5.30 1.55 6.30 2.10 1 0.50 2.20 0.95 2.65 0.95 0.50 0 1.70 0.45 2.70 0.95 1 0.55 2.75 1.35 3.85 1.80 3.15 1.30 10.75 5.25 12 6.25 0.30 0.20 1.20 0.55 2.10 0.70 0.85 0.20 1.70 0.65 1.80 1.05 0.15 0.35 0.95 0.80 1.80 1 0.80 0.15 1.75 0.65 2.05 1 0.35 0.40 1.65 1.30 2.90 2.05 1.30 0.75 3.30 2.10 4.45 3 1.15 0.95 2.40 1.70 2.80 1.70 0.40 0 0.85 0.35 1 0.75 0.25 0.65 2.70 2.45 5.45 4.05 0.55 0.35 1.70 1.25 2.55 2.05 0.90 0.80 2.55 2.10 3.75 2.85 1.15 0.80 2.10 1.65 2.10 1.90 0 0.55 2 2.35 2.60 2.40 0.55 0 5 3.45 5.75 4.45 0.55 0.70 0.60 0.70 0.65 -0.20 0 -0.80 0.35 -0.60 2 1 1.60 1.55 1.85 2.05 1.25 2.25 -0.65 0.20 -0.10 1 2.25 3.25 1.65 1.65 3.40 2.95 3.80 2.95 0.75 -0.10 3.70 3.45 3.70 4.40 0 0.45 1.55 2.80 2.95 4.55 0.50 0.60 0.85 0.70 1.10 0.30 0.40 -0.70 3 2.50 8.70 10.80 5.25 7.60 6.40 9.60 11.75 20 4.25 8.30 5.55 11.30 8.60 19.50 2.55 6.85 4.90 14.75 6.05 20.25 2.60 12.45 2.95 14.90 4.10 28.25 1.20 14.20 0 27.35 -4.30 47.75 -1.25 5.95 -2.45 10.60 -2.90 11.25 -0.20 0.30 -0.40 0.95 -0.40 1.50 -0.15 2.50 -8.05 23.90 -11.75 31.75 -8.60 18.20 -15.90 30.95 -29.65 51.75 -6.40 9.70 -17.10 25.25 -17.70 25.75 -0.20 0.15 -3.30 4.20 -6.95 9 -8.65 11.45 -24.05 31.10 -25.10 32 -0.15 0.15 -1.65 1.95 -3.35 4 -12.10 14.70 -23.10 27.80 -33.10 39.25 -2.40 2.75 -9.20 10.65 -15.10 17.50 -12.10 14.15 -18.90 21.25 -21.45 22.35 -4.95 2.25 -10.65 2.85 -14.95 1.65z m4.65 -21.80 c0.70 0.60 1.15 0.30 3 -1.95 0.75 -0.95 2.35 -2.75 3.50 -4 1.10 -1.25 5.30 -5.95 9.30 -10.50 3.95 -4.55 7.35 -8.35 7.50 -8.50 0.15 -0.15 1.40 -1.60 2.80 -3.25 1.35 -1.65 6.55 -7.70 11.45 -13.45 17.30 -20.15 28.35 -33.50 42.70 -51.80 2.25 -2.90 4.40 -5.60 4.75 -6.05 5.10 -6.25 20.20 -27.35 29.05 -40.70 4.50 -6.75 16.75 -26.20 16.75 -26.55 0 -0.10 0.70 -1.35 1.60 -2.80 4.80 -8.10 10.60 -19.70 15.15 -30.40 0.75 -1.80 1.65 -3.90 2 -4.75 1.20 -2.80 5.45 -14.95 6.30 -18.10 0.25 -0.90 0.70 -2.50 1 -3.50 1.75 -6.30 3.10 -13.50 4.20 -22.40 0.85 -6.80 1 -24.65 0.30 -28.80 -0.30 -1.50 -0.75 -4.70 -1.10 -7.20 -0.30 -2.45 -1 -6.40 -1.55 -8.75 -0.90 -4.20 -4.55 -16.80 -5.40 -18.75 -0.20 -0.55 -1 -2.55 -1.70 -4.40 -1.95 -5 -8.35 -17.95 -11.60 -23.40 -15.10 -25.30 -35.70 -45.70 -60.70 -60.05 -11.15 -6.40 -27.20 -13.10 -37.50 -15.60 -16.60 -4.05 -26.40 -5.30 -41.75 -5.30 -27.50 0 -53.50 6.85 -78 20.50 -5.70 3.15 -20.75 13.30 -22.25 15 -0.15 0.15 -2.25 2 -4.75 4.05 -4.10 3.45 -14.30 13.70 -16.60 16.65 -12.20 15.70 -17.25 23.45 -23.25 35.80 -3.80 7.80 -4.50 9.50 -6.55 15 -5.20 14.15 -7.75 25.20 -9.10 39.45 -0.70 7.50 -0.40 19.70 0.75 29.30 2.05 17.10 8.35 36.45 19.25 59.05 2.95 6.15 9.40 18.10 12.10 22.30 0.60 1.05 1.15 2 1.15 2.10 0 0.35 8.50 13.75 12.35 19.45 2 2.95 3.40 5.35 3.15 5.35 -0.80 0 -0.55 0.95 0.45 1.95 0.50 0.50 1.10 1.45 1.30 2.05 0.25 0.85 0.45 0.95 0.80 0.45 0.20 -0.35 0.50 -0.55 0.60 -0.45 0.10 0.15 1.40 2 2.90 4.15 1.50 2.15 4.20 6.10 6.05 8.75 2.35 3.45 3.15 4.90 2.65 5.10 -0.50 0.20 -0.40 0.50 0.45 1.25 0.65 0.60 1.35 1 1.60 0.90 0.70 -0.20 3.75 4.50 3.20 4.85 -0.30 0.20 0.20 1.15 1.15 2.30 0.90 1.05 2.75 3.55 4.15 5.50 1.40 1.95 3.05 4.05 3.65 4.75 2.65 3 4.95 5.85 6.20 7.85 0.75 1.15 1.60 2.10 1.90 2.10 0.25 0 0.75 0.65 1 1.50 0.30 0.80 0.90 1.60 1.35 1.75 0.50 0.15 1.40 1.10 2.05 2.15 0.65 1 1.70 2.55 2.25 3.45 0.60 0.90 1.35 1.60 1.70 1.65 0.30 0 0.60 0.20 0.60 0.50 0 0.25 1.25 1.75 2.75 3.35 1.50 1.60 2.75 3.30 2.75 3.80 0 0.45 0.50 1.10 1.15 1.40 0.60 0.30 2.25 2.10 3.60 4.05 1.40 1.90 3.15 4.05 3.95 4.75 1.30 1.10 5.05 5.50 7.95 9.35 0.60 0.80 2.50 3 4.25 4.85 1.70 1.90 3.10 3.85 3.10 4.45 0 0.55 0.30 1 0.70 1 0.40 0 1.45 0.85 2.35 1.90 0.90 1 3.85 4.25 6.60 7.20 2.75 2.95 5.65 6.30 6.40 7.50 0.80 1.15 2.85 3.60 4.55 5.40 1.75 1.80 5.30 5.55 7.90 8.30 2.60 2.70 5.20 5.60 5.70 6.45 0.60 0.90 1.05 1.25 1.20 0.85 0.15 -0.45 0.40 -0.50 0.80 -0.15z"/>
  <path d="M502 441.20 c-11.45 -1.30 -18.40 -3.35 -28.05 -8.30 -27 -13.90 -43.90 -41.30 -43.95 -71.20 -0.05 -29.50 14.50 -54.40 40.45 -69.30 2.05 -1.15 4.15 -2.10 4.65 -2.10 0.50 0 0.90 -0.20 0.90 -0.40 0 -0.80 10.25 -4.50 15.85 -5.65 5.50 -1.15 13.85 -2.25 17.40 -2.25 2.75 0 12.10 1.05 16.25 1.80 3.40 0.60 8.50 2.35 8.50 2.90 0 0.75 1.45 1.60 3.50 2.05 3.55 0.75 17.65 8.80 19.40 11 0.50 0.60 1.35 1.25 1.95 1.45 1.15 0.35 12.35 11.20 13.65 13.15 0.40 0.70 0.85 0.90 1.05 0.60 0.60 -0.95 6.30 7.75 8.65 13.20 0.45 1 1.10 2.60 1.50 3.50 1.25 2.85 2.85 8.45 4.15 14.35 1.15 5.05 1.30 6.95 1.30 15.75 0.05 8.65 -0.10 10.70 -1.10 15.25 -1.95 9.15 -4.50 15.75 -9.50 24.95 -5.75 10.55 -17.10 21.95 -28.65 28.70 -8.40 4.95 -14.55 7.25 -25.65 9.65 -3.35 0.70 -18.50 1.35 -22.25 0.90z m16.80 -21.90 c19 -3.10 36.30 -16 44.25 -33 6.45 -13.85 7.30 -29.65 2.35 -43.80 -4.85 -13.85 -16.10 -26.25 -29.60 -32.55 -4.50 -2.10 -12.85 -4.95 -14.50 -4.95 -0.55 0 -2.85 -0.45 -5.05 -1 -2.20 -0.55 -4.90 -1 -6 -1 -2.25 0 -13.15 2.05 -17.05 3.25 -9.95 2.95 -18.85 8.40 -26 15.80 -4.45 4.65 -7 8.15 -9.85 13.50 -4.45 8.25 -6.35 16.10 -6.35 26.35 0 10.25 1.80 17.45 6.70 26.95 1.20 2.25 1.90 4.20 1.60 4.30 -0.25 0.10 0 0.90 0.70 1.90 1.60 2.35 4.10 4.95 4.50 4.70 0.20 -0.10 1.90 1.35 3.75 3.25 2.65 2.70 3.25 3.50 2.50 3.50 -1 0.05 -1 0.05 0 0.60 0.55 0.30 1.65 1.10 2.45 1.75 0.80 0.65 1.80 1.05 2.20 0.90 0.40 -0.15 1.85 0.45 3.20 1.30 1.80 1.15 2.35 1.80 2.15 2.45 -0.20 0.65 0.20 1.10 1.60 1.70 1.05 0.45 2.55 1.15 3.30 1.55 1.60 0.85 3.85 1 3.85 0.30 0 -0.25 1.40 0 3.15 0.55 7.90 2.50 17.35 3.15 26.15 1.70z"/>
 </g>
 <g fill="#ffa927">
  <path d="M596.25 836 c-2.75 -0.20 -5.65 -0.50 -6.50 -0.70 -7 -1.65 -8.35 -2.05 -13.50 -4.10 -7.35 -2.95 -13.85 -6.60 -23.40 -13.15 -18.95 -13.05 -24.60 -20.20 -25.20 -31.80 -0.55 -10.40 3.40 -18.35 16.05 -32.25 1.15 -1.25 3.50 -3.95 5.30 -6 1.75 -2.05 3.55 -4.10 4 -4.50 0.40 -0.40 2.90 -3.10 5.50 -6 7.10 -7.75 10 -10.80 10 -10.35 0 0.25 0.95 -0.30 2.10 -1.25 1.15 -0.90 2.50 -1.85 2.95 -2.15 0.45 -0.25 2.05 -1.25 3.50 -2.15 6.15 -3.70 13.20 -5.20 19.70 -4.20 4.40 0.70 14.70 4.90 17.60 7.15 0.95 0.80 1.95 1.45 2.15 1.45 0.45 0 6.15 4.35 8.15 6.20 0.80 0.70 1.60 1.30 1.80 1.30 0.20 0 1.15 0.40 2.10 0.85 0.95 0.50 2.50 0.85 3.45 0.80 2.35 -0.05 5.55 -1.40 5.25 -2.25 -0.15 -0.40 0.90 -1.35 2.60 -2.40 2.65 -1.65 12.10 -10.55 14.50 -13.70 0.60 -0.75 2.05 -2.45 3.25 -3.75 5.40 -5.85 12.95 -14.95 19.20 -23.30 4.70 -6.25 15.15 -22 16.20 -24.55 2.20 -5.10 0.90 -9.55 -4.10 -13.75 -3.60 -3.05 -6.50 -5.55 -7.40 -6.45 -0.40 -0.40 -2.65 -2.45 -5 -4.50 -6.15 -5.35 -8.25 -7.65 -10.50 -11.65 -3.50 -6.05 -4.25 -9.05 -4.20 -17.10 0.05 -10 1.85 -15.40 8 -23.75 8.65 -11.80 12.05 -16.35 16.20 -21.75 2.55 -3.30 6.20 -8.15 8.15 -10.75 4.65 -6.15 11.50 -13.10 11.75 -11.85 0.15 0.80 0.30 0.80 2 -0.10 1 -0.55 3.45 -1.55 5.35 -2.30 3.10 -1.20 4.20 -1.35 9.75 -1.40 9.70 -0.05 11.35 0.35 20.25 5.15 1.60 0.85 3.30 2.05 3.70 2.60 0.65 0.95 0.75 1 1 0.20 0.25 -0.70 0.75 -0.45 2.95 1.50 1.40 1.25 2.45 2.55 2.25 2.85 -0.15 0.25 -0.10 0.35 0.20 0.20 0.25 -0.15 1.30 0.40 2.35 1.25 1.15 0.95 1.65 1.65 1.35 1.90 -0.35 0.15 0.70 1.45 2.55 3.05 1.75 1.50 4.85 4.30 6.90 6.30 7 6.65 9.60 8.80 10 8.15 0.55 -0.90 8.25 8.65 10.30 12.80 1.95 3.90 2.25 4.90 3.90 13.20 1.80 9.05 2.15 12.70 2 20.75 -0.20 10.05 -0.80 15.55 -2.50 24 -0.75 3.80 -0.95 4.50 -2.95 12 -4.60 17.25 -16.65 43.50 -28.80 62.75 -4.55 7.15 -17.55 25.35 -18.90 26.50 -0.20 0.15 -1.10 1.25 -2.05 2.50 -15.75 20.45 -42.65 45.65 -65.25 61.10 -19.30 13.15 -41.90 23.90 -54.50 25.90 -1.90 0.30 -4.40 0.75 -5.50 1 -3 0.65 -10.35 0.90 -16 0.50z m10.50 -16.75 c1.40 -0.05 3.65 -0.45 5 -0.85 1.40 -0.45 3.90 -1.20 5.65 -1.70 1.75 -0.45 3.25 -1.05 3.40 -1.30 0.15 -0.20 0.60 -0.40 1.05 -0.40 0.75 0 1.55 -0.35 7.90 -3.25 1.95 -0.90 4 -1.75 4.60 -1.95 2.35 -0.75 8.60 -4.05 12.40 -6.55 2.20 -1.45 4.95 -3.20 6.10 -3.95 1.20 -0.70 2 -1.55 1.90 -1.90 -0.15 -0.35 0.70 -1.25 1.85 -2 1.20 -0.75 3.95 -2.70 6.15 -4.35 2.20 -1.65 4.05 -2.80 4.15 -2.55 0.10 0.25 0.70 0.10 1.40 -0.30 0.65 -0.45 1.10 -1 0.95 -1.20 -0.15 -0.25 1.25 -1.60 3.10 -3.05 1.90 -1.45 5.45 -4.35 7.90 -6.45 2.50 -2.10 5.20 -4.25 6 -4.85 0.85 -0.55 3.55 -3.05 6 -5.45 2.50 -2.45 5.90 -5.70 7.50 -7.25 14.35 -13.55 31.30 -35.05 45 -56.95 4.20 -6.65 14.55 -26.55 16.75 -32 0.35 -0.95 1.30 -3.10 2 -4.75 0.75 -1.65 1.85 -4.45 2.45 -6.25 0.60 -1.80 1.30 -3.70 1.55 -4.25 1.95 -4.70 4.80 -16.95 6.05 -25.75 0.75 -5.70 0.35 -22.10 -0.75 -26.70 -0.40 -1.90 -1.80 -5.50 -3 -8 -2.65 -5.50 -5.45 -8.35 -23.30 -24.05 -3.45 -3 -6.35 -5.60 -6.50 -5.75 -0.15 -0.15 -1.95 -1.75 -4 -3.55 -5.10 -4.40 -8.10 -5.65 -12.85 -5.35 -3.15 0.20 -3.90 0.45 -5.85 1.95 -1.25 0.95 -4.15 4.05 -6.40 6.95 -2.25 2.90 -4.90 6.25 -5.90 7.50 -5.95 7.40 -21.15 28.25 -22.60 31 -1.50 3 -1.65 3.65 -1.65 7.75 0 5.30 0.60 6.70 4.40 10.65 1.40 1.40 2.30 2.60 1.95 2.60 -0.35 0 0.10 0.90 1 2 0.90 1.10 1.90 2 2.20 2 0.25 0 1.70 1.15 3.15 2.55 1.65 1.60 2.80 2.35 3 2 0.25 -0.35 1 0.05 2.25 1.05 1.15 0.95 1.65 1.65 1.35 1.90 -0.40 0.20 -0.15 0.75 0.60 1.55 1.65 1.60 5.35 4.25 5.90 4.10 0.75 -0.25 3.50 3.60 5.60 7.80 l2.10 4.25 -0.10 5.40 c-0.15 6.25 -0.65 8.85 -2.40 12.50 -1.40 3 -1.80 3.70 -7.90 13.30 -3.45 5.50 -17 24.45 -18.35 25.60 -0.15 0.15 -1.25 1.50 -2.50 3 -1.25 1.50 -2.45 3 -2.75 3.30 -0.25 0.35 -2.65 3.15 -5.25 6.25 -11.25 13.35 -22.30 22.70 -31 26.15 -4.15 1.65 -7.20 2.15 -12.50 2.05 -8.90 -0.20 -13.65 -2.15 -24.50 -10.30 -8.15 -6.10 -10.25 -7.20 -13.45 -6.75 -4.15 0.55 -7.15 2.50 -13.40 8.70 -11.90 11.70 -29.45 31.35 -31.20 34.95 -2.35 4.85 -1.90 8.20 1.60 11.95 1.40 1.45 2.50 2.80 2.50 3.05 -0.10 1.30 0.90 2.40 3.85 4.40 2.65 1.80 3.40 2.10 3.60 1.50 0.20 -0.60 0.60 -0.45 2 0.70 1.50 1.30 1.60 1.50 0.75 1.55 -1 0.05 -1 0.05 0 0.60 0.55 0.30 1.40 0.95 1.90 1.40 0.45 0.45 1.45 1.15 2.20 1.55 0.75 0.40 2 1.25 2.75 2 0.80 0.70 2.35 1.80 3.50 2.50 1.15 0.65 2.65 1.80 3.35 2.60 0.70 0.75 1.60 1.35 1.95 1.35 0.40 0 2.55 0.90 4.75 2 6.30 3.05 13.40 4.70 18.10 4.10 1.40 -0.15 3.65 -0.35 5 -0.35z"/>
 </g>
 <g fill="#097fea">
  <path d="M255 808.50 c-9.05 -1.10 -16.40 -6.15 -19.70 -13.60 -0.65 -1.50 -1.45 -4.05 -1.75 -5.65 -0.75 -4.15 -0.75 -143.65 0 -147.35 1.90 -9.15 9.50 -17 18.60 -19.15 2.65 -0.65 16.25 -0.75 97.25 -0.75 105.55 0 97.40 -0.30 102.75 3.70 1.50 1.15 6.65 5.80 11.45 10.35 10.75 10.25 14.35 13.55 23.05 21.40 7.30 6.55 8.35 8 10.15 13.80 0.90 2.85 0.95 5.60 0.95 59.25 0 54 -0.05 56.40 -0.95 59.75 -0.55 1.95 -1.75 4.75 -2.65 6.35 -1.70 2.85 -6.60 7.75 -8.90 8.80 -4.20 2 -7.05 2.65 -13.95 3.15 -6.95 0.50 -212.15 0.45 -216.30 -0.05z m218 -1.55 c0 -0.40 0.65 -0.45 1.95 -0.25 1.20 0.20 2.05 0.10 2.15 -0.25 0.10 -0.25 1.15 -0.70 2.30 -1 3.25 -0.70 6.10 -2.20 8.95 -4.70 1.40 -1.25 2.90 -2.25 3.35 -2.25 0.95 0 1.05 -0.80 0.20 -1.15 -0.45 -0.15 -0.20 -0.65 0.70 -1.50 0.75 -0.65 1.20 -1.35 1.05 -1.50 -0.50 -0.50 0.40 -2.25 1.30 -2.50 0.65 -0.15 1 -0.90 1.25 -2.65 0.15 -1.35 0.15 -2.50 -0.05 -2.55 -0.25 -0.10 -0.35 -23.80 -0.25 -52.75 0.10 -40.70 0.25 -52.70 0.75 -53 0.40 -0.25 0.35 -0.40 -0.25 -0.40 -0.75 0 -0.90 -0.45 -0.90 -2.75 0 -1.60 0.20 -2.75 0.50 -2.75 0.35 0 0.45 -0.70 0.25 -1.85 -0.50 -2.95 -1.30 -5.15 -1.80 -5.15 -0.65 0 -3.10 -1.85 -5.50 -4.10 -2.10 -2 -8.55 -7.35 -9.90 -8.15 -0.45 -0.30 -4.05 -3.75 -8.05 -7.65 -4 -3.90 -8.70 -8.40 -10.45 -10 -1.80 -1.55 -4.65 -4.25 -6.40 -5.95 -1.75 -1.75 -3.75 -3.30 -4.45 -3.45 -0.65 -0.15 -1.45 -0.70 -1.70 -1.15 -0.25 -0.50 -1.40 -1.20 -2.60 -1.55 -1.20 -0.35 -2.45 -0.90 -2.75 -1.15 -0.40 -0.30 -36.90 -0.45 -93 -0.45 -98.80 0.05 -92 -0.10 -100.15 2.20 -0.95 0.25 -2.25 0.60 -2.90 0.75 -1.15 0.30 -2.05 1.15 -1.15 1.15 0.30 0 0.55 0.25 0.55 0.55 0 0.40 -0.20 0.40 -0.70 0 -0.55 -0.50 -1.05 -0.45 -2.20 0.15 -2.20 1.15 -6.40 6.60 -7.70 10 l-1.15 3.05 0 73 c0.05 49.95 0.20 73.65 0.55 75.10 1.95 7.65 7.65 13.30 15.60 15.55 2.55 0.75 13.80 0.80 111.05 0.95 59.50 0.10 108.35 0.25 108.45 0.40 0.50 0.50 3.10 0.25 3.10 -0.30z"/>
  <path d="M285.75 789.50 c-0.55 -0.20 -3.90 -0.40 -7.40 -0.40 -6.40 -0.05 -7.60 -0.25 -7.10 -1.15 0.20 -0.25 0.05 -0.45 -0.20 -0.45 -0.90 0 -0.60 -1.95 0.45 -3 0.55 -0.55 1.70 -1.15 2.55 -1.35 0.95 -0.15 1.40 -0.50 1.25 -0.95 -0.30 -0.75 7.45 -8.20 8.55 -8.20 0.40 0 0.55 -0.25 0.40 -0.50 -0.15 -0.30 0.15 -0.70 0.70 -0.90 0.55 -0.20 0.95 -0.55 0.90 -0.80 -0.05 -0.20 0.70 -0.70 1.65 -1 1.15 -0.40 1.75 -0.85 1.70 -1.45 -0.05 -0.45 0.25 -0.85 0.65 -0.85 0.40 0 0.55 -0.20 0.40 -0.50 -0.15 -0.25 0.05 -0.50 0.50 -0.50 0.45 0 0.70 -0.20 0.55 -0.40 -0.15 -0.25 1.45 -2 3.55 -3.90 2.15 -1.90 5.80 -5.25 8.15 -7.50 6.15 -5.85 7.80 -7.20 8.70 -7.20 0.45 0 0.80 -0.30 0.70 -0.70 -0.10 -0.40 1 -1.75 2.35 -3.05 1.40 -1.25 4.20 -3.85 6.25 -5.75 5.80 -5.40 11.80 -10.40 12.55 -10.60 0.65 -0.15 2.30 1.25 7.75 6.50 1.20 1.15 2.35 2.10 2.55 2.10 0.25 0 1.55 1.05 2.90 2.30 2.25 2.10 4.45 3.35 9.15 5.20 0.85 0.35 1.60 0.85 1.60 1.15 0 0.40 0.15 0.40 0.55 0 0.50 -0.50 3.35 -0.05 4.70 0.75 0.30 0.20 0.90 0.25 1.40 0.20 0.45 -0.10 0.85 0.15 0.85 0.50 0 0.50 0.10 0.50 0.40 0 0.45 -0.65 3.20 -1.15 7.10 -1.25 1.25 -0.05 2.35 -0.25 2.50 -0.40 0.15 -0.20 2.15 -1.25 4.40 -2.40 2.30 -1.10 4.85 -2.60 5.70 -3.30 0.80 -0.70 2.05 -1.25 2.75 -1.25 1 0 1.20 -0.20 1 -1 -0.30 -1.15 2.60 -4 4.05 -4 0.90 0 4.60 -3.60 4.60 -4.50 0 -0.85 1.90 -0.55 2.60 0.45 0.40 0.55 1.30 1.25 2 1.55 0.70 0.35 1.60 1.15 1.95 1.80 0.35 0.65 0.80 1.20 1 1.20 0.70 0 7.40 5.85 14.75 12.85 2.05 1.95 4.05 3.70 4.50 3.85 0.40 0.15 0.90 0.75 1.10 1.35 0.25 0.55 0.55 0.95 0.75 0.85 0.45 -0.20 8.05 6.40 15.05 13.20 3.35 3.25 6.75 6.40 7.60 7 0.85 0.65 3.30 2.85 5.50 5 6.35 6.10 7.20 6.90 7.75 6.90 0.25 0 0.75 0.55 1.05 1.25 0.45 1.05 0.45 1.45 -0.15 2.05 -0.65 0.60 -3.05 0.75 -15.40 0.70 -9.70 0 -14.50 0.15 -14.30 0.50 0.15 0.25 -0.05 0.50 -0.45 0.50 -0.40 0 -0.85 -0.20 -1.05 -0.50 -0.40 -0.60 -24.50 -0.65 -26.75 0 -1 0.30 -1.80 0.30 -2 0.05 -0.35 -0.60 -114.95 -0.70 -115.70 -0.10 -0.30 0.25 -1 0.25 -1.55 0.05z m175.20 -3.65 c-1.25 -1.15 -6.05 -5.60 -10.70 -9.85 -4.65 -4.25 -9.95 -9.10 -11.75 -10.80 -1.80 -1.65 -4.25 -3.90 -5.50 -5 -1.25 -1.10 -5.60 -5.05 -9.75 -8.75 -4.10 -3.70 -10.55 -9.40 -14.25 -12.65 -3.70 -3.25 -7.50 -6.55 -8.35 -7.35 -0.90 -0.80 -1.80 -1.45 -2.05 -1.45 -0.25 0 -2.60 2.10 -5.15 4.65 -7.95 7.90 -11.95 10.55 -18.55 12.30 -4.80 1.30 -7.85 1.50 -12.35 0.95 -7.90 -0.95 -15.50 -5.45 -24.30 -14.35 -1.90 -1.95 -3.75 -3.55 -4.05 -3.55 -0.30 0 -0.90 0.35 -1.25 0.85 -0.40 0.45 -2.50 2.40 -4.70 4.30 -2.20 1.90 -5.55 5 -7.50 6.80 -1.90 1.85 -4.65 4.35 -6.05 5.55 -1.40 1.25 -5.90 5.40 -10 9.25 -6.60 6.20 -15.15 14 -17.75 16.30 -3.55 3.10 -14.95 14.15 -14.95 14.50 0 0.25 41.70 0.45 95.65 0.45 l95.60 0 -2.30 -2.15z"/>
  <path d="M252.10 776 c-0.85 -1.35 -0.80 -9.35 0.05 -9.65 0.50 -0.20 0.50 -0.30 0 -0.30 -0.80 -0.05 -0.95 -11.05 -0.15 -11.05 0.70 0 0.60 -1.35 -0.10 -1.65 -0.50 -0.20 -0.50 -0.40 0.05 -0.75 0.55 -0.40 0.55 -0.55 0 -0.80 -0.55 -0.25 -0.55 -0.35 -0.05 -0.60 0.75 -0.35 0.85 -7.20 0.10 -7.20 -0.35 0 -0.50 -11.65 -0.50 -34 0 -22.35 0.15 -34 0.50 -34 0.30 0 0.50 -2.50 0.50 -6.50 0 -4.85 -0.15 -6.50 -0.60 -6.50 -0.45 0 -0.40 -0.20 0.10 -0.55 0.55 -0.40 0.60 -0.60 0.15 -0.80 -0.80 -0.30 -0.85 -2.15 -0.10 -2.15 0.40 0 0.50 -0.75 0.35 -2.20 -0.50 -4.40 1.45 -3.50 8.70 3.80 2.70 2.70 5.05 4.90 5.25 4.90 0.15 0 1.80 1.40 3.60 3.15 1.85 1.70 4.45 4.15 5.80 5.45 1.40 1.25 3.30 3.15 4.25 4.25 0.95 1.05 1.95 1.90 2.15 1.90 0.20 0 1.35 1.05 2.50 2.30 1.15 1.25 2.35 2.40 2.70 2.50 0.35 0.10 2.90 2.35 5.75 5.05 2.85 2.65 6.75 6.20 8.65 7.95 1.95 1.75 3.95 3.80 4.50 4.55 0.55 0.75 1.40 1.50 1.90 1.70 0.45 0.15 0.85 0.50 0.85 0.80 0 0.60 2.50 2.90 3.20 2.90 0.20 0 1.95 1.35 3.85 3.05 3.70 3.30 4.25 4.60 2.45 6.20 -0.55 0.50 -1 1.20 -1 1.60 0 0.95 -14.95 15.65 -15.90 15.65 -0.30 0 -2.10 1.50 -3.95 3.40 -8 7.80 -13.60 13.10 -13.95 13.10 -0.40 0 -3.30 2.55 -10.70 9.55 -8.45 8 -11.55 10.80 -13.50 12.20 -0.95 0.70 -2.10 1.70 -2.50 2.20 -0.40 0.50 -1.55 1.05 -2.50 1.25 -1.40 0.25 -1.90 0.10 -2.40 -0.70z m5.45 -3.50 c0.40 -0.40 3.10 -2.90 5.95 -5.50 2.90 -2.60 7 -6.40 9.25 -8.45 2.20 -2.05 5.15 -4.75 6.50 -6.05 5.90 -5.45 15.70 -14.40 17.50 -15.95 1.10 -0.95 3.35 -3 5 -4.50 1.65 -1.55 5.20 -4.85 7.90 -7.30 2.75 -2.50 5.90 -5.45 7.10 -6.55 l2.20 -2.10 -4.85 -4.40 c-2.65 -2.45 -7.85 -7.25 -11.60 -10.65 -3.70 -3.40 -8.20 -7.55 -10 -9.25 -2.90 -2.70 -8.85 -8.15 -17.45 -16.05 -1.50 -1.35 -5.20 -4.90 -8.25 -7.80 -3.05 -2.95 -6.65 -6.30 -8.05 -7.45 -1.35 -1.20 -2.70 -2.45 -2.90 -2.80 -0.20 -0.40 -0.85 -0.90 -1.35 -1.20 -1 -0.55 -1 0.05 -1 59.60 l0 60.10 1.60 -1.50 c0.90 -0.80 2 -1.80 2.45 -2.20z"/>
  <path d="M474.75 773 c-0.15 -0.25 -1.15 -0.70 -2.15 -1 -1.35 -0.35 -3.55 -2.15 -8 -6.50 -3.40 -3.30 -6.40 -6 -6.65 -6 -0.25 0 -1.35 -0.85 -2.40 -1.85 -3.65 -3.60 -5.40 -5.05 -6.45 -5.35 -0.60 -0.20 -1.45 -1 -1.95 -1.85 -0.45 -0.80 -1.05 -1.45 -1.20 -1.45 -0.20 0 -2.45 -2 -5 -4.50 -2.50 -2.45 -4.75 -4.50 -5 -4.50 -0.20 0 -1.50 -1.05 -2.85 -2.35 -1.35 -1.35 -4.10 -3.85 -6.15 -5.65 -2 -1.80 -4.90 -4.45 -6.40 -5.85 -1.50 -1.45 -2.95 -2.65 -3.25 -2.70 -0.65 0 -5.50 -6.55 -5.70 -7.70 -0.20 -0.95 1.75 -3.25 2.75 -3.25 0.40 0 0.55 -0.20 0.40 -0.50 -0.15 -0.25 0.15 -0.50 0.75 -0.50 0.55 0 1.15 -0.35 1.35 -0.80 0.15 -0.40 0.85 -1 1.50 -1.25 0.80 -0.30 1.15 -0.75 1 -1.20 -0.35 -0.85 6.85 -7.75 8.10 -7.75 0.95 0 2.75 -1.65 2.30 -2.10 -0.45 -0.40 8.05 -7.90 9 -7.90 0.45 0 0.65 -0.20 0.50 -0.50 -0.15 -0.25 0.20 -0.50 0.75 -0.50 0.80 0 1 -0.25 0.80 -0.75 -0.15 -0.45 0 -0.75 0.50 -0.75 0.40 0 0.65 -0.20 0.50 -0.45 -0.35 -0.50 3.05 -3.25 4.60 -3.75 0.65 -0.25 1.05 -0.50 0.95 -0.65 -0.80 -0.75 10.90 -11.65 12.50 -11.65 0.40 0 0.60 -0.20 0.45 -0.45 -0.45 -0.75 4.55 -5.05 5.85 -5.05 1.30 0 2.85 -1.40 2.85 -2.55 0 -1 4.90 -5.75 6.55 -6.40 2.55 -0.95 3.10 0.25 3 5.90 -0.05 3.80 -0.55 2.90 -0.60 -1.10 -0.05 -2.30 -0.25 -3.35 -0.70 -3.35 -0.50 0 -2.05 1.20 -8.05 6.40 -2.30 2 -10.90 9.80 -14.95 13.60 -4.75 4.40 -12.95 11.75 -19.50 17.50 -3 2.60 -6.05 5.30 -6.75 6 -0.75 0.70 -2.70 2.45 -4.30 3.95 -1.60 1.50 -4.60 4.25 -6.60 6.15 l-3.65 3.45 1.40 1.10 c0.75 0.60 2.55 2.10 3.90 3.35 1.40 1.30 6.65 6 11.75 10.55 15.85 14.10 24.05 21.40 30.25 26.90 7.30 6.45 13.05 11.75 14.85 13.65 1.40 1.45 2.40 1.80 2.40 0.80 0 -0.30 0.15 -0.40 0.30 -0.25 0.20 0.20 0.05 0.65 -0.30 1.10 -0.70 0.85 -2.80 1 -3.25 0.25z"/>
  <path d="M361.65 731.50 c-0.50 -0.55 -1.10 -1 -1.40 -1 -0.30 0 -2.10 -1.50 -4.05 -3.35 -2 -1.90 -5.90 -5.55 -8.75 -8.15 -2.85 -2.60 -6.40 -6.05 -7.90 -7.60 -1.50 -1.60 -2.85 -2.90 -3.05 -2.90 -0.35 0 -3.55 -2.95 -10 -9.15 -1.80 -1.75 -4.80 -4.50 -6.75 -6.15 -1.90 -1.65 -5.05 -4.50 -7 -6.35 -1.90 -1.85 -3.65 -3.35 -3.85 -3.35 -0.25 0 -3.70 -3.20 -7.70 -7.10 -4 -3.95 -8.35 -8.10 -9.60 -9.20 -1.30 -1.15 -4.25 -3.85 -6.60 -6 -2.35 -2.20 -5.05 -4.65 -6 -5.50 -0.95 -0.85 -3.10 -3.05 -4.75 -4.90 -2.40 -2.65 -3 -3.70 -3.05 -5.10 -0.05 -1 -0.40 -2 -0.90 -2.35 -0.80 -0.60 -0.80 -0.70 0.10 -1.50 0.90 -0.80 6.55 -0.85 95.55 -0.85 52.05 0 94.80 0.10 95.10 0.25 1.20 0.75 0.40 3.15 -1.80 5.40 -1.25 1.30 -2.25 2.55 -2.25 2.75 0 0.35 -1.35 1.80 -4.10 4.50 -0.65 0.60 -1.55 1.10 -2.05 1.10 -0.45 0 -0.85 0.20 -0.85 0.45 0 0.35 -2.15 3.40 -3.45 4.80 -1.15 1.30 -9.25 8.55 -10 9 -0.45 0.30 -1.85 1.55 -3 2.90 -1.20 1.30 -2.35 2.35 -2.55 2.35 -0.80 0 -4.10 3.45 -3.75 3.95 0.15 0.30 -0.10 0.55 -0.60 0.55 -0.85 0 -4.65 3.20 -4.65 3.95 0 0.20 -1.20 1.25 -2.60 2.30 -4.20 3.10 -4.40 3.30 -9.55 8.70 -1.90 1.95 -3.65 3.55 -3.90 3.55 -0.25 0 -1.65 1.20 -3.15 2.65 -3.55 3.45 -4.60 4.30 -6.05 4.95 -0.70 0.30 -1.25 0.80 -1.25 1.10 0 0.75 -2.80 3.55 -5.60 5.60 -1.35 0.95 -2.40 1.95 -2.40 2.20 0 0.75 -2.10 3.05 -3.65 4 -0.75 0.45 -4.50 3.95 -8.35 7.70 l-6.95 6.80 -3 0 c-2.45 0 -3.25 -0.20 -3.90 -1z m6.95 -2.45 c0.45 -0.05 3.95 -3 7.75 -6.65 3.80 -3.60 8.80 -8.40 11.15 -10.60 2.35 -2.20 6.50 -6.15 9.25 -8.75 5.65 -5.40 9.95 -9.40 13.25 -12.25 1.25 -1.10 3.95 -3.55 6.05 -5.50 2.10 -1.95 5.15 -4.75 6.75 -6.25 4.90 -4.50 15.85 -14.75 16.95 -15.85 0.55 -0.55 2.45 -2.35 4.25 -3.95 1.80 -1.60 6 -5.55 9.40 -8.70 3.40 -3.20 6.45 -5.95 6.85 -6.20 0.40 -0.20 0.75 -0.60 0.75 -0.85 0 -0.30 -35.20 -0.50 -94.75 -0.50 -57.90 0 -94.75 0.20 -94.75 0.45 0 0.25 0.55 0.90 1.25 1.45 0.65 0.55 6.55 6 13.10 12.20 6.55 6.15 14.85 13.90 18.40 17.15 3.60 3.30 8.30 7.65 10.50 9.75 6.05 5.75 12.05 11.35 22.25 20.75 5.10 4.65 11.05 10.20 13.25 12.25 7.80 7.40 10 9.45 11.40 10.55 1.45 1.10 3.95 1.90 5.35 1.65 0.40 -0.05 1.15 -0.15 1.60 -0.15z"/>
  <path d="M503.50 644.35 c-3.30 -1.25 -4.60 -2.20 -7.20 -5.20 -1.40 -1.65 -5.60 -6.35 -9.30 -10.45 -11.85 -13.10 -14.70 -16.30 -16.95 -18.90 -1.20 -1.40 -3 -3.45 -4 -4.55 -1 -1.10 -3.10 -3.55 -4.75 -5.45 -1.60 -1.95 -3.20 -3.75 -3.50 -4.05 -0.35 -0.25 -2.75 -2.95 -5.35 -6 -2.55 -3 -4.80 -5.60 -4.95 -5.75 -0.65 -0.55 -20.10 -23.70 -24.75 -29.45 -2.75 -3.40 -5.80 -7.15 -6.75 -8.30 -0.95 -1.15 -2.40 -2.95 -3.25 -4 -0.80 -1.05 -2.15 -2.75 -3 -3.80 -10.40 -12.80 -23.55 -31.25 -36.85 -51.65 -2.80 -4.35 -5.55 -8.50 -6 -9.25 -0.50 -0.70 -1.10 -1.80 -1.35 -2.40 -0.30 -0.60 -1.15 -2.05 -1.90 -3.25 -0.75 -1.20 -1.65 -2.70 -2 -3.40 -0.35 -0.70 -1.15 -2.05 -1.70 -3 -3.10 -5 -10.85 -20.60 -14.20 -28.30 -1.25 -3 -2.55 -6 -2.85 -6.70 -0.30 -0.70 -0.65 -1.45 -0.70 -1.75 -0.10 -0.25 -1.40 -4.20 -2.95 -8.75 -3.30 -9.80 -4.70 -14.70 -6.40 -22.75 -4.10 -19.45 -5.45 -35.80 -4.15 -49.75 1.60 -16.15 1.60 -16.40 4.30 -28 0.60 -2.60 1.25 -5.10 1.50 -5.50 0.35 -0.75 1.10 -3.70 1.05 -4.25 0 -0.10 0.65 -2.10 1.50 -4.35 0.85 -2.30 1.85 -5.15 2.25 -6.40 0.85 -2.45 1.15 -3.30 2.40 -6.10 0.45 -1 0.80 -1.95 0.80 -2.10 0 -0.45 5.30 -11.30 6.65 -13.55 0.65 -1.10 2.15 -3.80 3.30 -6 1.20 -2.20 2.45 -4.35 2.80 -4.75 0.35 -0.40 2.15 -3 4 -5.75 9.65 -14.15 25.50 -31.15 39 -41.80 5.35 -4.20 17.90 -12.95 18.60 -12.95 0.20 0 0.70 -0.30 1.10 -0.70 0.75 -0.60 11.60 -6.20 16.30 -8.35 11.10 -5.15 21.65 -8.95 29.25 -10.65 2.05 -0.50 6 -1.40 8.75 -2.05 2.75 -0.65 6.75 -1.40 8.90 -1.70 2.10 -0.30 5.50 -0.75 7.50 -1.05 19.60 -2.70 49.40 -0.50 68.10 5.05 4.75 1.45 18.80 6.20 22.20 7.55 5.55 2.20 18.85 8.95 23.60 12 5.70 3.60 14.45 9.65 15.70 10.75 0.55 0.50 1.85 1.50 2.85 2.25 3.10 2.35 13.50 11.40 16.70 14.60 4.45 4.40 12.50 13.55 15.70 17.75 1.50 2 3 3.90 3.30 4.20 0.30 0.35 1.10 1.60 1.85 2.85 0.70 1.25 1.75 2.75 2.35 3.35 0.55 0.60 1 1.25 1 1.40 0 0.15 0.75 1.35 1.65 2.65 3.60 5.10 12.05 21.25 14.90 28.50 0.25 0.60 0.65 1.60 0.90 2.25 0.25 0.60 0.80 2.10 1.20 3.35 0.45 1.25 1.45 4.15 2.25 6.50 2.20 6.30 5.70 20.80 6.40 26.75 0.15 1.10 0.45 3.35 0.70 5 0.60 3.75 0.65 5.75 0.05 5.75 -0.20 0 -0.60 -1.80 -0.75 -4 -0.30 -2.95 -0.55 -4 -1.10 -4 -0.45 0 -0.70 -0.55 -0.70 -1.50 0 -0.80 0.25 -1.50 0.55 -1.50 0.35 0 0.40 -0.55 0.20 -1.55 -0.50 -2.30 -0.55 -2.50 -1 -5.10 -0.20 -1.35 -0.70 -2.55 -1.10 -2.70 -0.45 -0.20 -0.55 -0.40 -0.20 -0.60 0.60 -0.40 -0.10 -4.05 -0.85 -4.50 -0.30 -0.15 -0.50 -0.85 -0.50 -1.55 0 -2 -0.70 -4.20 -1.45 -4.65 -0.40 -0.25 -0.55 -0.85 -0.35 -1.60 0.30 -1.30 -1.60 -6.25 -2.40 -6.25 -0.25 0 -0.30 -0.45 -0.15 -1 0.20 -0.55 0.10 -1 -0.20 -1 -0.30 0 -0.40 -0.35 -0.25 -0.75 0.20 -0.40 -0.15 -1.75 -0.75 -3 -0.60 -1.25 -1.05 -2.45 -1.05 -2.70 0 -0.25 -0.35 -0.60 -0.80 -0.75 -0.50 -0.20 -0.70 -0.60 -0.50 -1.10 0.20 -0.50 -0.15 -1.25 -1 -2.05 -0.85 -0.80 -1.20 -1.55 -1.05 -2.20 0.15 -0.55 -0.20 -1.95 -0.75 -3.10 -0.60 -1.15 -1.40 -2.85 -1.85 -3.70 -0.40 -0.90 -0.95 -1.65 -1.20 -1.65 -0.20 0 -0.25 -0.20 -0.10 -0.50 0.15 -0.30 -0.05 -0.50 -0.45 -0.50 -0.45 0 -0.80 -0.40 -0.80 -0.95 0 -0.55 -0.25 -1.15 -0.50 -1.30 -0.30 -0.20 -0.40 -0.55 -0.20 -0.80 0.15 -0.30 -0.15 -0.65 -0.70 -0.80 -0.55 -0.10 -1.55 -1.25 -2.20 -2.45 -0.95 -1.85 -1.05 -2.30 -0.45 -2.65 0.55 -0.35 0.30 -0.65 -0.95 -1.30 -1.30 -0.65 -1.50 -0.95 -0.95 -1.35 0.60 -0.35 0.55 -0.55 -0.25 -1.05 -2.60 -1.65 -3.95 -3.20 -4 -4.75 0 -0.90 -0.25 -1.60 -0.50 -1.60 -0.60 0 -5.20 -4.95 -6.05 -6.55 -0.40 -0.70 -1.25 -1.65 -1.90 -2.10 -1.25 -0.80 -3.85 -4.25 -4.50 -5.95 -0.15 -0.50 -0.65 -0.90 -1.10 -0.90 -0.40 0 -0.80 -0.20 -0.80 -0.50 -0.05 -0.25 -0.10 -0.75 -0.15 -1.05 0 -0.30 -0.55 -0.80 -1.20 -1.15 -1.55 -0.85 -6.45 -5.70 -7.50 -7.40 -0.45 -0.75 -1.10 -1.40 -1.45 -1.40 -0.30 0 -0.90 -0.40 -1.25 -0.95 -0.70 -1 -5.20 -4.55 -5.80 -4.55 -0.60 -0.05 -2.60 -1.85 -2.60 -2.40 0 -0.25 -0.95 -1.10 -2.10 -1.90 -1.20 -0.75 -2.85 -2.05 -3.75 -2.85 -0.85 -0.80 -2 -1.70 -2.55 -2.05 -2.75 -1.60 -5.20 -3.40 -5.45 -4.05 -0.15 -0.40 -0.60 -0.75 -1 -0.75 -0.40 0 -1.65 -0.75 -2.80 -1.70 -1.15 -0.90 -3.15 -2.25 -4.45 -3 -1.25 -0.75 -2.55 -1.65 -2.90 -2.05 -0.30 -0.35 -1.25 -0.85 -2.05 -1 -0.85 -0.20 -1.65 -0.65 -1.80 -1 -0.10 -0.40 -0.95 -0.85 -1.80 -1.05 -0.90 -0.15 -1.80 -0.50 -2.10 -0.70 -1.25 -1 -8.85 -4.95 -12 -6.25 -1.10 -0.45 -2.85 -1.25 -3.85 -1.80 -1 -0.50 -2.20 -0.95 -2.70 -0.95 -0.45 0 -1.65 -0.45 -2.65 -0.95 -1 -0.55 -3.80 -1.50 -6.30 -2.10 -2.45 -0.60 -4.75 -1.40 -5.05 -1.80 -0.30 -0.35 -1 -0.65 -1.55 -0.65 -0.50 0 -1.25 -0.30 -1.60 -0.65 -0.50 -0.40 -0.75 -0.45 -0.90 -0.05 -0.20 0.60 -2.55 0.35 -3.55 -0.45 -0.35 -0.25 -1.70 -0.55 -3 -0.65 -1.30 -0.10 -2.80 -0.40 -3.35 -0.65 -0.55 -0.25 -2.25 -0.70 -3.75 -0.95 -1.50 -0.30 -4.45 -0.90 -6.50 -1.30 -7.35 -1.50 -26.50 -2.40 -35.75 -1.70 -3.30 0.25 -6.90 0.55 -8 0.60 -1.10 0.05 -2.55 0.25 -3.25 0.45 -0.70 0.20 -3.40 0.55 -6 0.80 -5.90 0.60 -8.60 1.15 -10.20 2.25 -1.05 0.65 -1.45 0.70 -2.25 0.20 -0.80 -0.50 -1.15 -0.45 -1.95 0.25 -0.50 0.45 -1.60 0.85 -2.40 0.85 -0.80 0 -2.35 0.45 -3.45 0.95 -2 0.95 -12.80 4.05 -14.25 4.10 -0.40 0 -1.20 0.20 -1.75 0.45 -0.55 0.20 -1.70 0.65 -2.60 1 -0.85 0.30 -2.10 1.20 -2.80 2 -0.85 0.95 -2.10 1.60 -3.90 1.95 -1.45 0.35 -3.35 1.10 -4.20 1.75 -0.80 0.65 -2.30 1.35 -3.25 1.55 -2.55 0.55 -5.50 2.35 -5.50 3.40 0 0.60 -0.40 0.85 -1.45 0.85 -1.55 0 -6.25 2.25 -8.90 4.30 -0.85 0.65 -1.80 1.20 -2.05 1.20 -0.20 0 -0.95 0.55 -1.60 1.25 -0.65 0.70 -1.50 1.15 -1.85 1.05 -0.35 -0.15 -1.60 0.70 -2.75 1.95 -1.40 1.45 -2.65 2.25 -3.65 2.35 -1.20 0.10 -1.55 0.40 -1.75 1.65 -0.20 1.20 -0.55 1.55 -1.65 1.65 -0.75 0.10 -1.65 0.60 -2 1.15 -0.30 0.50 -0.80 0.95 -1.10 0.95 -0.30 0 -1.05 0.50 -1.75 1.15 -0.70 0.60 -1.90 1.50 -2.65 2 -1.15 0.75 -1.30 1.05 -0.85 1.60 0.85 1 0.15 1.75 -1.55 1.75 -1.15 0 -2.20 0.65 -4.25 2.65 -1.50 1.40 -2.60 2.85 -2.50 3.20 0.15 0.35 -0.05 0.50 -0.40 0.35 -0.35 -0.15 -1.50 0.80 -2.60 2.05 -1.05 1.30 -2.95 3.40 -4.20 4.75 -3.20 3.45 -7.15 8.20 -11.40 13.75 -0.60 0.80 -6.80 10.25 -8.65 13.25 -2.95 4.70 -10.30 19.95 -12.70 26.40 -7.65 20.30 -10.90 35.80 -12 56.85 -0.45 8.55 1.10 26.60 3.05 35.75 0.40 2.05 0.90 4.45 1 5.25 0.55 3.25 2.30 11.05 2.70 12 0.25 0.55 0.70 1.90 1 3 0.30 1.10 0.75 2.45 0.95 3 0.25 0.55 1.10 3.05 1.90 5.50 2.10 6.30 6.85 18.30 8.10 20.60 0.30 0.50 1.10 2.25 1.85 3.90 2.30 5.30 5.60 11.70 9.95 19.50 0.90 1.65 2.50 4.60 3.50 6.50 1 1.95 2.45 4.35 3.30 5.35 0.80 1 1.45 2 1.45 2.25 0.05 0.20 1 1.90 2.15 3.70 4.40 7 9.10 14.20 9.35 14.45 0.15 0.15 0.70 1.10 1.20 2.15 0.55 1.05 1.45 2.40 2.05 3 0.60 0.60 3.40 4.50 6.25 8.60 2.85 4.15 6.20 8.80 7.45 10.45 1.25 1.60 3.55 4.65 5.10 6.75 1.55 2.10 3.55 4.60 4.40 5.60 0.85 1 1.55 2.10 1.55 2.40 0 0.30 0.20 0.55 0.45 0.55 0.20 0 1 0.85 1.65 1.90 1.10 1.60 5.85 7.55 8.15 10.25 0.40 0.45 0.75 1 0.75 1.15 0 0.15 0.55 0.75 1.25 1.30 0.70 0.55 1.25 1.30 1.25 1.70 0 0.40 0.20 0.70 0.45 0.70 0.30 0 1.95 1.85 3.75 4.15 1.80 2.25 3.55 4.40 3.85 4.80 0.35 0.35 3.30 3.85 6.55 7.75 3.30 3.85 6.85 8.05 7.90 9.30 6.35 7.35 9 10.55 9 10.90 0 0.20 0.70 0.80 1.50 1.35 0.85 0.55 2.05 1.90 2.70 3 0.70 1.10 2.20 3 3.40 4.25 1.15 1.25 2.70 3.05 3.40 4 0.70 0.95 2.45 2.90 3.90 4.35 1.40 1.40 2.60 2.75 2.60 3 0 0.20 0.75 1 1.70 1.75 0.95 0.80 2.15 2.05 2.65 2.90 0.45 0.80 1.10 1.50 1.40 1.50 0.25 0.05 1.20 0.95 2 2.05 0.85 1.10 2.35 2.80 3.40 3.80 1 1 1.85 2 1.85 2.25 0 0.20 0.95 1.35 2.15 2.55 3.60 3.55 11.55 12.45 12.40 13.80 1 1.60 2.75 3.05 3.15 2.70 0.15 -0.20 0.30 -0.05 0.30 0.30 0 0.35 0.25 0.45 0.50 0.30 0.30 -0.15 0.50 -0.05 0.50 0.25 0 0.35 0.40 0.45 1 0.25 0.55 -0.15 1 -0.10 1 0.15 0 0.25 0.65 0.35 1.45 0.20 0.80 -0.10 2.30 0.10 3.35 0.40 1.40 0.50 1.95 0.50 2.10 0.05 0.10 -0.30 0.60 -0.55 1.10 -0.55 0.50 0 2.40 -0.45 4.20 -1 2.55 -0.80 3.95 -1.65 6.25 -3.75 1.60 -1.50 3.20 -2.75 3.50 -2.75 0.35 0 0.45 -0.20 0.30 -0.50 -0.15 -0.25 0.05 -0.50 0.50 -0.50 0.45 0 0.65 -0.20 0.50 -0.50 -0.15 -0.25 0.05 -0.50 0.50 -0.50 0.45 0 0.65 -0.20 0.50 -0.50 -0.15 -0.25 0.05 -0.50 0.50 -0.50 0.45 0 0.65 -0.20 0.50 -0.50 -0.15 -0.25 -0.05 -0.50 0.20 -0.50 0.30 0 0.50 -0.15 0.45 -0.35 -0.25 -0.85 1.75 -3.15 2.70 -3.15 0.70 0 0.90 -0.25 0.70 -0.80 -0.20 -0.55 0.05 -0.90 0.75 -1.05 0.55 -0.15 0.90 -0.55 0.75 -0.95 -0.15 -0.40 0.20 -0.70 0.85 -0.80 0.65 -0.10 1.10 -0.50 1.10 -1 0 -0.50 1.10 -2.15 2.40 -3.70 1.30 -1.55 2.35 -3 2.35 -3.25 0 -0.25 0.55 -0.55 1.25 -0.75 0.70 -0.15 1.15 -0.50 1 -0.70 -0.35 -0.55 2.55 -4.05 3.90 -4.75 0.60 -0.30 1.05 -0.80 1 -1.05 -0.05 -0.30 1 -1.70 2.35 -3.15 1.30 -1.45 2.40 -2.75 2.40 -2.90 0 -0.60 5.25 -6.15 6.15 -6.40 0.60 -0.20 0.90 -0.65 0.75 -1 -0.35 -0.90 3.55 -5.25 4.70 -5.25 1.05 0 3.20 -2.75 2.75 -3.50 -0.40 -0.60 3.15 -4.50 4.10 -4.50 0.45 0 0.65 -0.30 0.50 -0.70 -0.30 -0.75 1.10 -2.30 2.05 -2.30 0.30 0 0.45 -0.30 0.30 -0.70 -0.35 -0.85 1.50 -2.80 2.60 -2.80 0.50 0 0.70 -0.30 0.50 -0.75 -0.15 -0.45 0 -0.75 0.45 -0.75 0.40 0 0.60 -0.30 0.45 -0.65 -0.25 -0.70 1.10 -2.15 2.95 -3.10 0.60 -0.30 1.05 -0.95 1.05 -1.40 -0.05 -0.45 0.25 -0.85 0.65 -0.85 0.40 0 0.55 -0.25 0.40 -0.55 -0.40 -0.65 1.15 -2.45 2.10 -2.45 0.40 0 0.55 -0.25 0.40 -0.55 -0.20 -0.30 0.15 -0.65 0.75 -0.80 0.65 -0.20 0.85 -0.40 0.50 -0.65 -0.35 -0.20 0.30 -1.25 1.85 -2.90 1.30 -1.45 2.45 -2.90 2.55 -3.20 0.30 -1.15 1.75 -2.40 2.75 -2.40 0.65 0 0.85 -0.25 0.65 -0.75 -0.15 -0.40 -0.05 -0.75 0.25 -0.75 0.30 0 0.35 -0.20 0.20 -0.50 -0.15 -0.25 0.05 -0.50 0.45 -0.50 0.45 0 0.75 -0.20 0.70 -0.45 -0.25 -0.70 2.05 -3.55 2.85 -3.55 0.70 0 0.95 -0.60 0.80 -1.60 0 -0.25 0.30 -0.40 0.75 -0.40 0.40 0 0.65 -0.20 0.50 -0.45 -0.15 -0.25 0.05 -0.60 0.50 -0.75 0.40 -0.15 0.65 -0.50 0.45 -0.75 -0.15 -0.30 0.15 -0.70 0.60 -1 0.50 -0.30 0.75 -0.55 0.50 -0.55 -0.85 0 5.20 -7.50 6.05 -7.50 0.35 0 0.50 -0.20 0.35 -0.50 -0.15 -0.25 -0.05 -0.50 0.25 -0.50 0.30 0 0.40 -0.20 0.25 -0.50 -0.15 -0.25 0.05 -0.50 0.50 -0.50 0.45 0 0.70 -0.20 0.55 -0.45 -0.15 -0.25 0.45 -1.20 1.30 -2.10 0.90 -0.95 1.60 -1.85 1.65 -2 0 -0.70 3.35 -4.95 3.80 -4.95 0.30 0 0.35 -0.20 0.20 -0.50 -0.15 -0.25 0.15 -0.50 0.70 -0.50 1.10 0 2.30 -1.70 1.80 -2.50 -0.15 -0.30 0.05 -0.50 0.50 -0.50 0.45 0 0.65 -0.20 0.50 -0.50 -0.15 -0.25 0.05 -0.50 0.45 -0.50 0.90 0 2 -1.75 2.05 -3.25 0.05 -1.10 5.10 -8.25 5.80 -8.25 0.25 0 0.40 -0.15 0.35 -0.35 -0.15 -0.70 1 -2.95 1.80 -3.60 0.45 -0.35 0.80 -1 0.80 -1.35 0 -0.40 0.15 -0.70 0.40 -0.70 0.20 0 0.90 -0.90 1.60 -2 0.70 -1.10 1.55 -2 1.90 -2 0.35 0 0.55 -0.20 0.35 -0.45 -0.40 -0.65 2.80 -5.05 3.65 -5.05 0.35 0 0.60 -0.30 0.45 -0.60 -0.35 -1.10 2.55 -5.90 3.55 -5.90 0.35 0 0.55 -0.20 0.40 -0.45 -0.35 -0.55 4.40 -8.50 5.60 -9.40 0.45 -0.35 0.60 -0.65 0.30 -0.65 -0.25 0 0 -0.35 0.50 -0.75 0.55 -0.40 0.85 -0.75 0.65 -0.75 -0.20 0 -0.05 -0.65 0.40 -1.50 0.45 -0.80 0.95 -1.50 1.20 -1.50 0.20 0 0.40 -0.30 0.40 -0.60 0 -1 2.20 -4.40 2.80 -4.40 0.30 0 0.35 -0.15 0.20 -0.30 -0.50 -0.55 0.60 -2.20 1.50 -2.20 0.50 0 0.70 -0.30 0.50 -1 -0.15 -0.55 0 -1 0.30 -1 0.30 0 0.40 -0.15 0.20 -0.30 -0.45 -0.50 2 -5.05 2.90 -5.40 0.55 -0.20 0.70 -0.65 0.50 -1.25 -0.20 -0.65 0.05 -1.35 0.70 -2 0.50 -0.50 0.85 -1.10 0.70 -1.25 -0.20 -0.15 -0.05 -0.30 0.30 -0.30 0.35 0 0.50 -0.20 0.30 -0.45 -0.15 -0.25 0.05 -0.75 0.40 -1.15 0.40 -0.35 0.60 -0.95 0.45 -1.30 -0.10 -0.30 0.15 -0.75 0.60 -0.90 0.45 -0.15 0.65 -0.50 0.50 -0.75 -0.15 -0.25 -0.05 -0.45 0.25 -0.45 0.30 0 0.40 -0.35 0.25 -0.75 -0.20 -0.40 -0.10 -0.75 0.15 -0.75 0.25 0 0.50 -0.30 0.50 -0.60 0 -0.90 1.70 -4.40 2.10 -4.40 0.20 0 0.40 -0.50 0.40 -1.10 0.05 -0.65 0.45 -1.40 0.90 -1.70 0.40 -0.30 0.65 -0.90 0.50 -1.30 -0.20 -0.45 0.05 -0.90 0.50 -1.10 0.55 -0.20 0.70 -0.60 0.50 -1.30 -0.20 -0.60 -0.10 -1 0.25 -1 0.30 0 0.40 -0.20 0.25 -0.50 -0.15 -0.30 -0.05 -0.50 0.25 -0.50 0.35 0 0.50 -0.30 0.35 -0.70 -0.15 -0.40 0.05 -0.85 0.50 -1 0.45 -0.20 0.65 -0.70 0.50 -1.30 -0.15 -0.60 0 -1 0.35 -1 0.80 0 1.85 -3 1.50 -4.35 -0.20 -0.80 -0.05 -1.25 0.50 -1.45 0.50 -0.20 0.70 -0.65 0.55 -1.20 -0.15 -0.50 0.05 -1.25 0.45 -1.65 0.40 -0.40 0.60 -1.15 0.50 -1.70 -0.15 -0.55 0 -1.30 0.40 -1.70 0.35 -0.40 0.70 -1.05 0.70 -1.45 0.25 -2.45 1.25 -6 1.70 -6 0.25 0 0.30 -0.40 0.15 -0.95 -0.10 -0.50 0.10 -1.25 0.50 -1.65 0.45 -0.40 0.65 -1.25 0.50 -2 -0.15 -0.75 0.10 -1.55 0.60 -2.05 0.50 -0.50 0.70 -1.25 0.50 -1.80 -0.15 -0.60 0 -1.05 0.55 -1.25 0.60 -0.25 0.75 -0.80 0.60 -2.30 -0.10 -1.10 0 -2 0.25 -2 0.25 0 0.35 -0.30 0.25 -0.60 -0.15 -0.35 0.10 -0.95 0.50 -1.35 0.40 -0.40 0.60 -1.30 0.50 -2.15 -0.15 -0.75 0 -1.40 0.25 -1.40 0.25 0 0.30 -1.25 0.10 -2.95 -0.30 -2.50 -0.20 -3 0.55 -3.45 0.70 -0.40 0.90 -1.20 0.90 -4.15 0.05 -2.05 0.20 -3.80 0.40 -3.95 0.20 -0.15 0.50 -2.80 0.70 -5.90 0.30 -4.65 0.25 -5.60 -0.35 -5.60 -0.55 0 -0.55 -0.10 0.05 -0.50 0.60 -0.40 0.65 -0.65 0.15 -1.50 -0.80 -1.25 -0.85 -4 -0.10 -4 0.40 0 0.50 -1.55 0.20 -5.60 -0.25 -4.05 -0.20 -5.50 0.20 -5.15 1.45 1.45 1.15 23.55 -0.50 35 -2 13.90 -7.55 36.40 -10.45 42.50 -0.25 0.55 -1.85 4.60 -3.55 9 -2.65 6.95 -10.40 23.20 -14.40 30.30 -0.70 1.30 -1.90 3.45 -2.65 4.75 -1.50 2.80 -4.70 8.20 -5.25 9 -0.20 0.25 -0.65 0.95 -1 1.50 -11.05 17.85 -28.20 42.95 -30.85 45.15 -0.45 0.35 -0.80 0.90 -0.80 1.15 0 0.20 -1.20 1.95 -2.60 3.80 -1.45 1.85 -3.65 4.70 -4.90 6.35 -1.95 2.55 -7.15 9.25 -9.15 11.75 -0.35 0.40 -2.85 3.55 -5.55 7 -2.75 3.45 -5.70 7.05 -6.50 8.05 -0.85 1 -2.35 2.75 -3.30 3.95 -0.95 1.25 -3.65 4.50 -6 7.25 -5.05 6 -7.70 9.25 -9.60 11.65 -0.75 0.95 -2.60 3.05 -4 4.65 -1.45 1.65 -3.30 3.75 -4.15 4.75 -3.95 4.80 -11.90 14.05 -15.50 18.05 -2.20 2.45 -5.80 6.60 -8 9.20 -2.20 2.60 -4.25 4.95 -4.55 5.20 -0.30 0.30 -2.40 2.75 -4.70 5.50 -7.55 9.05 -12.15 12.95 -16.55 14.10 -2.60 0.65 -10.70 0.65 -12.45 0z m-33 -457.60 c0.50 -0.60 0.50 -0.75 -0.20 -0.75 -0.45 0 -0.80 0.35 -0.80 0.75 0 0.40 0.10 0.75 0.20 0.75 0.10 0 0.45 -0.35 0.80 -0.75z"/>
  <path d="M506.90 624.90 c-5.05 -5.50 -12.10 -13.05 -14.80 -15.90 -1.70 -1.80 -3.75 -4.25 -4.55 -5.40 -0.75 -1.20 -3.65 -4.55 -6.40 -7.50 -2.75 -2.95 -5.70 -6.20 -6.60 -7.20 -0.90 -1.05 -1.95 -1.90 -2.35 -1.90 -0.40 0 -0.70 -0.45 -0.70 -1 0 -0.60 -1.40 -2.55 -3.10 -4.45 -1.75 -1.85 -3.65 -4.05 -4.25 -4.85 -2.90 -3.85 -6.65 -8.25 -7.95 -9.35 -0.80 -0.70 -2.55 -2.85 -3.95 -4.75 -1.35 -1.95 -3 -3.75 -3.60 -4.05 -0.65 -0.30 -1.15 -0.95 -1.15 -1.40 0 -0.50 -1.25 -2.20 -2.75 -3.80 -1.50 -1.60 -2.75 -3.10 -2.75 -3.35 0 -0.30 -0.30 -0.50 -0.60 -0.50 -0.35 -0.05 -1.15 -0.80 -1.75 -1.75 -0.65 -0.95 -1.65 -2.55 -2.25 -3.50 -0.65 -0.95 -1.50 -1.85 -2 -2 -0.45 -0.15 -1.05 -0.95 -1.35 -1.75 -0.25 -0.85 -0.75 -1.50 -1 -1.50 -0.30 0 -1.15 -0.95 -1.90 -2.10 -1.30 -2 -2.45 -3.50 -6.55 -8.30 -2.10 -2.45 -6.40 -8.30 -9.25 -12.60 -1.20 -1.80 -2.90 -4 -3.75 -4.85 -0.90 -0.85 -1.60 -2 -1.60 -2.50 0 -0.50 -0.45 -1.20 -1 -1.55 -0.55 -0.35 -1 -1.05 -1 -1.60 0 -0.50 -0.45 -1.20 -1 -1.50 -0.55 -0.30 -1 -0.95 -1 -1.45 0 -0.50 -0.75 -1.65 -1.65 -2.60 -0.95 -0.95 -1.85 -2.35 -2.05 -3.10 -0.15 -0.75 -0.55 -1.35 -0.80 -1.35 -0.30 0 -0.50 -0.35 -0.50 -0.75 0 -0.45 -0.60 -1 -1.30 -1.25 -0.70 -0.30 -1.55 -1.15 -1.85 -2 -0.30 -0.85 -0.75 -1.50 -1 -1.50 -0.20 0 -0.80 -0.95 -1.30 -2.10 -0.50 -1.20 -1.40 -2.60 -2 -3.10 -0.55 -0.55 -1.05 -1.30 -1.05 -1.70 0 -0.40 -0.55 -1.35 -1.25 -2.20 -0.70 -0.80 -1.25 -1.80 -1.25 -2.20 0 -0.40 -0.25 -0.70 -0.50 -0.70 -0.30 0 -0.75 -0.50 -1 -1.10 -0.30 -0.65 -1.10 -2.15 -1.75 -3.35 -0.70 -1.20 -1.15 -2.30 -1.05 -2.40 0.10 -0.10 -0.45 -0.85 -1.20 -1.65 -0.75 -0.80 -1.75 -2.25 -2.20 -3.25 -0.45 -0.95 -1.25 -1.95 -1.75 -2.25 -1.20 -0.60 -1.85 -3 -0.95 -3.60 0.50 -0.30 0.40 -0.45 -0.35 -0.70 -1.60 -0.45 -6.05 -8.15 -5.55 -9.55 0.15 -0.35 -0.05 -0.65 -0.40 -0.65 -0.40 0 -1.05 -0.60 -1.55 -1.30 -0.70 -1.10 -0.75 -1.40 -0.20 -1.75 0.55 -0.35 0.40 -0.70 -0.70 -1.55 -1.10 -0.80 -1.25 -1.15 -0.75 -1.45 0.50 -0.35 0.55 -0.45 0 -0.45 -0.35 0 -0.50 -0.25 -0.35 -0.55 0.20 -0.30 -0.10 -0.65 -0.70 -0.80 -1 -0.25 -2 -2.40 -1.40 -3 0.20 -0.15 -0.20 -0.70 -0.80 -1.25 -0.70 -0.65 -0.90 -1.05 -0.50 -1.20 0.85 -0.35 0.20 -1.70 -0.80 -1.70 -0.60 0 -0.65 -0.10 -0.15 -0.45 0.55 -0.35 0.55 -0.55 -0.10 -1.15 -0.40 -0.45 -0.60 -0.90 -0.45 -1.10 0.20 -0.15 0 -0.30 -0.35 -0.30 -0.35 0 -0.50 -0.15 -0.35 -0.30 0.20 -0.20 0 -0.95 -0.40 -1.65 -0.35 -0.70 -1.30 -2.95 -2.05 -4.90 -0.75 -2 -1.55 -3.65 -1.80 -3.65 -0.25 0 -0.30 -0.20 -0.15 -0.50 0.30 -0.50 -1.55 -4.55 -2.35 -5.05 -0.25 -0.15 -0.40 -0.60 -0.35 -1 0.20 -0.95 -1.15 -5.45 -1.65 -5.45 -0.20 0 -0.25 -0.35 -0.10 -0.75 0.20 -0.40 0.05 -0.75 -0.30 -0.75 -0.30 0 -0.40 -0.25 -0.20 -0.60 0.20 -0.30 -0.05 -0.85 -0.55 -1.20 -0.50 -0.35 -0.75 -1 -0.60 -1.40 0.45 -1.15 -1.05 -5.65 -2 -6 -0.70 -0.30 -0.75 -0.45 -0.20 -0.80 0.45 -0.25 0.55 -0.70 0.30 -1.30 -0.50 -1.15 -0.60 -1.55 -0.65 -3.30 -0.05 -0.75 -0.45 -1.65 -0.85 -2.05 -0.45 -0.50 -0.60 -1.30 -0.40 -2.45 0.15 -1.20 0 -2 -0.45 -2.45 -0.50 -0.45 -0.70 -1.30 -0.50 -2.70 0.15 -1.40 -0.05 -2.30 -0.50 -2.80 -0.95 -0.90 -1.70 -5.45 -0.95 -5.45 0.30 0 0.55 -1 0.55 -2.25 0 -1.75 -0.20 -2.25 -0.80 -2.25 -0.60 0 -0.75 -0.25 -0.45 -1.10 0.20 -0.65 0.50 -2.15 0.70 -3.40 0.50 -3.10 0.95 -1.70 1.25 4.25 0.45 8.05 1.20 12.95 4 25.40 0.75 3.30 3.30 11.45 4.55 14.60 0.35 0.85 1.10 2.85 1.70 4.50 1.70 4.45 6 14.65 7.35 17.35 0.70 1.35 1.20 2.50 1.20 2.65 0.05 0.50 7.50 14.75 10.25 19.50 1.60 2.75 3.15 5.45 3.45 6 0.30 0.55 1.05 1.70 1.60 2.50 0.60 0.85 1.55 2.40 2.15 3.50 1.30 2.45 1.35 2.50 6.45 10.15 2.25 3.45 4.10 6.40 4.10 6.60 0 0.20 0.35 0.70 0.80 1.05 0.45 0.35 3.15 4.15 6 8.45 2.90 4.25 6 8.75 6.95 10 0.95 1.25 1.90 2.60 2.10 3 0.30 0.65 3.05 4.35 4.65 6.35 0.30 0.35 0.50 0.80 0.50 1.10 0 0.25 0.20 0.55 0.40 0.65 0.25 0.10 1.60 1.75 3.10 3.65 1.50 1.95 6.20 7.85 10.45 13.20 4.30 5.30 8.25 10.25 8.75 11 0.55 0.70 1.70 2.10 2.50 3.10 0.85 1 1.90 2.20 2.30 2.75 3.25 4.10 8.10 10 13 15.65 3.15 3.70 8 9.35 10.75 12.55 2.75 3.20 7.35 8.50 10.25 11.80 2.90 3.25 7.05 8.10 9.25 10.70 4.65 5.55 9.60 11.20 14.50 16.45 1.95 2.10 4.60 5.05 5.95 6.55 l2.40 2.75 1.10 -1.30 c1.20 -1.45 14.25 -16.30 15.35 -17.45 1.20 -1.25 15.50 -17.90 21.05 -24.50 3.10 -3.65 6.35 -7.35 7.80 -8.95 0.90 -1 3.40 -3.95 5.50 -6.55 2.10 -2.60 4.05 -5 4.35 -5.30 1.15 -1.25 5 -5.90 10.45 -12.70 3.20 -4 6.20 -7.70 6.65 -8.30 0.50 -0.55 1.35 -1.65 1.90 -2.40 0.55 -0.80 1.25 -1.65 1.50 -2 0.80 -0.85 4.85 -5.90 6.25 -7.80 0.70 -0.90 3.30 -4.25 5.75 -7.45 17.75 -22.75 41.25 -59.15 52.30 -81.05 3.95 -7.75 8.75 -18.80 10.25 -23.50 0.40 -1.25 0.95 -2.70 1.20 -3.25 1.10 -2.30 4.45 -13.25 5.90 -19.25 3.75 -15.25 4.90 -35.90 2.75 -50.75 -2.45 -16.85 -6.25 -29.30 -13.95 -45.50 -1 -2.10 -5.75 -11 -7.05 -13.15 -0.60 -1.05 -1.55 -2.65 -2.10 -3.65 -0.55 -1 -1.75 -2.80 -2.65 -4 -0.90 -1.25 -2.40 -3.35 -3.35 -4.70 -8.95 -13.05 -27 -30.80 -41 -40.30 -9.65 -6.55 -22.65 -13.50 -31.80 -16.95 -1.65 -0.60 -3.70 -1.45 -4.60 -1.80 -3.80 -1.70 -14.55 -4.70 -21 -5.90 -2.15 -0.45 -5.45 -1.10 -7.40 -1.50 -6.50 -1.30 -22.90 -2.45 -30.75 -2.10 -11.80 0.50 -26.80 2.80 -36.25 5.45 -5.75 1.65 -11.40 3.45 -12.15 3.85 -0.50 0.20 -1.95 0.80 -3.35 1.30 -1.35 0.45 -3.85 1.45 -5.50 2.20 -1.65 0.70 -3.80 1.65 -4.75 2 -0.95 0.35 -1.95 0.80 -2.25 1 -0.25 0.20 -2.20 1.20 -4.25 2.25 -9.70 4.95 -20.75 12.35 -29.75 19.95 -7.55 6.35 -19.10 18.40 -23.65 24.65 -1 1.40 -2.80 3.80 -3.90 5.25 -5.35 6.95 -14.35 23 -18.80 33.65 -6.25 14.75 -10.10 30.05 -11.40 45.25 -0.80 9.85 -0.85 9.80 -0.80 -0.10 0 -5.20 0.25 -9.40 0.45 -9.40 0.25 0 0.25 -0.50 0.10 -1.05 -0.25 -0.65 -0.10 -1.25 0.30 -1.45 0.50 -0.35 0.50 -0.60 0 -1.15 -0.50 -0.65 -0.40 -0.95 0.50 -1.80 0.85 -0.80 1 -1.30 0.75 -2.75 -0.25 -1.25 -0.15 -1.80 0.25 -1.80 0.30 0 0.45 -0.40 0.30 -1 -0.15 -0.55 0 -1 0.30 -1 0.35 0 0.25 -0.25 -0.15 -0.50 -0.55 -0.35 -0.55 -0.50 -0.10 -0.50 0.35 0 0.50 -0.25 0.35 -0.50 -0.15 -0.25 -0.10 -0.50 0.15 -0.50 0.60 0 1.80 -4.25 1.35 -4.95 -0.15 -0.30 -0.05 -0.55 0.30 -0.55 0.35 0 0.45 -0.50 0.35 -1.25 -0.15 -0.70 -0.05 -1.25 0.15 -1.25 0.25 0 0.30 -0.35 0.15 -0.75 -0.20 -0.40 -0.05 -0.75 0.30 -0.75 0.35 0 0.50 -0.30 0.35 -0.70 -0.15 -0.40 0.05 -0.85 0.50 -1 0.45 -0.20 0.65 -0.70 0.55 -1.20 -0.15 -0.50 0.05 -1.15 0.45 -1.55 0.40 -0.35 0.55 -1.05 0.40 -1.55 -0.15 -0.50 0.05 -1.25 0.50 -1.70 0.45 -0.45 0.70 -0.80 0.50 -0.80 -0.20 0 0.05 -0.35 0.50 -0.80 0.45 -0.45 0.65 -1.20 0.50 -1.70 -0.20 -0.60 0.05 -1.10 0.60 -1.45 0.50 -0.25 0.75 -0.65 0.55 -0.80 -0.20 -0.20 0 -0.70 0.40 -1.10 0.40 -0.45 0.60 -1.15 0.45 -1.70 -0.20 -0.60 -0.05 -1.05 0.50 -1.25 0.45 -0.20 0.70 -0.65 0.55 -1 -0.25 -0.70 1.20 -3.70 1.80 -3.70 0.20 0 0.25 -0.35 0.10 -0.75 -0.20 -0.40 0.05 -0.85 0.50 -1.05 0.45 -0.15 0.70 -0.50 0.55 -0.70 -0.15 -0.25 0.05 -0.75 0.45 -1.15 0.40 -0.40 0.60 -0.85 0.45 -1.05 -0.20 -0.15 0 -0.30 0.35 -0.30 0.35 0 0.55 -0.15 0.35 -0.30 -0.40 -0.45 1.55 -4.20 2.20 -4.20 0.30 0 0.35 -0.20 0.20 -0.50 -0.15 -0.30 -0.05 -0.50 0.25 -0.50 0.30 0 0.45 -0.20 0.30 -0.45 -0.15 -0.25 0.05 -0.60 0.50 -0.75 0.40 -0.15 0.60 -0.50 0.45 -0.80 -0.15 -0.25 -0.05 -0.50 0.25 -0.50 0.30 0 0.40 -0.20 0.25 -0.50 -0.15 -0.25 0.05 -0.50 0.45 -0.50 0.50 0 0.65 -0.30 0.50 -0.75 -0.15 -0.40 0 -0.85 0.40 -1 0.40 -0.15 0.75 -0.60 0.75 -0.95 0 -0.95 2.15 -4.30 2.70 -4.30 0.30 0 0.35 -0.20 0.20 -0.50 -0.15 -0.25 0.10 -0.50 0.55 -0.50 0.50 0 0.70 -0.15 0.55 -0.30 -0.50 -0.55 0.60 -2.20 1.45 -2.20 0.50 0 0.70 -0.30 0.50 -0.75 -0.15 -0.45 0 -0.75 0.50 -0.75 0.40 0 0.60 -0.20 0.45 -0.50 -0.15 -0.25 0.25 -1.05 0.90 -1.70 0.70 -0.70 1.15 -1.35 1.05 -1.45 -0.10 -0.10 0.65 -1.10 1.65 -2.20 1.05 -1.15 1.95 -2.25 1.95 -2.45 0.05 -0.25 0.55 -0.70 1.15 -1 0.60 -0.30 1.10 -0.65 1.05 -0.75 -0.30 -0.85 1.20 -2.95 2.60 -3.60 0.90 -0.45 1.45 -0.85 1.25 -0.85 -0.20 0 -0.15 -0.45 0.15 -1.05 0.35 -0.60 0.95 -0.95 1.60 -0.85 0.60 0.10 1.15 -0.15 1.25 -0.45 0.15 -0.35 -0.05 -0.65 -0.35 -0.65 -0.50 0 -0.50 -0.20 0 -0.75 0.35 -0.40 1 -0.75 1.50 -0.75 0.95 0 1.95 -0.90 1.90 -1.75 -0.05 -0.25 0.40 -0.70 0.90 -1 0.55 -0.25 0.95 -0.85 0.95 -1.25 0 -0.40 0.75 -1.10 1.65 -1.55 0.90 -0.50 1.60 -0.95 1.55 -1 -0.45 -0.65 3.35 -3.95 4.55 -3.95 0.30 0 0.40 -0.25 0.25 -0.50 -0.15 -0.30 0.05 -0.50 0.45 -0.50 0.45 0 0.80 -0.20 0.80 -0.45 0 -0.80 2.50 -2.95 7.50 -6.35 2.80 -1.90 5.40 -3.65 5.90 -3.95 0.50 -0.25 1.90 -1.10 3.20 -1.85 1.30 -0.80 2.70 -1.40 3.10 -1.40 0.45 0 0.75 -0.25 0.70 -0.55 -0.15 -0.65 11.65 -6.90 18.10 -9.60 10.85 -4.50 23.35 -8.60 25.30 -8.20 0.65 0.10 1.20 0 1.20 -0.30 0 -0.25 0.75 -0.35 1.75 -0.20 1 0.15 1.75 0.10 1.75 -0.20 0 -0.30 0.70 -0.35 1.75 -0.15 1.20 0.20 1.75 0.15 1.75 -0.30 0 -0.40 0.45 -0.50 1.25 -0.30 0.80 0.20 1.25 0.10 1.25 -0.25 0 -0.35 0.45 -0.45 1.25 -0.25 0.75 0.20 1.25 0.10 1.25 -0.20 0 -0.95 2.60 -1.60 3.95 -1 0.95 0.40 1.30 0.40 1.60 -0.10 0.30 -0.50 1.85 -0.65 5.80 -0.55 4.30 0.05 5.45 -0.10 5.90 -0.70 0.50 -0.70 0.65 -0.70 1.35 0.05 0.90 0.85 3.20 1.10 3.50 0.35 0.25 -0.75 10.25 -0.90 11 -0.15 0.80 0.80 2.25 0.80 2.60 0 0.15 -0.45 0.50 -0.35 1.10 0.35 0.55 0.70 0.90 0.80 1.05 0.40 0.30 -0.80 2.45 -0.85 2.90 -0.15 0.25 0.40 0.55 0.35 1.05 -0.05 0.55 -0.45 0.70 -0.40 0.70 0.30 0 0.70 0.35 0.80 1.75 0.65 0.95 -0.10 1.85 0.05 1.95 0.35 0.15 0.30 0.25 0.25 0.25 -0.10 0.05 -0.90 2.35 -0.80 3.30 0.15 0.50 0.50 1.20 0.70 2 0.50 0.80 -0.20 1.25 -0.10 1.25 0.25 0 0.30 0.35 0.45 0.75 0.25 0.40 -0.15 0.75 -0.05 0.75 0.25 0 0.40 0.75 0.45 2.30 0.20 1.60 -0.20 2.60 -0.10 3.35 0.40 0.60 0.40 1.50 0.65 2 0.55 0.45 -0.05 0.85 0.15 0.85 0.45 0 0.25 0.15 0.35 0.35 0.20 0.15 -0.20 0.60 -0.10 1 0.25 0.50 0.40 0.85 0.40 1.25 0 0.50 -0.50 2.90 0.15 2.90 0.85 0 0.15 0.95 0.35 2.15 0.40 1.90 0.05 6.90 1.65 10.60 3.40 0.85 0.35 2.65 1.15 4.05 1.70 1.35 0.55 4.30 1.85 6.50 2.85 2.15 1 4.85 2.25 5.95 2.75 6.70 3.05 24.75 14.95 24.75 16.35 0 0.30 0.35 0.60 0.75 0.60 0.95 0 7.45 5.40 9.90 8.30 1.05 1.20 2.15 2.10 2.40 1.90 0.25 -0.15 0.65 0.30 0.95 1.05 0.25 0.70 1 1.45 1.60 1.70 0.65 0.25 2.25 1.65 3.60 3.10 8.95 9.80 9.30 10.20 9.30 10.85 0 0.20 0.90 1.30 2.05 2.35 1.60 1.60 7.35 9.70 10.30 14.50 0.35 0.55 1.50 2.50 2.60 4.30 2.45 4.05 9.10 17.20 10.55 20.90 0.55 1.50 1.50 3.70 2.05 4.85 0.50 1.20 0.95 2.45 0.95 2.80 0 0.35 0.30 1.50 0.70 2.65 0.40 1.10 0.95 3 1.30 4.25 0.35 1.25 0.80 2.65 1.05 3.10 0.25 0.50 0.45 1.35 0.45 1.95 0 0.55 0.20 1.40 0.45 1.85 0.25 0.45 0.55 1.55 0.70 2.35 0.15 0.85 0.60 3.55 1.05 6 0.45 2.50 0.95 5.50 1.10 6.75 0.15 1.25 0.45 3.70 0.70 5.50 1.40 9.65 0.05 31.75 -2.75 45.75 -1.50 7.40 -6.65 22.65 -11.50 34 -0.35 0.85 -1.15 2.75 -1.80 4.25 -1.75 4.15 -9.75 19.65 -12.80 24.70 -1.45 2.45 -2.65 4.50 -2.65 4.65 0 0.10 -1.10 1.80 -2.40 3.80 -1.30 1.95 -3.15 4.95 -4.10 6.60 -0.95 1.65 -2.95 4.95 -4.50 7.30 -3.20 5 -2.80 4.40 -7.10 10.90 -1.90 2.80 -3.40 5.25 -3.40 5.45 0 0.20 -0.55 0.95 -1.20 1.65 -0.65 0.70 -2.40 3.20 -3.90 5.50 -1.50 2.30 -3.10 4.50 -3.60 4.90 -1.40 1.15 -3.80 4.90 -3.80 5.90 0 0.50 -1.10 2.15 -2.40 3.70 -1.30 1.55 -2.70 3.35 -3.10 3.95 -0.40 0.65 -1.25 1.75 -1.90 2.45 -6.10 7 -10.25 11.90 -10.50 12.50 -0.15 0.40 -0.65 1.10 -1.05 1.60 -1.60 1.80 -2 2.40 -3.15 4.85 -0.75 1.70 -1.55 2.65 -2.30 2.85 -0.60 0.15 -1.90 1.40 -2.90 2.75 -1 1.40 -2 2.50 -2.25 2.50 -0.25 0 -0.45 0.30 -0.45 0.70 0 0.35 -1.10 1.85 -2.45 3.35 -3.10 3.35 -5.45 6.30 -6.30 7.95 -0.40 0.70 -2.60 3.30 -4.95 5.75 -2.40 2.50 -4.70 5.35 -5.20 6.35 -0.45 1.05 -1.15 1.90 -1.45 1.90 -0.35 0 -1.20 0.85 -1.90 1.90 -2.95 4.30 -3.95 5.50 -7.40 8.70 -2 1.85 -3.60 3.70 -3.60 4.05 0 0.35 -1 1.65 -2.15 2.90 -6.05 6.20 -9.05 9.55 -9.30 10.35 -0.15 0.50 -1.30 1.75 -2.55 2.75 -1.25 1.05 -2.25 2.20 -2.25 2.50 0 0.35 -0.70 1.40 -1.60 2.35 -0.90 0.95 -2.90 3.35 -4.40 5.25 -1.55 1.95 -3.85 4.55 -5.05 5.85 -1.20 1.30 -2.90 3.15 -3.75 4.10 -1.95 2.20 -2.85 2.25 -4.80 0.20z"/>
  <path d="M502.75 441 c-12.60 -0.95 -22.05 -4 -33.50 -10.90 -8.60 -5.15 -19.05 -14.80 -24.60 -22.65 -3.20 -4.50 -8 -13.85 -9.80 -18.95 -3 -8.70 -4.85 -19.20 -4.85 -27.30 0 -4.55 1.55 -15.90 2.70 -20.25 0.40 -1.50 0.90 -3.25 1.05 -3.95 0.20 -0.70 0.55 -1.70 0.80 -2.25 0.20 -0.55 0.85 -2.10 1.40 -3.50 2.10 -5.50 6.05 -12.35 10.65 -18.40 2.95 -3.85 15.05 -15.35 16.20 -15.35 0.35 0 0.70 -0.15 0.80 -0.35 0.20 -0.45 3.80 -2.90 6.65 -4.50 12.60 -7.10 28 -10.70 42.90 -10 12 0.55 23.25 3.50 33.10 8.60 16.80 8.75 29.65 22.45 36.70 39.15 2.50 5.95 5.35 17.15 5.80 22.60 1.05 14.25 0 23.35 -4.05 35.15 -1.65 4.75 -6.35 14.80 -7.20 15.35 -0.20 0.15 -0.70 0.95 -1.15 1.85 -2.20 4.20 -11 13.75 -17.55 19.05 -6 4.80 -15.95 10.30 -22.80 12.55 -4.80 1.60 -6.10 2 -7.50 2.25 -7.70 1.45 -10.05 1.75 -15 1.95 -3.15 0.15 -8 0.05 -10.75 -0.15z m11.25 -1.05 c0 -0.40 0.60 -0.50 1.75 -0.30 0.95 0.15 1.75 0.10 1.75 -0.10 0 -0.40 0.95 -0.55 4.50 -0.70 0.95 -0.05 1.85 -0.25 2 -0.40 0.15 -0.15 2.05 -0.75 4.25 -1.35 6.85 -1.80 10.40 -2.90 12.75 -4.05 6.80 -3.25 12.85 -7.25 19.50 -12.80 1.80 -1.45 3.55 -2.70 3.90 -2.70 0.35 -0.05 0.55 -0.25 0.40 -0.50 -0.15 -0.25 0.05 -0.70 0.45 -1.05 0.45 -0.35 2.25 -2.55 4.05 -4.85 2.10 -2.65 3.60 -4.15 4.25 -4.15 1 0 1.30 -0.80 0.40 -1.10 -0.30 -0.10 0.05 -0.80 0.75 -1.55 0.70 -0.75 1.25 -1.55 1.25 -1.75 0 -1.05 1.80 -4.10 2.45 -4.10 0.45 0 0.60 -0.30 0.40 -0.75 -0.15 -0.45 0.05 -0.90 0.45 -1.05 0.35 -0.15 0.55 -0.60 0.40 -1 -0.15 -0.35 0.10 -0.80 0.50 -1 0.45 -0.15 0.70 -0.55 0.55 -0.95 -0.15 -0.35 0.10 -0.95 0.50 -1.40 0.40 -0.40 0.60 -0.85 0.45 -1.05 -0.20 -0.15 0 -0.30 0.35 -0.30 0.35 0 0.55 -0.15 0.40 -0.30 -0.20 -0.15 0.15 -0.75 0.70 -1.30 0.75 -0.75 0.95 -1.40 0.75 -2.70 -0.15 -1 -0.10 -1.70 0.20 -1.70 0.30 0 0.35 -0.20 0.20 -0.50 -0.15 -0.25 -0.05 -0.50 0.25 -0.50 0.30 0 0.40 -0.50 0.20 -1.25 -0.25 -0.95 -0.10 -1.25 0.55 -1.25 0.70 0 0.80 -0.35 0.50 -2.45 -0.25 -1.95 -0.15 -2.55 0.60 -3.30 0.55 -0.60 0.90 -1.65 0.90 -3.10 0 -1.15 0.15 -2.15 0.40 -2.15 0.20 0 0.35 -0.35 0.35 -0.75 0 -0.40 -0.20 -0.75 -0.50 -0.75 -0.80 0 -0.60 -1.35 0.30 -2.25 0.75 -0.70 0.80 -1.65 0.55 -6.65 -0.35 -6.30 -1.70 -14.60 -2.40 -14.60 -0.25 0 -0.30 -0.65 -0.10 -1.50 0.20 -1.25 0.10 -1.50 -0.65 -1.50 -0.70 0 -0.80 -0.10 -0.30 -0.45 0.90 -0.55 -0.10 -4.55 -1.15 -4.55 -0.90 0 -1 -0.80 -0.10 -1.20 0.40 -0.15 0.30 -0.45 -0.35 -1 -0.55 -0.45 -0.75 -0.80 -0.45 -0.80 0.30 0 0.45 -0.45 0.30 -1 -0.15 -0.55 -0.55 -1 -0.95 -1 -0.80 0 -1.55 -1.25 -1.75 -3 -0.10 -0.70 -0.55 -1.55 -0.95 -1.85 -0.65 -0.55 -0.65 -0.70 0 -1.15 0.65 -0.40 0.65 -0.50 -0.10 -0.50 -0.55 0 -0.75 -0.25 -0.60 -0.75 0.20 -0.45 0 -0.75 -0.40 -0.75 -0.40 0 -1.25 -0.95 -1.90 -2.05 -1.90 -3.40 -17.15 -19.10 -19.15 -19.75 -0.60 -0.20 -1.45 -0.85 -1.95 -1.45 -1.75 -2.25 -15.90 -10.25 -19.40 -11 -0.95 -0.20 -2.20 -0.70 -2.75 -1.05 -0.55 -0.40 -1.45 -0.70 -2.10 -0.70 -0.60 0 -1.25 -0.20 -1.40 -0.50 -0.15 -0.25 -0.05 -0.50 0.25 -0.50 0.30 0 0.40 -0.20 0.25 -0.50 -0.15 -0.25 -0.80 -0.50 -1.40 -0.50 -0.90 0 -0.95 0.10 -0.35 0.50 0.60 0.40 0.45 0.50 -0.60 0.50 -1.35 0 -2.05 -0.95 -0.75 -1.05 0.30 0 0.05 -0.25 -0.60 -0.50 -0.65 -0.25 -1.60 -0.35 -2.10 -0.20 -0.55 0.20 -0.95 0.10 -0.95 -0.20 0 -0.30 -0.55 -0.55 -1.25 -0.55 -0.90 0 -1.15 0.20 -0.95 0.75 0.40 1.05 0 0.95 -2.30 -0.50 -1.90 -1.20 -2.30 -1.25 -9.85 -1.25 -9.80 0 -11.60 0.25 -11.30 1.55 0.20 0.75 0 0.95 -1.10 0.95 -1 0 -1.30 -0.20 -1.05 -0.75 0.15 -0.45 0 -0.75 -0.45 -0.75 -0.40 0 -0.75 0.35 -0.75 0.75 0 0.40 -0.45 0.75 -0.95 0.75 -0.55 0 -1.15 0.20 -1.30 0.50 -0.50 0.80 -1.90 0.60 -1.55 -0.25 0.35 -0.95 0.10 -0.95 -3.75 0.30 -7.50 2.40 -9.05 3.10 -9.50 4.30 -0.35 0.90 -0.80 1.15 -2.10 1.15 -0.95 0 -2.30 0.45 -3 1 -0.70 0.55 -1.50 1 -1.80 1 -0.30 0 -0.75 0.40 -1 0.90 -0.70 1.25 -3.40 2.75 -3.65 2 -0.35 -0.95 -3.15 1.60 -3.70 3.35 -0.25 0.85 -0.75 1.45 -1.15 1.35 -0.35 -0.05 -1.60 0.65 -2.75 1.55 -1.10 0.95 -2.55 1.85 -3.15 2.05 -1.15 0.35 -1.90 1.55 -2.10 3.35 0 0.30 -0.40 0.45 -0.80 0.25 -0.40 -0.15 -0.95 0 -1.25 0.35 -0.25 0.35 -1.40 1.60 -2.55 2.85 -4.20 4.60 -9.55 13.85 -12.40 21.50 -1.90 5.10 -4.05 14.50 -4.65 20.30 -0.65 6.25 0 17.70 1.30 23.20 0.85 3.60 2.75 9.85 3.55 11.75 0.35 0.85 0.80 2.05 1 2.75 0.30 1.10 3.55 7.30 5.40 10.25 2.65 4.30 6.45 9.30 9.50 12.40 3.65 3.65 10.35 9.80 10.35 9.45 0 -0.10 1.10 0.60 2.45 1.60 1.35 1 2.65 1.80 2.90 1.80 0.25 0 1 0.55 1.65 1.25 0.60 0.65 1.30 1.10 1.50 1 0.25 -0.15 0.55 0.10 0.70 0.55 0.20 0.45 0.45 0.70 0.60 0.55 0.20 -0.15 1.15 0.10 2.15 0.60 4.60 2.35 12.90 5.15 18.80 6.30 3.60 0.75 6.70 1.55 7 1.80 0.60 0.60 2.75 0.60 2.75 -0.05 0 -0.75 1.90 -0.60 2.60 0.25 0.80 0.90 8.40 1.10 8.40 0.20z"/>
  <path d="M506.75 422.10 c-1.10 -0.10 -2.20 -0.35 -2.50 -0.60 -0.85 -0.70 -6.40 -0.75 -6.65 -0.10 -0.25 0.85 -2.05 0.75 -2.40 -0.10 -0.15 -0.35 -1.15 -0.85 -2.25 -1 -1.10 -0.20 -1.90 -0.50 -1.80 -0.70 0.15 -0.20 -1.05 -0.40 -2.60 -0.45 -1.60 -0.10 -3.65 -0.55 -4.80 -1.15 -1.05 -0.55 -2.20 -1 -2.55 -1 -0.30 0 -1.35 -0.80 -2.35 -1.75 -1 -0.95 -2.15 -1.75 -2.55 -1.75 -0.40 0 -1.25 -0.45 -1.90 -1 -2.35 -2.05 -5.05 -4 -5.45 -4 -0.20 0 -0.50 -0.40 -0.70 -0.95 -0.15 -0.50 -1.95 -2.60 -4.05 -4.60 -4.65 -4.55 -6.65 -7.35 -6.80 -9.55 -0.10 -0.90 -0.50 -1.90 -0.90 -2.25 -0.65 -0.55 -0.65 -0.60 0 -0.65 0.45 -0.05 0.30 -0.25 -0.35 -0.50 -1.25 -0.50 -1.55 -1.50 -0.50 -1.55 0.30 0 0.10 -0.20 -0.50 -0.45 -1.25 -0.50 -1.55 -1.50 -0.50 -1.50 0.35 -0.05 0.25 -0.30 -0.30 -0.70 -0.50 -0.40 -0.75 -1 -0.55 -1.50 0.20 -0.50 0.05 -0.80 -0.45 -0.80 -1.10 0 -1.60 -1 -0.80 -1.55 0.55 -0.35 0.50 -0.45 -0.20 -0.45 -0.80 0 -0.90 -0.25 -0.60 -2 0.20 -1.15 0.15 -2.30 -0.10 -2.65 -1.40 -1.80 -3.10 -20.35 -1.90 -20.35 0.30 0 0.15 -0.25 -0.25 -0.50 -0.40 -0.25 -0.50 -0.50 -0.20 -0.50 0.85 0 1.35 -3.10 0.60 -3.60 -0.50 -0.30 -0.50 -0.40 0.05 -0.40 0.50 0 0.60 -0.40 0.40 -1.50 -0.20 -0.90 -0.10 -1.50 0.20 -1.50 0.30 0 0.40 -0.55 0.20 -1.45 -0.20 -0.95 -0.05 -1.70 0.40 -2.10 0.40 -0.35 0.60 -1.05 0.50 -1.50 -0.15 -0.45 0.10 -1.15 0.55 -1.55 0.40 -0.45 0.60 -0.95 0.40 -1.15 -0.20 -0.15 0.05 -0.65 0.60 -1 0.50 -0.40 0.75 -0.90 0.60 -1.20 -0.45 -0.70 0.75 -3.05 1.60 -3.05 0.40 0 0.60 -0.30 0.40 -0.75 -0.15 -0.40 -0.05 -0.75 0.25 -0.75 0.30 0 0.35 -0.25 0.15 -0.60 -0.20 -0.30 0.05 -0.85 0.55 -1.25 0.55 -0.35 1 -0.95 1.05 -1.35 0.15 -0.95 3 -5.10 4.10 -5.90 0.45 -0.35 1.15 -1.25 1.55 -2 0.75 -1.45 4.65 -5.05 10.10 -9.30 7.70 -6.05 22.15 -11.75 27.45 -10.90 1.30 0.20 2 0.10 2.15 -0.35 0.25 -0.85 12.90 -0.85 13.90 0 0.40 0.35 1.25 0.50 1.80 0.35 1.10 -0.30 6.45 1.05 7.45 1.85 0.30 0.25 0.65 0.35 0.80 0.20 0.30 -0.30 5.30 1.70 10.40 4.10 5.35 2.60 9.15 5.30 14 10 2.30 2.30 4.35 4.15 4.55 4.15 0.20 0 0.60 0.60 0.90 1.40 0.30 0.75 1.50 2.70 2.70 4.35 3.30 4.60 5.65 9.40 7.55 15.80 2.40 8 3.15 15 2.35 22 -1.55 13.70 -5.40 23.10 -13.40 32.90 -1.95 2.45 -4.25 4.90 -5.10 5.50 -0.85 0.60 -1.80 1.70 -2.15 2.45 -0.45 0.90 -1.80 1.90 -4.15 3.05 -1.90 0.95 -3.20 1.80 -2.85 1.95 0.50 0.15 0.45 0.40 -0.20 1.15 -0.45 0.50 -1.05 0.80 -1.30 0.65 -0.25 -0.15 -0.75 0 -1.15 0.30 -0.50 0.45 -0.75 0.45 -0.75 0.10 0 -0.30 -1.30 0.10 -2.85 0.90 -1.60 0.85 -3.15 1.50 -3.45 1.50 -0.30 0 -1.20 0.30 -2 0.70 -2.30 1.15 -11.20 3.30 -13.55 3.30 -1.30 0 -2.15 0.25 -2.15 0.55 0 0.40 -0.80 0.50 -2.45 0.30 -1.30 -0.15 -2.60 -0.15 -2.85 0.05 -0.25 0.20 -1.35 0.30 -2.45 0.20z m16.60 -3.55 c8.40 -2.15 14.95 -5.30 22.15 -10.60 3.55 -2.55 10.30 -9.30 11.75 -11.70 0.50 -0.80 1.30 -1.95 1.75 -2.50 1.70 -2.05 5.45 -9.65 6.95 -14.25 2.60 -7.65 3.60 -17.55 2.55 -25.15 -1.65 -12.50 -7.95 -24.85 -17.20 -33.70 -8 -7.70 -15.50 -11.90 -26.80 -15 -6.50 -1.75 -19.60 -2.20 -26 -0.90 -7.20 1.45 -15.60 4.75 -19.30 7.55 -0.85 0.65 -1.70 1.20 -1.85 1.20 -0.85 0 -8.55 6.30 -11.10 9.10 -13.20 14.50 -18.35 33 -14.30 51.65 2 9.35 6.15 17.20 14.20 26.90 1.10 1.35 4.30 4.10 7.05 6.15 2.80 2.05 5.30 3.90 5.60 4.15 1.50 1.20 15.15 7.25 15.85 7 0.05 -0.05 1.10 0.20 2.35 0.55 5.85 1.60 19.35 1.35 26.35 -0.45z"/>
  <path d="M503.25 285 c-0.20 -0.30 0.25 -0.50 1 -0.50 0.75 0 1.20 0.20 1 0.50 -0.15 0.30 -0.60 0.50 -1 0.50 -0.40 0 -0.85 -0.20 -1 -0.50z"/>
  <path d="M511.50 285 c0 -0.25 0.50 -0.50 1.15 -0.50 0.90 0 0.95 0.10 0.35 0.50 -0.95 0.65 -1.50 0.65 -1.50 0z"/>
 </g>
 <g fill="#ff980e">
  <path d="M598.25 836.15 c-5.25 -0.45 -13.20 -1.80 -15.95 -2.75 -9.50 -3.20 -18.70 -8 -29.30 -15.35 -5.20 -3.55 -12 -8.80 -15.05 -11.50 -2.95 -2.65 -7.35 -8.70 -8.40 -11.55 -0.35 -0.95 -0.90 -2.30 -1.25 -2.95 -0.90 -1.95 -0.65 -12.80 0.40 -15.80 2.25 -6.40 7.25 -13.55 17.35 -24.75 21.70 -24.05 23.85 -26.30 27.95 -29.35 11.05 -8.15 21.95 -9.50 32.75 -4.05 1.90 1 10.65 6.80 15 9.95 1.10 0.80 3.35 2.25 5.05 3.20 5.30 3.05 10.20 2.10 16.45 -3.10 3.95 -3.30 17.40 -17.95 24.60 -26.80 9.50 -11.65 21.85 -29.25 24.60 -35 2.70 -5.70 1.90 -10.15 -2.55 -14.05 -19.25 -16.80 -21.70 -19.30 -24.50 -24.90 -1.25 -2.55 -2.55 -5.50 -2.90 -6.50 -1.20 -4.05 -1.10 -12.80 0.25 -19.15 0.75 -3.50 4.65 -10.45 9.20 -16.50 0.85 -1.10 2.45 -3.35 3.65 -5 5.70 -8.05 23.55 -30.90 26.65 -34.05 8.05 -8.30 21.45 -11 33.35 -6.80 6.25 2.25 9.35 4.55 25.10 18.85 2.70 2.50 6.90 6.20 9.25 8.30 7.80 6.90 12 11.50 15.15 16.50 1.90 2.95 3.90 7.60 3.90 8.95 0 0.45 0.15 1 0.35 1.20 0.50 0.50 1.90 8.40 2.95 16.30 0.90 7.20 0.70 17.45 -0.55 24.75 -0.45 2.45 -1.10 6.40 -1.50 8.75 -0.85 4.70 -4.05 17.25 -4.80 18.60 -0.25 0.50 -0.45 1.30 -0.45 1.80 0 0.50 -0.20 1.10 -0.45 1.40 -0.25 0.25 -0.95 2.05 -1.55 3.95 -1.05 3.20 -2.35 6.40 -6.60 16 -2.10 4.70 -12.30 24.65 -13.45 26.35 -0.55 0.70 -0.95 1.40 -0.95 1.55 0 0.15 -0.85 1.60 -1.90 3.20 -1.05 1.60 -2.80 4.25 -3.85 5.90 -1.90 2.90 -9.95 14.35 -11.65 16.60 -22.65 29.40 -43.95 50.15 -71.45 69.45 -7.15 5.05 -13.95 9.20 -23.15 14.10 -2.35 1.25 -4.60 2.45 -5 2.65 -4.50 2.50 -18.80 7.90 -25.90 9.75 -5.20 1.35 -15.65 2.30 -20.85 1.85z m13 -2.40 c5.25 -0.75 11.15 -2.15 14.50 -3.35 1.10 -0.40 4.05 -1.45 6.50 -2.35 5.30 -1.85 19.05 -8.60 25.50 -12.50 2.50 -1.50 5.40 -3.15 6.50 -3.75 1.05 -0.60 2.65 -1.65 3.50 -2.40 0.80 -0.80 1.70 -1.40 1.90 -1.40 0.25 0 1.15 -0.50 2 -1.10 0.80 -0.65 2.90 -2.15 4.65 -3.40 3.30 -2.35 10.60 -8 12.70 -9.80 0.70 -0.60 2.95 -2.50 5 -4.25 2.05 -1.80 4.55 -3.85 5.55 -4.60 2.20 -1.65 26.15 -25.65 27.30 -27.35 0.75 -1.15 6 -7.40 6.70 -8 0.15 -0.15 1.25 -1.60 2.45 -3.25 2.50 -3.40 4 -5.20 6.50 -7.85 0.95 -1 1.80 -2.10 1.90 -2.45 0.25 -1.05 2.15 -3.45 2.65 -3.45 0.30 0 0.40 -0.20 0.20 -0.50 -0.15 -0.25 0.30 -0.85 1 -1.30 0.65 -0.45 1.10 -1 0.95 -1.25 -0.15 -0.25 0.20 -1.10 0.80 -1.85 1.25 -1.55 7.40 -10.95 10 -15.25 0.95 -1.55 1.90 -2.85 2.15 -2.85 0.20 0 0.25 -0.25 0.10 -0.50 -0.15 -0.30 0.05 -0.65 0.45 -0.80 0.45 -0.15 0.65 -0.50 0.50 -0.75 -0.15 -0.25 0 -0.45 0.30 -0.45 0.30 0 0.40 -0.25 0.25 -0.50 -0.15 -0.30 0.05 -0.65 0.45 -0.80 0.45 -0.15 0.65 -0.50 0.50 -0.75 -0.30 -0.50 2.60 -5.95 3.40 -6.50 0.25 -0.15 0.45 -0.45 0.45 -0.65 -0.15 -1.10 0.05 -1.75 0.95 -2.70 0.55 -0.60 1 -1.20 1 -1.35 -0.05 -1.35 0.10 -1.85 0.85 -2.65 0.50 -0.50 0.95 -1.25 1.05 -1.70 0.05 -0.40 0.90 -2.35 1.85 -4.35 0.95 -1.95 1.75 -3.80 1.75 -4.05 0 -0.70 1.65 -4 2 -4 0.20 0 0.35 -0.30 0.35 -0.70 0 -1.10 1.25 -3.80 1.75 -3.80 0.25 0 0.35 -0.20 0.20 -0.45 -0.30 -0.50 2.50 -8.55 3.10 -9.05 0.20 -0.15 0.40 -0.70 0.40 -1.25 0.05 -0.55 0.85 -4.05 1.85 -7.75 0.95 -3.70 2 -8.10 2.30 -9.75 0.35 -1.65 0.85 -3.80 1.10 -4.80 0.25 -1 0.45 -2.40 0.45 -3.15 0 -0.70 0.15 -1.30 0.40 -1.30 0.20 0 0.40 -1.70 0.50 -3.85 0.05 -2.10 0.25 -4 0.40 -4.20 0.45 -0.75 0.45 -15.45 0.05 -15.45 -0.25 0 -0.35 -1.35 -0.25 -3 0.05 -1.65 -0.05 -3 -0.30 -3 -0.20 0 -0.30 -0.55 -0.20 -1.25 0.15 -0.70 0.10 -1.25 -0.10 -1.25 -0.20 0 -0.75 -2.10 -1.25 -4.60 -0.50 -2.55 -1.35 -5.90 -1.90 -7.40 -1.30 -3.45 -4 -7.75 -5.60 -8.80 -0.70 -0.45 -1.25 -1.10 -1.25 -1.50 0 -0.35 -0.70 -1.15 -1.50 -1.80 -0.85 -0.60 -1.50 -1.35 -1.50 -1.70 0 -0.35 -0.60 -1.05 -1.30 -1.55 -2.60 -1.80 -10.70 -9.05 -19.95 -17.90 -2 -1.90 -4.65 -4.45 -5.90 -5.60 -1.25 -1.20 -2.60 -2.15 -3 -2.15 -0.45 0 -1.10 -0.45 -1.45 -0.95 -0.65 -0.90 -2.75 -2.15 -9.15 -5.45 -1.45 -0.75 -3.50 -1.35 -4.80 -1.40 -1.30 -0.05 -2.75 -0.30 -3.25 -0.60 -1.80 -0.95 -9.85 -0.25 -13.25 1.15 -1.75 0.70 -3.30 1.25 -3.55 1.25 -0.80 0 -7.10 4.05 -7.75 5 -0.40 0.55 -1.50 1.20 -2.55 1.55 -1.30 0.40 -2.20 1.15 -3.10 2.55 -0.70 1.10 -2.20 3.05 -3.40 4.30 -1.15 1.30 -2.55 3.15 -3.05 4.10 -0.55 0.95 -1.65 2.45 -2.55 3.25 -0.85 0.85 -2.05 2.30 -2.65 3.25 -0.55 0.95 -1.70 2.60 -2.55 3.60 -3 3.60 -4.05 5.10 -5.10 7.40 -0.60 1.30 -1.75 2.85 -2.60 3.40 -0.80 0.60 -1.95 1.95 -2.45 2.95 -0.55 1.05 -1.40 2.60 -1.85 3.50 -0.45 0.85 -1.40 1.90 -2.05 2.35 -3.80 2.50 -7.25 12.30 -7.25 20.50 0 5.45 1.05 9.60 4.05 16.20 1 2.25 4.60 7.05 5.30 7.20 0.20 0.05 0.80 0.55 1.25 1.15 0.45 0.60 1.80 1.70 3 2.55 1.15 0.80 3.50 2.70 5.15 4.25 1.65 1.55 4.50 4.10 6.30 5.65 5.90 4.95 7.60 7.70 7.50 12.30 -0.10 2.70 -2.40 8.80 -3.95 10.40 -0.35 0.40 -0.95 1.30 -1.30 2 -0.40 0.75 -1.15 1.80 -1.75 2.30 -0.60 0.55 -1.05 1.35 -1.05 1.90 0 0.50 -0.20 0.90 -0.50 0.90 -0.25 0 -0.85 0.85 -1.25 1.90 -0.45 1 -1.40 2.55 -2.15 3.35 -2.20 2.45 -3.60 4.65 -3.90 6.25 -0.20 0.80 -0.45 1.40 -0.65 1.35 -0.35 -0.10 -3.80 3.65 -5.80 6.40 -0.80 1.10 -1.75 2.20 -2.10 2.40 -0.35 0.20 -0.65 0.80 -0.65 1.35 0 0.50 -0.70 1.40 -1.50 2 -0.85 0.60 -1.90 1.80 -2.30 2.65 -0.45 0.85 -1.75 2.55 -2.90 3.75 -4.15 4.40 -5.25 5.70 -7.10 8.10 -1.05 1.40 -2.10 2.50 -2.30 2.50 -1.15 0 -2.90 1.40 -2.90 2.35 0 0.90 -3 4.15 -3.80 4.15 -0.40 0 -0.70 0.20 -0.70 0.40 0 0.95 -6.65 7.10 -8.85 8.15 -3.05 1.50 -8.05 1.65 -10.60 0.35 -0.95 -0.50 -1.90 -0.90 -2.10 -0.90 -0.20 0 -1 -0.60 -1.80 -1.30 -2.05 -1.90 -7.70 -6.20 -8.20 -6.20 -0.20 0 -1.05 -0.60 -1.90 -1.30 -2.10 -1.75 -12.10 -6.15 -15.80 -6.90 -6.55 -1.35 -14.75 0.65 -20.60 5 -0.85 0.65 -1.75 1.20 -1.95 1.20 -0.90 0 -9.20 7.70 -9.20 8.55 0 0.25 -0.45 0.45 -0.95 0.45 -0.55 0 -1.10 0.40 -1.25 0.90 -0.45 1.30 -3.30 4.15 -3.85 3.80 -0.25 -0.15 -0.70 0.40 -1 1.25 -0.35 1 -1 1.65 -1.75 1.85 -0.75 0.20 -1.50 0.95 -1.90 1.90 -0.95 2.15 -3.70 5.10 -4.65 4.90 -0.40 -0.10 -0.60 0.05 -0.45 0.30 0.15 0.25 -0.30 1 -1.05 1.65 -0.70 0.65 -1.85 2.10 -2.50 3.20 -0.70 1.10 -2.10 2.80 -3.10 3.75 -11.55 11.15 -16.10 21.10 -14.25 31.10 0.75 4.05 2.10 7.50 3.55 9.30 0.50 0.60 1.60 2 2.40 3.15 1.30 1.80 7.15 6.90 12.70 11.05 4.55 3.45 16.35 11.05 19.90 12.80 10.30 5.20 17.65 7.45 28.40 8.75 3.65 0.45 10.90 0.25 15.50 -0.40z"/>
  <path d="M595 821 c-4.65 -0.70 -8.55 -1.90 -12.85 -4 -2.20 -1.10 -4.35 -2 -4.75 -2 -0.35 0 -1.25 -0.60 -1.95 -1.35 -0.70 -0.80 -2.20 -1.95 -3.35 -2.60 -1.15 -0.70 -2.70 -1.80 -3.50 -2.50 -0.75 -0.75 -2 -1.60 -2.70 -1.95 -0.70 -0.40 -1.90 -1.25 -2.65 -1.90 -0.75 -0.65 -1.55 -1.20 -1.75 -1.20 -0.20 0 -0.50 -0.45 -0.65 -1.05 -0.15 -0.60 -0.60 -0.95 -0.95 -0.85 -0.90 0.35 -7.75 -4.35 -8.15 -5.60 -0.15 -0.55 -0.70 -1.20 -1.20 -1.50 -1.10 -0.55 -3.20 -4.85 -2.80 -5.55 0.20 -0.25 -0.05 -0.60 -0.50 -0.75 -0.45 -0.20 -0.70 -0.65 -0.55 -1 0.15 -0.40 0.05 -0.70 -0.15 -0.70 -0.25 0 -0.35 -0.90 -0.20 -2 0.15 -1.10 0.05 -2.30 -0.25 -2.65 -0.80 -0.95 1.85 -6.05 4.80 -9.20 1.30 -1.45 2.30 -2.65 2.15 -2.65 -0.15 0 0.85 -1.20 2.25 -2.60 1.40 -1.45 3.05 -3.30 3.65 -4.15 0.60 -0.80 2.30 -2.75 3.75 -4.25 1.40 -1.50 3.25 -3.55 4 -4.50 2.65 -3.30 14.40 -15.05 17.35 -17.30 6.35 -4.85 10.80 -5.65 15.60 -2.70 2.55 1.55 7 4.80 11.15 8.20 0.90 0.70 3.45 2.30 5.75 3.50 10.50 5.55 23.65 4.90 32.85 -1.65 0.85 -0.55 1.65 -1.05 1.90 -1.05 0.20 0 1.55 -0.90 3 -2 1.45 -1.10 3 -2 3.45 -2 0.45 0 0.70 -0.20 0.55 -0.40 -0.15 -0.25 2 -2.65 4.75 -5.40 2.75 -2.70 7.05 -7.40 9.60 -10.40 2.55 -3 5.15 -6 5.80 -6.75 0.65 -0.70 2.85 -3.40 4.90 -5.90 2.05 -2.55 3.90 -4.65 4.20 -4.65 0.30 0 0.40 -0.20 0.25 -0.45 -0.40 -0.65 3.10 -5.05 4.05 -5.05 0.50 0 0.65 -0.30 0.45 -0.75 -0.20 -0.50 0.40 -1.50 1.60 -2.65 1 -1 1.80 -2 1.70 -2.20 -0.05 -0.25 0.10 -0.40 0.40 -0.40 0.30 0 0.45 -0.15 0.40 -0.35 -0.15 -0.55 1.10 -2.75 4.70 -8.25 5.45 -8.30 8.05 -12.55 9.05 -14.90 0.55 -1.25 1.15 -2.35 1.30 -2.50 0.35 -0.30 0.40 -0.90 0.95 -7.25 0.25 -3.15 0.15 -4.90 -0.25 -5.75 -0.30 -0.70 -0.95 -2.30 -1.40 -3.55 -0.55 -1.65 -1.95 -3.50 -5 -6.60 -2.35 -2.35 -4.70 -4.40 -5.20 -4.60 -0.50 -0.15 -1.55 -1.15 -2.30 -2.25 -0.75 -1.10 -1.55 -1.90 -1.75 -1.75 -0.15 0.10 -1.90 -1.25 -3.80 -3 -1.90 -1.80 -3.65 -3.25 -3.90 -3.25 -0.25 0 -1.35 -1.05 -2.50 -2.35 -4.60 -5.20 -7.55 -10.80 -7.05 -13.25 0.20 -0.85 0.10 -1.40 -0.20 -1.40 -0.30 0 -0.55 -1.05 -0.55 -2.50 0 -1.45 0.25 -2.50 0.55 -2.50 0.30 0 0.40 -0.45 0.20 -1 -0.20 -0.60 -0.10 -1 0.25 -1 0.30 0 0.40 -0.25 0.25 -0.50 -0.15 -0.30 0.20 -1.60 0.85 -2.90 1.15 -2.45 11.10 -16.10 13.80 -18.95 0.80 -0.90 1.35 -1.65 1.20 -1.65 -0.20 -0.05 0.20 -0.50 0.85 -1 0.65 -0.55 0.95 -1 0.75 -1 -0.25 0 0 -0.35 0.50 -0.75 0.55 -0.40 0.80 -0.75 0.55 -0.75 -0.25 0 0.15 -0.60 0.80 -1.40 0.70 -0.75 1.60 -1.85 2 -2.40 2.45 -3.65 6.60 -8.75 7.50 -9.20 0.55 -0.35 0.90 -0.70 0.75 -0.85 -0.50 -0.50 2.60 -4.50 5.30 -6.85 4.45 -3.90 10.45 -4.85 15.25 -2.40 2.35 1.20 6.75 4.70 10.90 8.65 1.65 1.60 3.70 3.40 4.50 4 0.85 0.65 3.15 2.80 5.15 4.80 1.95 1.95 3.60 3.50 3.60 3.35 0 -0.25 1.65 1.15 7.10 6 2.40 2.20 4.40 4.30 4.40 4.75 0 0.55 -0.40 0.40 -1.35 -0.55 -0.80 -0.65 -5 -4.45 -9.40 -8.40 -4.40 -3.90 -10.65 -9.50 -13.85 -12.40 -7.60 -6.80 -10.50 -8.80 -13.95 -9.55 -5.40 -1.15 -10.25 1.10 -14.55 6.75 -2.30 3 -2.55 3.40 -8.40 10.90 -3.65 4.75 -6.65 8.65 -11.75 15.50 -1.35 1.85 -3.80 5.05 -5.40 7.20 -1.60 2.10 -3.70 5.45 -4.65 7.40 -3.75 7.50 -1.95 14.45 5.15 20.35 1.35 1.10 4.35 3.75 6.75 5.95 2.40 2.15 5.20 4.65 6.25 5.45 4.60 3.65 7.75 7.05 9.90 10.70 3.40 5.70 4 7.70 4.20 13.50 0.15 6.50 -1.50 10.75 -8.70 22 -1.40 2.20 -3.45 5.40 -4.55 7.15 -2.10 3.40 -13.15 18.20 -17.65 23.75 -1.55 1.85 -3.50 4.30 -4.40 5.35 -7 8.75 -17.65 19.65 -23.65 24.30 -12.65 9.85 -25.80 11.75 -37.85 5.50 -2.45 -1.25 -7.55 -4.65 -11.35 -7.50 -6.75 -5 -9.20 -6.30 -11.95 -6.30 -2.20 0 -5.90 1.50 -8.55 3.50 -2.95 2.20 -14.25 13.70 -21.80 22.20 -2.90 3.25 -6.30 7.10 -7.60 8.55 -4.70 5.15 -7.35 8.85 -8.20 11.40 -1.70 5 -0.85 7.95 3.15 11.20 1.35 1.05 2.50 2 2.65 2.15 0.45 0.45 9.60 7.25 14.30 10.60 8.65 6.15 17.90 10.90 24.20 12.45 1.65 0.40 5.45 0.65 9.50 0.65 5.95 -0.05 7.45 -0.25 12.70 -1.65 15.85 -4.25 31.95 -12.60 50.55 -26.20 8.95 -6.60 13.15 -9.90 18.50 -14.60 2.20 -1.95 4.80 -4.15 5.75 -4.95 3.30 -2.65 18.15 -17.55 22.95 -23.05 4.55 -5.15 12.40 -14.70 14.05 -17.05 0.40 -0.60 2.45 -3.30 4.50 -6 2.10 -2.75 4.90 -6.70 6.25 -8.80 1.40 -2.15 3.35 -5.15 4.35 -6.75 2.45 -3.75 7.75 -12.70 9.50 -15.90 3.20 -5.95 11.40 -22.85 11.40 -23.55 0 -0.25 0.55 -1.55 1.25 -2.90 0.70 -1.35 1.70 -3.95 2.30 -5.75 1.15 -3.55 1.50 -4.60 2.35 -6.55 0.90 -2.05 2.65 -9.30 4.40 -18.25 1.55 -8.05 1.65 -24.70 0.20 -31.40 -0.50 -2.35 -1.15 -4.70 -1.40 -5.20 -0.30 -0.50 -1 -2 -1.65 -3.40 -0.65 -1.35 -1.85 -3.45 -2.65 -4.60 -1.95 -2.85 -1.30 -3.35 0.70 -0.55 5.45 7.45 7.35 16.05 6.80 31.05 -0.15 4.75 -0.40 9.30 -0.50 10.10 -0.65 4.40 -1.45 8.80 -2 11 -0.35 1.40 -0.95 3.75 -1.30 5.25 -1.55 6.65 -5.10 16.40 -9.35 25.50 -0.95 2.05 -2.20 4.95 -2.70 6.45 -0.55 1.50 -1.25 3.10 -1.65 3.50 -0.40 0.45 -1.75 2.80 -3 5.20 -1.30 2.45 -3.35 6.20 -4.60 8.40 -1.25 2.15 -2.35 4.30 -2.40 4.70 -0.05 0.40 -0.50 1.10 -0.95 1.65 -0.45 0.50 -0.85 1.15 -0.85 1.45 0 0.25 -0.45 0.90 -1.05 1.45 -0.60 0.50 -1.50 1.85 -2.05 2.90 -0.55 1.10 -2.90 4.80 -5.25 8.25 -2.35 3.45 -4.30 6.55 -4.35 6.85 -0.10 0.55 -0.60 1.20 -3.15 4.10 -0.90 1 -1.75 2.20 -1.90 2.70 -0.20 0.45 -0.75 1 -1.30 1.15 -0.60 0.20 -0.95 0.75 -0.95 1.50 0 0.70 -0.60 1.70 -1.50 2.40 -0.80 0.70 -1.50 1.40 -1.50 1.55 0 0.80 -3.70 5.30 -5.20 6.35 -0.90 0.60 -2.05 1.85 -2.55 2.75 -0.50 0.90 -1.40 2.15 -2.05 2.75 -0.65 0.60 -1.20 1.30 -1.20 1.55 0 1.10 -9.85 10.90 -10.95 10.90 -0.25 0 -0.90 0.80 -1.50 1.75 -0.55 0.95 -1.60 2 -2.30 2.35 -0.65 0.30 -1.40 1 -1.55 1.60 -0.40 1.25 -1.95 2.75 -8.20 7.80 -2.60 2.15 -5.25 4.35 -5.85 4.95 -0.60 0.60 -1.45 1.05 -1.80 1.05 -0.85 0 -2 1.20 -1.55 1.65 0.15 0.15 -0.30 0.65 -1.05 1.15 -0.75 0.50 -1.95 1.45 -2.70 2.15 -2.60 2.50 -6.15 5.30 -8.15 6.45 -1.75 1 -4.05 2.65 -10.40 7.55 -4.95 3.80 -16.05 10.20 -19.65 11.35 -0.60 0.20 -2.65 1.05 -4.60 1.95 -6.35 2.90 -7.15 3.25 -7.90 3.25 -0.45 0 -0.90 0.20 -1.05 0.40 -0.15 0.25 -1.65 0.85 -3.40 1.30 -1.75 0.50 -4.55 1.35 -6.20 1.90 -1.70 0.50 -3.95 0.95 -5 0.95 -1.10 0 -3.75 0.05 -5.95 0.15 -2.20 0.10 -5.25 0 -6.75 -0.20z"/>
 </g>
</svg>