<?xml version="1.0" encoding="utf-8"?>
<!DOCTYPE svg PUBLIC "-//W3C//DTD SVG 1.0//EN" "http://www.w3.org/TR/2001/REC-SVG-20010904/DTD/svg10.dtd">
<svg version="1.0" xmlns="http://www.w3.org/2000/svg" width="1024px" height="1024px" viewBox="0 0 1024 1024" preserveAspectRatio="xMidYMid meet">
 <g fill="#2281e7">
  <path d="M531 745.15 c0 -0.25 -62.70 -0.35 -139.35 -0.25 -102.80 0.10 -140.65 0 -144.15 -0.45 -16.10 -1.95 -25.60 -6.25 -36.15 -16.40 -10.35 -9.95 -16.10 -21.10 -18.60 -36.05 -1.20 -7.05 -0.65 -53.70 0.80 -69.75 0.80 -8.90 3.15 -22.60 4.95 -29 7.25 -25.55 18.45 -47.40 32.80 -64.25 20.15 -23.55 39.40 -37.05 67.95 -47.65 11.75 -4.35 16.95 -6 30.40 -9.55 8 -2.10 10.15 -2.05 17.60 0.70 12.10 4.40 21.50 7.65 25.50 8.80 5.55 1.60 16.15 4.25 18.75 4.70 1.50 0.25 4.10 0.70 5.75 1 17.45 3.05 39.60 2.45 58.25 -1.55 2.60 -0.60 5.30 -1.15 6 -1.30 5.05 -1.05 17.75 -4.95 29.50 -9.15 13.45 -4.85 14.50 -5.10 17.45 -4.75 2.75 0.35 8.30 1.70 12.20 2.95 1.15 0.40 5.15 1.65 8.85 2.80 3.70 1.15 7.65 2.40 8.75 2.85 1.10 0.40 3.25 1.15 4.75 1.65 2.85 0.90 9.40 3.50 12.50 4.85 6.20 2.80 14.80 7.05 18.15 8.95 2.15 1.25 4.10 2.10 4.35 1.95 0.30 -0.15 0.50 0.25 0.50 0.95 0 0.95 -0.65 1.65 -2.85 3.10 -1.60 1 -3.80 2.45 -4.90 3.15 -1.10 0.70 -4.20 2.90 -6.85 4.90 -3.20 2.35 -5.35 3.65 -6.20 3.65 -1.05 0 -1.20 -0.15 -0.75 -0.65 0.45 -0.55 -0.30 -1.10 -3.60 -2.75 -8.80 -4.35 -16.20 -7.20 -33.25 -12.85 l-11.15 -3.70 -2.35 1.05 c-1.30 0.55 -3 1.30 -3.85 1.65 -5.30 2.35 -18.75 7.15 -24.25 8.60 -6.05 1.60 -13.90 3.55 -16.75 4.10 -1.65 0.35 -3.90 0.85 -5 1.05 -1.10 0.25 -3.45 0.65 -5.25 0.95 -23.05 3.55 -43.25 3.05 -66 -1.75 -11.25 -2.35 -14.15 -3.10 -14.60 -3.90 -0.25 -0.45 -0.80 -0.80 -1.25 -0.80 -0.45 0 -1.50 -0.20 -2.35 -0.50 -9.95 -3.20 -15.25 -5 -21.65 -7.35 l-7.65 -2.75 -2.85 0.85 c-1.60 0.45 -3.45 1.05 -4.15 1.25 -0.70 0.20 -2.60 0.80 -4.25 1.25 -7.30 2.05 -19.90 6.45 -25.20 8.85 -28.30 12.65 -48.55 29.95 -63.85 54.50 -10.55 16.85 -17.65 36.30 -20.70 56.60 -1.20 8 -1.90 27.20 -2.05 56.80 -0.10 17.70 -0.10 18.35 1 21.95 3.65 12 10.60 19.95 21.45 24.55 4.15 1.75 6.25 2.30 12.80 3.50 2 0.35 45.20 0.50 134.45 0.50 116.65 0 131.40 -0.10 131.15 -0.75 -0.20 -0.55 0.05 -0.75 0.85 -0.75 0.80 0 1.50 0.75 2.75 2.90 2.75 4.80 6.50 10.60 9.65 14.75 2.70 3.60 3.80 6.35 2.45 6.35 -0.25 0 -0.50 -0.15 -0.50 -0.35z"/>
  <path d="M411.50 453.45 c-8.40 -1.10 -12 -1.65 -15 -2.25 -1.80 -0.40 -4.25 -0.95 -5.50 -1.20 -2.10 -0.45 -3.90 -0.90 -7.75 -1.95 -8.95 -2.50 -17.95 -6.55 -33.25 -15.10 -9.30 -5.20 -25 -19.15 -33.90 -30.10 -15.90 -19.50 -26.05 -43.85 -29.35 -70.35 -0.85 -6.75 -1 -25.15 -0.25 -31.75 2.95 -25.55 10.65 -46.50 24.35 -66.20 6.40 -9.25 17.15 -20.80 25.90 -27.80 7.05 -5.70 16.90 -12 24.10 -15.55 3.65 -1.75 6.85 -3.20 7.10 -3.20 0.30 0 1.50 -0.45 2.65 -0.95 4.25 -1.90 5.70 -2.45 10.40 -3.95 7.60 -2.40 15.90 -4.35 23.75 -5.65 5.25 -0.90 28.65 -0.90 35.75 -0.05 21.60 2.60 43.25 11.20 63 25.15 12.05 8.50 26.75 23.50 35 35.70 18.05 26.80 25.95 57.50 22.75 88.75 -1.05 10.05 -1.30 11.55 -3.85 21.95 -6.90 28.05 -22.75 54 -44.45 72.75 -7.55 6.60 -14.50 11.55 -19.20 13.75 -1.10 0.50 -4 1.90 -6.50 3.05 -7.90 3.70 -17.50 7.40 -24.25 9.30 -2.35 0.65 -4.90 1.40 -5.75 1.65 -2.35 0.70 -9.45 2.10 -15.25 3.05 -9.40 1.45 -23.30 1.90 -30.50 0.95z m21.90 -23 c5 -0.50 14.25 -2.15 16.85 -3 17.50 -5.40 25.50 -9 37 -16.70 9.60 -6.40 14.30 -10.45 22.15 -19.20 13.10 -14.65 23.05 -34.75 27.05 -54.80 1.30 -6.55 1.70 -10.50 2.25 -21.75 0.20 -3.90 -0.75 -15.40 -1.70 -20.90 -5.25 -30.50 -23.65 -58 -50.45 -75.35 -12.20 -7.90 -27.15 -14 -40.80 -16.65 -8.15 -1.60 -13.10 -2.10 -21.30 -2.10 -21.45 0 -40.95 5.65 -60.95 17.65 -15.65 9.35 -26.90 20.50 -38.05 37.60 -7.95 12.15 -13.45 28.05 -15.75 45.45 -0.95 7.20 -0.95 24.10 0 30.35 2.25 14.65 4.55 22.10 11.55 36.75 8.40 17.65 21.90 32.95 39.25 44.55 9 6 26.30 13.50 36.55 15.80 11.10 2.50 25.95 3.45 36.35 2.30z"/>
 </g>
 <g fill="#ffa212">
  <path d="M651.25 811.45 c-1.90 -0.25 -5.65 -0.70 -8.25 -1 -10.05 -1.20 -23.30 -4.35 -33 -7.85 -31.05 -11.15 -56.70 -29.85 -79.05 -57.60 -3.85 -4.75 -5.65 -7.35 -11.65 -16.65 -1.05 -1.60 -2.90 -5.10 -4.15 -7.75 -1.25 -2.65 -3 -6.40 -3.90 -8.35 -4.50 -9.35 -9.65 -24.65 -11.25 -33.25 -0.25 -1.25 -0.65 -3.25 -0.95 -4.50 -0.30 -1.25 -1.15 -6.20 -1.85 -11 -1.25 -7.90 -1.35 -10.10 -1.35 -22.75 0 -8.05 0.20 -15.50 0.55 -17.50 0.30 -1.90 0.80 -5.30 1.10 -7.50 1.45 -10.65 5.65 -25.90 10.80 -38.75 1.85 -4.65 6.90 -14.95 9.50 -19.50 1.30 -2.25 8.85 -13.60 9.75 -14.65 0.25 -0.35 1.60 -2.15 3.05 -4.10 5.50 -7.55 17.15 -19.70 27.10 -28.20 2.60 -2.25 8.35 -6.50 11.55 -8.60 1.10 -0.70 3.90 -2.55 6.25 -4.05 13.45 -8.75 28.45 -15.25 46.40 -20.20 8.55 -2.35 7.95 -2.20 16.50 -3.70 8.10 -1.45 15.55 -2 28.25 -2 16.20 0 23.85 0.75 35.85 3.45 8.05 1.85 18.60 4.95 20.60 6.05 0.50 0.30 1.30 0.50 1.80 0.50 0.50 0 1.10 0.20 1.35 0.45 0.30 0.20 1.95 1 3.75 1.70 16.30 6.35 31.65 15.40 45.50 26.70 5.50 4.50 18.50 17.25 22.85 22.40 16.15 19.20 27.70 42 33.90 66.75 0.45 1.80 1 4.05 1.25 5 0.60 2.50 1.35 6.60 2 11.50 0.30 2.35 0.80 5.60 1.05 7.30 0.75 4.90 0.55 28.65 -0.30 35.20 -1.45 11.70 -2.45 17.50 -4 23.25 -0.40 1.40 -1.15 4.25 -1.75 6.40 -1.10 4.20 -2.30 8 -3 9.60 -0.20 0.55 -0.90 2.35 -1.50 4 -1.60 4.40 -1.55 4.25 -6.20 13.80 -2.40 4.85 -4.90 9.65 -5.55 10.65 -0.70 1 -1.25 1.95 -1.25 2.05 0 0.50 -6.65 10.35 -9.80 14.55 -10 13.30 -20.95 24.50 -32.40 33.15 -4 3 -14.35 10.05 -17.05 11.55 -0.95 0.55 -2.60 1.50 -3.60 2.05 -3.65 2.10 -12.95 6.75 -15.15 7.65 -1.25 0.50 -2.90 1.20 -3.75 1.55 -7.95 3.45 -24.15 8.20 -34.25 10 -13.45 2.40 -35.30 3.45 -45.75 2.20z m31.85 -21.95 c9.40 -1.35 10.15 -1.50 19.45 -3.75 4.85 -1.15 14.75 -4.15 17.20 -5.20 16.05 -6.85 27.55 -13.30 38.10 -21.35 9.85 -7.55 23.75 -21.90 30.05 -31.10 6.90 -10.10 10 -15.30 13.70 -23.10 1.35 -2.90 2.65 -5.70 2.85 -6.25 0.25 -0.55 0.65 -1.55 0.95 -2.25 6.55 -15.75 10.60 -37.40 10.60 -56.40 0 -10.90 -2.05 -26.45 -4.85 -36.60 -0.40 -1.50 -0.90 -3.40 -1.15 -4.25 -0.70 -2.80 -3.05 -9.50 -4.05 -11.60 -0.50 -1.20 -0.95 -2.35 -0.95 -2.65 0 -0.30 -0.20 -0.90 -0.50 -1.40 -0.25 -0.45 -1.20 -2.40 -2.05 -4.35 -3.65 -8.25 -14.40 -25.70 -17.95 -29.25 -0.15 -0.15 -1.55 -1.80 -3.10 -3.75 -4.35 -5.40 -15.20 -15.75 -21.80 -20.80 -2.30 -1.75 -15 -10.45 -15.30 -10.45 -0.10 0 -1.65 -0.85 -3.35 -1.90 -3.65 -2.15 -12.30 -6.40 -16.80 -8.15 -11.30 -4.45 -21.60 -7.55 -30.15 -9 -15.05 -2.60 -25.30 -3.30 -36.15 -2.50 -15.05 1.20 -24.45 3 -38.10 7.30 -8.90 2.85 -21.35 8.65 -31.20 14.50 -13.25 7.90 -28.60 20.80 -36.60 30.75 -1.20 1.50 -2.30 2.85 -2.45 3 -1.95 1.80 -12.50 17.75 -12.50 18.90 0 0.40 -0.40 1.30 -0.90 2 -0.50 0.75 -1.15 1.90 -1.45 2.60 -0.85 1.75 -4.10 8.95 -4.90 10.75 -0.35 0.85 -1.10 2.50 -1.65 3.75 -1.15 2.65 -4.55 12.65 -6.05 17.75 -4.05 14.20 -6.10 36.05 -4.55 48.80 1.05 8.50 1.55 12.25 2.05 14.70 1.35 6.50 2.55 11.60 3 12.35 0.25 0.50 0.45 1.20 0.45 1.60 0 0.70 2.65 9.20 3.45 11.05 0.25 0.55 0.75 1.80 1.10 2.75 1.05 3 7.55 16.05 10.15 20.50 7.65 13.05 17.55 25.05 30.15 36.50 11.95 10.90 28.25 20.90 43.65 26.85 1.80 0.70 3.70 1.40 4.25 1.65 2.80 1.15 7.65 2.65 14.65 4.50 5.85 1.60 18.65 3.65 26.35 4.20 4.35 0.35 22.50 -0.15 26.35 -0.70z"/>
  <path d="M639.50 741 c-4.70 -0.40 -5.75 -0.85 -8.65 -3.70 -1.65 -1.65 -2.50 -3.05 -3.05 -5 -1 -3.35 -1 -3.95 0 -7.35 0.60 -2.05 1.40 -3.30 3.50 -5.30 1.45 -1.45 3.10 -2.65 3.65 -2.65 0.55 0 1.15 -0.20 1.30 -0.50 0.20 -0.30 4.40 -0.50 11.05 -0.50 l10.70 0 0 -41 c0 -22.55 0.05 -41.15 0.15 -41.35 0.05 -0.25 -4.50 -0.55 -10.15 -0.70 -13.25 -0.35 -15.60 -1.15 -18.55 -6.25 -1.30 -2.30 -1.60 -3.35 -1.60 -5.85 0.05 -5.05 2.30 -8.65 6.90 -10.80 2.15 -1 3 -1.05 20.25 -1.05 17.30 0 18.10 0.05 20.25 1.05 2.90 1.35 5.30 3.80 6.80 6.80 l1.20 2.40 -0.15 45.50 c-0.05 25.05 -0.25 46.80 -0.40 48.40 l-0.30 2.85 11.20 0 11.15 0 2.75 1.45 c5.20 2.65 8.30 8.60 6.95 13.45 -0.70 2.55 -2.25 5.35 -3.75 6.70 -0.55 0.45 -2.20 1.45 -3.70 2.25 l-2.75 1.40 -30.50 0 c-16.75 0 -32.20 -0.10 -34.25 -0.25z"/>
  <path d="M664.15 577.95 c-1.45 -0.20 -4.05 -1.05 -5.85 -1.95 -10.15 -5.10 -14.10 -16.65 -9.15 -26.75 1.30 -2.65 6.55 -7.75 9.35 -9.10 11.50 -5.35 25 0.85 28.95 13.30 0.85 2.65 0.65 8 -0.35 10.80 -3.60 9.85 -12.40 15.05 -22.95 13.70z"/>
 </g>
</svg>